<svg width="751" height="771" viewBox="0 0 751 771" fill="none" xmlns="http://www.w3.org/2000/svg">
<path d="M479.29 381.127C487.278 381.127 493.935 378.907 500.148 373.135C508.58 365.586 509.911 354.042 504.142 344.717C502.367 342.053 501.479 342.053 498.817 343.829C487.722 351.822 477.515 360.702 465.533 368.25C465.089 368.694 464.645 369.138 464.201 369.583C461.095 373.135 461.538 376.243 465.533 378.463C469.97 380.239 474.408 381.127 479.29 381.127ZM254.29 381.127C258.728 381.127 262.722 380.239 266.716 378.907C268.935 378.019 271.598 377.131 272.041 374.023C272.485 370.915 270.71 369.138 268.491 367.806C265.828 365.586 262.722 363.81 260.059 362.034C251.627 355.818 243.639 349.602 235.651 343.385C233.432 341.609 232.544 342.053 231.213 344.273C228.107 349.158 226.775 354.486 227.663 360.258C229.438 372.691 240.976 381.127 254.29 381.127ZM317.751 655.088C321.746 659.084 326.183 661.304 331.065 663.08C350.592 670.628 370.562 671.96 390.976 668.408C402.071 666.632 412.722 663.08 421.598 655.976C422.485 655.088 424.26 654.644 423.817 653.312C423.373 652.423 422.041 652.423 420.71 652.423C418.491 652.423 416.272 652.423 414.497 652.423C403.402 652.867 392.308 653.756 381.213 653.756C363.018 653.756 344.822 655.088 326.627 653.312C323.965 653.312 320.858 654.2 317.751 655.088ZM46.5976 403.328C45.2663 404.216 45.2663 405.548 44.8225 406.436C41.2722 418.425 38.6095 430.857 36.8343 443.734C35.0592 458.387 34.6154 473.039 36.8343 487.248C40.8284 509.449 50.5917 529.43 63.4615 547.635C76.7752 566.284 92.7515 582.712 110.059 597.809C137.574 622.23 167.308 643.987 197.929 664.856C217.899 678.621 238.314 691.497 259.172 703.93C289.793 722.135 320.858 739.451 353.254 754.104C367.456 760.764 380.325 761.208 394.527 754.548C410.947 747 426.923 739.007 442.899 730.571C478.846 711.478 513.018 690.165 546.746 667.52C580.473 644.875 612.87 621.342 643.047 594.257C661.686 577.384 678.994 558.735 692.752 537.422C710.947 509.449 717.16 478.812 713.166 445.954C710.503 424.641 704.734 404.66 698.077 384.235C697.633 382.459 696.746 380.683 695.414 378.019C693.639 383.791 692.308 389.119 690.533 394.004C682.544 417.093 670.118 438.406 657.692 459.719C633.728 499.68 603.994 534.758 568.491 565.396C544.527 585.82 518.787 603.581 490.385 617.79C486.834 619.566 483.728 621.342 484.172 626.226C484.172 628.002 483.728 629.778 482.84 631.11C479.734 639.991 474.852 646.207 464.645 647.539C461.538 647.983 459.32 648.427 456.657 651.535C448.225 662.192 436.686 668.852 424.26 673.736C396.302 684.837 367.899 686.613 338.609 680.841C318.639 676.845 300.444 669.296 286.243 654.644C283.136 651.535 280.03 650.647 276.479 650.203C260.059 647.983 252.959 642.211 249.408 628.002C248.077 623.118 245.858 620.01 241.42 617.79C227.663 611.13 214.793 603.581 202.367 595.145C170.858 573.832 143.343 548.523 118.491 519.661C90.9763 487.692 69.2308 452.17 51.4793 414.429C50.1479 410.876 48.3728 407.324 46.5976 403.328ZM533.876 324.736C531.657 324.736 529.882 324.292 527.663 324.292C524.112 324.292 520.118 324.292 517.012 326.513C516.124 326.957 515.237 327.401 515.237 328.733C515.68 329.621 516.568 329.621 517.456 329.621C521.006 330.509 524.556 330.953 528.107 332.285C534.763 334.505 541.864 335.393 548.077 338.945C539.201 339.389 530.769 340.277 521.893 339.833C518.343 339.389 517.899 340.721 518.787 343.829C525 367.362 509.024 389.119 484.615 391.784C480.621 392.228 476.183 391.339 471.746 391.339C473.521 394.004 474.852 396.224 476.183 398C476.627 398.888 477.515 399.332 478.846 399.332C501.479 398.444 521.893 388.675 527.663 362.478C528.107 361.146 527.663 359.814 528.994 358.926C529.882 360.702 529.882 362.034 530.325 363.81C531.213 375.355 528.55 386.455 522.781 396.224C522.337 396.668 521.893 397.112 521.45 398C513.018 409.1 502.811 416.205 489.053 418.869C487.722 419.313 486.834 419.757 486.834 421.089C487.278 426.417 484.615 430.857 481.953 435.742C478.846 441.958 477.959 448.174 480.178 454.834C485.503 469.487 491.716 483.696 496.598 498.348C499.704 511.669 503.254 524.546 504.586 539.198C512.13 531.206 518.787 523.658 525.444 516.553C525.888 517.441 526.331 518.329 525.888 519.217C525 525.878 524.556 532.538 523.225 539.198C519.675 560.067 512.13 579.16 501.923 597.809V598.253H502.367C504.586 598.253 505.473 596.477 507.249 595.589C538.314 576.052 565.385 551.631 589.793 524.102C610.207 501.013 627.959 475.703 642.604 449.062C646.598 441.514 651.036 434.409 653.698 425.973C664.349 404.216 671.45 381.127 670.118 356.706C670.118 350.934 669.675 344.717 669.675 338.945C669.231 316.3 667.899 294.099 666.568 271.454C665.68 260.797 664.349 250.585 657.692 241.261C656.805 239.929 655.473 238.152 652.811 237.264C654.586 241.261 655.917 245.257 656.805 248.809C661.686 274.118 662.13 299.871 662.13 326.069C662.13 326.513 661.686 326.957 661.686 327.845C661.686 327.401 661.686 326.957 661.243 326.513C654.142 303.867 647.042 280.778 639.497 258.133C635.947 247.033 630.178 238.152 621.746 230.16C590.237 199.523 556.065 172.437 521.45 145.796C514.793 140.468 509.911 134.252 506.805 126.703C502.367 116.491 501.923 105.834 500.592 95.1779C501.036 88.5176 501.036 81.8573 502.367 74.3089C502.811 76.085 503.254 76.9731 503.698 77.8611C507.249 90.2937 511.243 102.282 514.793 114.715C515.237 116.491 515.68 118.267 517.456 119.599C524.556 125.371 531.657 130.7 538.757 136.472C544.97 141.8 551.627 147.128 557.84 152.457C560.503 154.677 561.391 154.677 562.278 151.124C567.604 135.584 574.26 120.487 584.911 107.61C590.237 100.95 596.45 95.6219 604.882 92.5138C615.976 88.5176 622.633 92.5138 624.408 104.058C624.408 104.502 624.408 104.946 624.408 105.39C626.183 127.147 627.071 148.904 626.627 170.661C626.627 179.986 626.627 189.754 623.521 198.635C621.302 204.851 623.521 208.403 627.959 211.511C629.734 212.843 631.065 212.843 632.84 211.511C637.722 207.071 639.497 200.855 641.272 195.082C647.041 172.881 648.373 149.792 645.71 127.147C643.935 110.719 639.497 95.1779 632.396 80.5252C627.959 71.6448 622.189 64.5405 612.426 60.9883C611.095 59.6563 609.32 59.2123 607.988 58.7682C595.118 54.772 582.249 56.5481 569.379 60.5443C553.846 64.9845 540.089 72.0888 530.325 84.9654C526.775 89.8497 524.112 95.1779 521.893 101.394C520.118 99.1741 520.118 97.398 519.675 95.6219C517.899 87.1855 517.899 79.1932 517.899 70.7568C517.899 68.0927 517.456 66.7606 514.793 65.4285C494.379 54.772 473.077 46.7797 450.444 41.8955C434.024 38.3433 417.604 36.5672 400.74 35.2352C394.97 34.7911 389.645 35.2352 384.763 40.1194C378.994 45.8916 371.45 48.9998 363.018 47.6677C355.917 46.7797 350.592 42.7835 345.71 38.3433C343.047 36.1232 340.828 35.2352 337.278 35.2352C317.308 35.6792 297.781 38.3433 278.698 42.7835C257.84 47.6677 237.426 55.2161 218.787 65.4285C217.012 66.3166 216.124 67.2046 216.568 69.4247C217.899 77.8611 216.568 86.7415 215.237 95.1779C214.793 96.954 214.793 99.1741 213.462 100.95C212.13 100.062 212.13 98.7301 211.686 97.842C209.024 91.1817 205.473 84.9654 200.148 80.0812C183.284 64.0965 161.982 57.4362 138.905 57.4362C133.136 57.4362 127.367 58.3242 122.485 61.8764C120.266 62.3204 118.047 63.6525 115.828 65.4285C107.396 71.2008 102.959 79.6372 99.4083 88.9616C93.6391 104.058 90.0888 119.599 88.7574 135.584C86.9823 157.341 89.2012 179.098 94.9704 200.411C96.3018 204.407 98.0769 208.403 100.74 211.955C102.959 214.175 104.734 215.507 107.396 212.399C108.728 211.067 110.503 209.735 111.834 208.403C112.722 207.515 113.166 206.627 112.722 205.295C108.284 194.194 108.284 182.206 107.84 170.217C106.953 149.348 107.84 128.035 110.059 107.166C111.391 91.6257 119.822 88.5176 132.249 94.2899C132.692 94.2899 133.136 94.7339 133.58 94.7339C143.787 99.6181 150.444 108.054 156.213 116.935C163.757 128.479 169.083 140.912 173.077 153.789C173.965 156.009 174.408 156.897 176.627 155.121C183.284 149.348 190.385 144.02 197.041 138.248C203.698 132.92 209.467 127.147 215.237 120.931C217.012 118.711 218.787 116.491 219.675 113.827C221.893 108.054 224.112 101.838 225.888 96.0659C228.107 89.4056 229.882 82.7453 232.101 75.641C233.432 82.7453 232.988 89.8496 233.432 96.954C232.988 102.282 232.544 107.166 231.657 112.495C229.438 125.371 224.556 137.36 213.462 145.796C201.036 155.565 188.166 165.333 175.74 175.546C153.107 193.75 130.473 212.399 110.503 233.268C106.065 238.152 101.183 242.593 98.5207 248.809C89.645 273.23 81.6568 297.651 74.5562 322.516C74.5562 322.96 74.1124 322.96 74.1124 323.404C73.6686 325.18 73.2249 326.957 72.7811 328.733C71.0059 327.845 71.8935 326.068 71.8935 324.736C71.8935 306.532 72.3373 288.327 74.1124 269.678C75 259.465 75.8876 248.809 80.3254 239.04C80.7692 238.596 81.213 237.708 80.3254 236.82C79.4379 235.932 78.5503 236.376 78.1065 236.82C73.6686 239.04 71.0059 242.593 70.1183 247.477C67.4556 263.462 67.0118 279.002 66.1243 294.987C65.6805 304.756 64.7929 314.524 64.3491 324.292C63.9053 336.725 62.574 348.714 63.4615 361.146C63.0178 387.787 71.8935 411.32 84.3195 434.409C84.7633 435.298 84.7633 436.186 85.2071 437.074C90.9763 448.174 97.6331 458.831 103.846 469.487C117.604 492.132 133.58 513.445 151.775 532.982C170.414 552.963 190.828 571.168 213.462 586.708C217.899 589.817 222.337 592.481 226.775 595.589C227.219 593.813 226.331 593.369 226.331 592.481C216.568 573.832 209.911 554.739 206.805 533.87C205.917 528.098 205.03 522.326 205.917 516.553C213.462 524.546 221.006 532.982 228.994 541.418C229.882 535.646 230.325 530.762 231.213 525.434C232.544 516.997 234.763 508.561 236.982 500.124C237.87 498.348 238.757 496.572 239.201 494.796C244.083 481.476 250.296 468.155 253.846 454.39C255.178 449.506 255.178 445.066 252.071 440.626C248.521 434.854 246.302 429.081 247.189 421.977C247.189 420.201 246.746 419.313 244.527 418.869C236.982 417.537 230.325 414.429 224.556 409.544C218.343 404.66 213.462 398.888 209.024 392.228C203.698 377.131 201.923 363.81 205.473 358.482C205.917 360.702 206.361 362.034 206.805 363.81C208.58 371.359 212.13 378.019 217.456 383.791C225.888 392.672 236.538 396.224 248.077 398C254.734 398.888 256.953 397.556 259.172 390.895C258.728 390.895 258.284 390.451 258.284 390.451C257.396 390.451 256.509 390.451 255.178 390.451C242.308 391.34 231.657 386.899 223.225 377.131C214.349 366.474 211.686 354.486 215.237 341.165C215.68 339.389 216.568 337.169 213.462 337.613C202.367 338.945 190.828 338.057 179.734 337.613C180.178 335.837 181.953 335.837 183.284 335.393C193.491 332.285 203.698 329.621 214.349 327.401C215.68 326.957 217.899 327.845 217.899 326.069C217.899 324.736 215.68 324.292 214.349 323.848C213.905 323.404 213.018 323.848 212.574 323.404C208.136 322.072 204.142 323.848 199.704 323.848C200.148 322.072 201.479 321.628 202.811 321.184C215.68 314.08 231.213 316.3 242.751 325.624C249.408 331.397 255.178 338.057 261.391 344.717C263.166 346.493 264.497 348.714 267.16 349.158C267.16 347.826 266.716 347.381 265.828 346.493C259.615 338.501 253.402 330.065 247.633 322.072C241.864 314.524 236.538 306.532 229.882 299.427C227.219 296.763 224.556 295.431 220.562 295.431C205.917 295.431 193.047 301.203 180.178 306.532C172.633 309.64 165.976 313.636 158.432 316.3C167.308 305.644 176.627 296.319 187.278 287.883C196.154 281.222 205.03 275.45 216.124 272.786C228.994 270.122 240.089 273.23 248.521 283.887C257.396 294.987 266.272 306.088 275.148 317.188C282.692 326.513 290.681 335.837 298.669 344.717C303.107 350.046 308.432 351.378 315.089 349.158C320.414 347.381 325.296 344.273 330.178 341.165C331.953 340.277 332.84 338.501 335.059 338.501C331.065 349.158 325.296 358.038 315.976 364.698C313.757 366.03 313.757 366.918 315.533 369.138C322.189 378.463 327.071 388.231 325.296 400.22C321.302 427.749 312.426 453.946 301.331 479.256C300.444 481.032 300 482.808 297.781 483.696C297.781 477.479 300 472.151 301.331 466.379C305.769 444.622 310.651 422.421 312.426 400.22C313.314 390.451 308.876 382.459 303.107 374.023C296.006 388.231 288.905 402.44 282.249 416.205C281.805 414.873 281.805 413.541 281.805 412.652C282.249 407.324 283.58 401.996 283.58 396.668H284.024C284.024 396.668 284.024 396.224 283.58 396.224V396.668C277.367 403.328 273.373 410.876 268.935 418.869C267.16 422.421 267.16 425.085 269.822 428.193C275.148 434.409 276.923 441.958 275.148 449.95C273.817 456.611 271.598 462.383 269.379 468.599C263.609 482.808 257.84 497.016 254.29 512.113C247.189 540.086 244.97 568.06 261.391 595.145C264.497 587.597 266.716 580.492 271.154 573.388C271.154 575.608 271.154 576.496 271.154 577.828C270.266 591.593 269.379 605.357 268.935 619.122C268.491 627.558 270.71 630.222 279.586 630.667C289.349 631.111 298.669 629.334 307.988 626.67C318.639 624.894 329.29 621.786 339.941 620.01C349.26 618.234 359.024 616.014 368.787 616.458C378.55 616.902 388.314 618.678 397.633 620.454C405.178 621.786 412.722 624.006 420.71 624.45C424.26 625.782 428.254 625.782 432.249 626.226C441.568 627.114 450.444 628.89 460.207 628.002C462.426 628.002 463.314 627.114 463.757 624.894C464.201 621.342 464.645 617.79 464.645 614.238C464.201 604.913 463.757 595.589 463.314 586.264C463.314 582.268 463.314 578.716 463.314 573.832C467.308 580.492 469.527 586.708 472.189 593.369C487.278 572.056 487.278 537.866 477.515 507.673C476.627 501.901 474.408 496.572 472.633 491.244C468.639 480.144 463.757 469.043 459.763 457.943C456.213 446.842 456.213 436.186 464.645 426.861C466.42 425.085 465.976 423.309 465.089 421.089C461.982 413.985 457.544 407.324 453.107 401.108C452.219 399.776 450.888 398.444 449.556 396.224C450.444 403.772 451.775 409.988 451.331 416.205C444.231 401.996 437.574 388.231 430.473 374.023C429.142 374.911 428.254 375.799 427.811 376.687C420.266 386.455 419.379 397.112 420.71 409.1C423.373 429.969 427.367 450.394 432.249 471.263C433.136 475.703 434.024 480.144 435.355 485.028C432.692 482.808 431.361 480.588 430.473 478.367C421.598 459.275 415.385 439.294 410.059 419.313C408.284 412.208 406.953 405.548 406.509 398.444C405.621 387.787 410.503 379.351 416.272 370.915C417.604 368.694 417.604 367.806 415.385 366.918C410.503 363.81 406.953 360.258 403.846 355.818C400.296 350.934 397.633 345.605 394.97 340.721C394.97 340.277 394.97 340.277 395.414 339.833C397.189 339.833 398.077 341.165 399.408 342.053C403.402 344.717 407.396 347.381 411.391 349.158C421.154 353.598 426.036 352.266 433.136 344.717C450.888 325.18 466.864 304.755 483.284 284.331C487.722 278.558 493.491 275.45 500.592 274.118C511.686 271.898 521.893 275.894 531.213 281.222C545.858 289.659 558.284 301.647 569.823 314.08C570.71 315.412 572.041 316.744 572.929 317.632C572.929 317.632 572.485 317.632 572.485 318.076C566.716 315.412 560.503 312.304 554.734 309.64C543.195 304.312 531.657 299.427 518.787 297.207C509.911 295.431 502.367 296.319 497.041 305.2C496.154 306.532 495.266 307.864 493.935 309.196C480.621 326.513 468.639 345.161 453.55 361.146C453.107 361.59 453.107 362.034 453.994 362.478C461.538 357.15 468.195 351.378 474.408 344.717C479.29 339.389 484.615 334.061 489.941 328.733C497.929 321.628 506.805 317.632 517.899 318.52C523.669 318.52 529.438 319.852 533.876 324.736ZM270.71 354.042V353.598H270.266C270.266 354.042 270.71 354.042 270.71 354.042ZM0 456.166C0 435.298 4.88166 415.317 9.31953 395.336C23.9645 323.848 44.3787 253.693 61.6864 182.65C63.0178 176.434 63.0178 170.661 62.574 164.889C59.0237 133.808 63.4615 103.614 75.8876 74.753C88.7574 44.5596 112.722 29.9069 147.337 30.7949C161.538 31.239 174.852 35.2351 186.834 42.7835C189.053 44.1156 190.828 44.1156 193.047 42.7835C224.112 23.2466 258.284 11.7021 294.675 5.92981C310.651 3.26568 326.627 1.93362 342.604 1.4896C350.592 0.601562 357.692 2.82166 363.905 8.14991C366.124 9.92599 367.456 9.92599 369.675 8.14991C375.444 2.82166 382.544 0.601562 390.976 0.601562C434.467 1.4896 476.627 9.03795 516.124 27.2428C525.444 31.683 534.32 36.1232 542.752 41.4514C544.97 42.7835 546.746 43.2275 548.965 41.4514C567.16 30.3509 586.686 27.6868 607.544 31.239C633.284 35.6792 649.704 51.2199 659.468 74.3089C667.899 93.8458 672.781 114.271 673.669 135.584C674.112 146.24 673.669 157.341 672.337 167.997C671.893 171.105 671.893 174.214 673.225 177.322C692.752 232.38 711.834 287.883 726.036 344.717C731.805 368.25 739.349 391.784 745.118 415.317C759.32 469.487 746.006 517.441 712.722 560.955C692.308 587.596 667.012 609.798 639.941 629.334C586.243 667.52 530.326 703.042 471.746 733.235C447.337 746.112 422.041 757.212 396.302 766.981C383.432 771.865 370.562 771.865 357.692 767.869C340.385 762.541 324.852 754.548 308.876 746.112C272.485 727.019 236.095 707.926 201.036 686.613C165.533 664.856 130.03 643.543 97.1894 617.79C71.0059 597.365 47.4852 575.164 29.2899 547.191C14.645 524.99 4.88166 500.569 1.77515 473.927C0.443787 468.599 0.443787 462.383 0 456.166Z" fill="#010101" fill-opacity="0.1"/>
<path d="M589.793 305.643C593.787 280.778 591.124 256.801 580.03 233.712C572.929 219.059 563.166 207.071 550.296 197.302C550.74 199.078 551.183 200.855 552.071 202.631C559.615 218.171 566.716 234.156 572.929 250.141C580.03 268.346 587.13 286.106 589.793 305.643ZM184.615 196.414C157.101 209.735 134.911 269.678 144.231 304.755C151.331 266.57 169.083 231.936 184.615 196.414ZM395.414 339.389C395.414 339.833 395.414 339.833 394.97 340.277C394.083 339.833 392.752 339.833 391.864 339.389C378.107 334.061 363.905 332.729 349.704 335.837C345.266 336.725 341.272 338.501 336.834 338.945C336.391 338.945 335.503 338.945 335.503 339.833C333.284 339.833 331.953 341.609 330.621 342.497C325.74 345.605 320.858 348.713 315.533 350.489C308.876 352.71 303.55 351.378 299.112 346.049C291.124 337.169 283.136 327.844 275.592 318.52C266.716 307.419 257.84 296.319 248.965 285.218C240.533 274.562 229.438 271.454 216.568 274.118C205.473 276.338 196.598 282.554 187.722 289.215C177.071 297.651 167.308 307.419 158.876 317.632C166.42 314.524 173.077 310.528 180.621 307.863C180.621 309.196 179.734 310.528 178.846 311.416C173.077 318.076 167.752 325.18 162.87 332.285C161.538 334.061 160.651 335.837 161.982 338.501C163.314 340.721 165.533 340.721 167.752 340.721C171.746 340.277 175.74 339.833 179.734 339.389C190.828 339.833 202.367 340.721 213.462 339.389C217.012 338.945 215.681 341.165 215.237 342.941C211.686 356.262 213.905 368.25 223.225 378.907C231.657 388.675 242.308 392.671 255.178 392.227C256.065 392.227 256.953 392.227 258.284 392.227C258.728 392.227 259.172 392.227 259.172 392.671C256.953 399.332 254.734 400.664 248.077 399.776C236.538 398 225.888 394.447 217.456 385.567C212.13 379.795 208.58 373.135 206.805 365.586C206.361 363.81 205.917 362.034 205.473 360.258C201.923 365.142 203.698 378.907 209.024 394.003C208.136 394.892 208.58 396.224 209.024 397.112C209.911 400.664 210.799 404.216 211.686 407.768C219.675 437.961 227.219 468.155 234.763 498.792C235.207 500.124 235.207 501.012 236.538 501.9C234.763 510.337 232.101 518.329 230.769 527.21C229.882 532.094 229.438 536.978 228.55 543.194C220.562 534.314 213.018 526.322 205.473 518.329C189.053 510.781 173.521 502.788 158.432 493.464C132.692 477.923 108.728 460.163 87.8699 439.294C86.9823 438.406 86.0947 437.073 84.3196 436.629C71.8935 413.984 63.0178 390.007 63.4616 363.366C64.7929 362.922 64.7929 361.59 65.2367 360.702C67.0119 354.486 68.787 348.269 70.1184 342.053C71.006 338.057 72.3373 334.505 72.7811 330.509C73.2249 328.732 73.6687 326.956 74.1125 325.18C74.1125 324.736 74.5562 324.736 74.5562 324.292C81.6568 299.427 89.2012 275.006 98.5207 250.585C101.627 241.704 106.509 237.264 110.947 232.38C130.917 211.511 153.55 192.862 176.183 174.657C188.609 164.445 201.036 154.676 213.905 144.908C225 136.472 229.882 124.483 232.101 111.606C232.988 106.722 233.432 101.394 233.876 96.0657C235.207 95.6217 235.651 94.2896 236.538 92.9576C241.42 84.9652 248.077 78.7489 256.953 75.6408C280.03 67.2044 302.219 69.4245 323.521 81.4131C334.615 88.0734 345.266 95.6217 353.698 105.834C355.03 107.61 356.361 109.386 358.58 110.274C358.136 116.935 357.692 123.595 357.249 130.255C356.805 149.792 356.805 169.329 358.136 188.422C359.467 212.843 361.243 237.708 363.462 262.129C364.349 269.678 364.793 276.782 367.012 284.33C373.225 226.608 381.213 168.441 378.107 110.274C380.325 109.386 381.657 107.61 383.432 105.834C390.533 97.3978 398.965 90.7375 408.284 84.5212C425.592 72.9767 445.118 68.5365 465.533 71.6446C476.627 73.4207 485.947 77.4169 493.935 85.4092C496.598 88.0734 498.373 91.6255 501.479 94.2896C502.367 104.946 503.254 115.603 507.692 125.815C510.799 133.363 515.68 140.024 522.337 144.908C556.953 171.549 591.124 198.634 622.633 229.272C630.621 237.264 636.834 246.145 640.385 257.245C647.929 279.89 655.03 302.535 662.13 325.624C662.13 326.068 662.13 326.512 662.574 326.956C665.237 334.061 666.124 341.165 668.343 348.269C669.231 350.489 668.787 353.598 671.006 354.93C672.781 379.795 665.68 402.44 654.586 424.197C650.592 426.417 648.373 430.413 645.266 433.521C636.834 442.402 627.515 450.394 618.195 457.942C598.669 473.927 577.367 487.248 555.178 499.68C545.858 505.009 535.651 509.449 526.331 514.777C519.675 521.881 513.018 529.43 505.473 537.422C504.586 522.769 501.036 509.893 497.485 496.572C498.373 496.128 498.373 495.24 498.817 494.352C501.479 484.14 504.142 473.927 506.805 463.715C512.13 442.402 517.456 421.533 523.225 400.22C523.669 398.444 524.556 396.668 524.112 394.892C529.882 384.679 532.544 374.023 531.657 362.478C531.657 360.702 531.657 358.926 530.325 357.594C528.55 358.482 528.994 359.814 528.994 361.146C523.225 387.343 502.811 397.112 480.178 398C478.846 398 478.402 398 477.515 396.668C476.183 394.447 474.852 392.227 473.077 390.007C477.959 390.007 481.953 390.895 485.947 390.451C510.355 387.787 525.888 366.03 520.118 342.497C519.231 339.389 519.675 338.057 523.225 338.501C532.101 338.945 540.533 338.057 549.408 337.613C555.178 338.945 561.391 340.277 567.16 341.165C569.379 341.609 571.598 341.165 572.929 338.945C574.26 337.169 573.817 334.949 572.485 333.617C569.379 329.176 566.272 324.736 563.166 319.852C560.503 315.856 556.953 312.748 555.178 308.308C560.947 310.972 567.16 314.08 572.929 316.744C572.929 316.744 573.373 316.744 573.373 316.3C572.485 314.968 571.154 313.636 570.266 312.748C558.728 300.315 546.746 288.327 531.657 279.89C522.337 274.562 512.574 270.566 501.036 272.786C493.935 274.118 488.166 277.226 483.728 282.998C467.308 303.423 451.331 324.292 433.58 343.385C426.479 351.378 421.598 352.266 411.834 347.825C407.396 346.049 403.402 343.385 399.852 340.721C398.077 340.721 397.189 339.389 395.414 339.389C395.414 339.389 395.858 338.501 394.97 338.945L395.414 339.389Z" fill="#9B9B9B" fill-opacity="0.1"/>
<path d="M46.5977 403.328C48.3729 407.324 50.148 410.877 51.9232 414.429C70.1184 452.171 91.4202 487.692 118.935 519.662C143.787 548.523 171.302 573.832 202.811 595.145C215.237 603.582 228.55 611.13 241.864 617.79C246.302 620.01 248.965 622.675 249.852 628.003C252.959 642.212 260.503 647.984 276.923 650.204C280.917 650.648 284.024 651.98 286.686 654.644C300.888 669.297 319.083 676.845 339.053 680.841C368.343 686.614 396.746 684.838 424.704 673.737C437.13 668.853 448.669 662.193 457.101 651.536C459.32 648.428 461.538 647.984 465.089 647.54C474.852 646.208 480.178 639.991 483.284 631.111C483.728 629.335 484.615 627.559 484.615 626.227C484.172 621.343 487.278 619.566 490.828 617.79C519.231 603.582 544.97 586.265 568.935 565.396C604.438 534.758 634.172 499.681 658.136 459.719C670.562 438.406 682.988 417.093 690.976 394.004C692.751 389.12 694.083 383.791 695.858 378.019C696.746 380.683 697.633 382.459 698.521 384.235C705.177 404.216 710.947 424.641 713.609 445.954C717.604 478.812 710.947 509.449 693.195 537.423C679.438 558.736 662.574 577.384 643.491 594.257C613.314 621.343 580.917 645.32 547.189 667.521C513.462 690.166 478.846 711.479 443.343 730.572C427.367 739.008 411.391 747 394.97 754.549C380.769 761.209 367.456 760.321 353.698 754.105C321.302 739.008 290.237 722.135 259.615 703.93C238.757 691.498 218.343 678.621 198.373 664.857C167.752 643.988 138.018 622.231 110.503 597.809C93.1953 582.713 77.219 566.284 63.9054 547.635C51.0356 529.43 40.8285 509.449 37.2782 487.248C34.6155 472.596 35.0593 457.943 37.2782 443.734C39.0533 431.302 41.7161 418.869 45.2664 406.436C45.2664 405.548 45.2664 404.216 46.5977 403.328Z" fill="#6E6E6E" fill-opacity="0.1"/>
<path d="M336.834 338.945C341.272 338.945 345.266 336.725 349.704 335.837C364.349 333.173 378.106 334.505 391.864 339.389C392.751 339.833 394.083 339.833 394.97 340.277C397.633 345.606 400.296 350.934 403.846 355.374C407.396 359.814 410.947 363.811 415.385 366.475C417.604 367.807 417.604 368.695 416.272 370.471C410.503 378.907 405.621 387.344 406.509 398C406.953 405.104 408.284 412.209 410.059 418.869C415.385 439.294 421.598 459.275 430.473 477.924C431.361 480.144 432.692 482.364 435.355 484.584C434.024 479.256 433.136 474.816 432.248 470.82C427.811 450.395 423.373 429.526 420.71 408.657C418.935 397.112 420.266 386.012 427.811 376.243C428.698 375.355 429.142 374.023 430.473 373.579C437.574 387.788 444.231 401.552 451.331 415.761C451.775 409.101 450.444 402.884 449.556 395.78C451.331 398 452.219 399.332 453.106 400.664C457.544 406.881 461.982 413.541 465.089 420.645C465.976 422.865 466.42 424.641 464.645 426.417C456.213 435.742 456.213 446.398 459.763 457.499C463.314 469.043 468.639 479.7 472.633 490.8C474.408 496.129 476.627 501.457 477.515 507.229C476.183 508.561 475.74 510.337 475.296 511.669C470.414 522.326 458.876 530.318 445.118 522.326C442.012 520.55 439.793 517.886 436.243 516.998C431.805 509.449 426.479 501.901 420.71 495.685H421.154C425.148 496.129 429.142 497.017 434.024 497.461C408.728 474.372 324.408 474.372 300 497.461C305.325 496.573 310.207 495.685 315.976 494.797C309.319 500.569 305.325 506.785 301.331 512.557C301.331 513.002 300.888 513.001 300.888 513.446C296.893 514.778 294.231 518.33 290.68 520.55C278.254 528.986 266.716 527.21 258.728 514.334C258.284 513.446 257.396 512.113 256.509 511.669C260.059 496.573 265.828 482.364 271.598 468.155C273.816 461.939 276.035 456.167 277.367 449.507C278.698 441.514 277.367 433.966 272.041 427.75C269.379 424.641 269.379 421.977 271.154 418.425C275.148 410.877 279.586 402.884 285.799 396.224C285.799 401.552 284.024 406.881 284.024 412.209C284.024 413.541 284.024 414.429 284.467 415.761C291.568 401.996 298.225 387.788 305.325 373.579C311.095 381.571 315.089 390.008 314.645 399.776C312.87 421.977 307.988 444.178 303.55 465.935C302.219 471.708 300 477.48 300 483.252H299.556V483.696C299.556 483.696 299.556 483.252 300 483.252C302.219 482.364 302.663 480.588 303.55 478.812C315.089 453.503 323.964 427.306 327.515 399.776C329.29 387.788 324.408 378.019 317.751 368.695C316.42 366.475 316.42 365.587 318.195 364.255C327.071 357.594 333.284 348.27 337.278 338.057C335.947 339.389 336.39 338.945 336.834 338.945Z" fill="#C9B89E" fill-opacity="0.1"/>
<path d="M500.148 94.7337C497.041 92.0695 495.266 88.5174 492.604 85.8532C484.615 77.8609 474.852 73.4206 464.201 72.0886C443.343 68.9804 424.26 73.4207 406.953 84.9652C397.633 90.7375 389.201 97.8418 382.101 106.278C380.769 108.054 378.994 109.83 376.775 110.718C375.888 104.502 375.444 98.7299 372.781 92.9576C371.894 90.7375 370.118 88.5174 367.456 88.5174C364.793 88.5174 363.905 90.7375 362.574 92.5136C361.243 94.7337 360.799 96.9538 360.355 99.1739C359.467 103.17 358.58 106.722 358.136 110.718C355.917 109.83 354.586 108.054 353.254 106.278C344.822 96.0657 334.615 88.5174 323.077 81.857C301.775 69.8685 279.586 67.6484 256.509 76.0848C248.077 79.1929 241.42 85.4092 236.095 93.4016C235.207 94.7337 235.207 96.0657 233.432 96.5097C232.988 89.4054 233.432 82.3011 232.101 75.1967C229.882 82.3011 228.107 88.9614 225.888 95.6217C224.112 101.394 221.893 107.61 219.675 113.383C218.787 116.047 217.012 118.267 215.237 120.487C209.467 126.703 203.254 132.475 197.041 137.804C196.598 136.028 195.71 134.696 194.822 133.364C187.722 122.707 180.177 112.495 172.189 102.282C163.757 91.6255 154.438 81.413 143.787 72.5326C137.574 67.2043 130.03 64.0962 122.041 61.8761C126.923 58.768 132.692 57.4359 138.462 57.4359C161.538 57.4359 182.396 63.6522 199.704 80.081C205.03 84.9652 208.58 91.1815 211.243 97.8418C211.686 98.7299 211.686 100.506 213.018 100.95C214.349 99.1739 214.349 96.9538 214.793 95.1777C216.124 86.7413 217.456 78.3049 216.124 69.4245C215.68 67.2044 216.568 66.3163 218.343 65.4283C237.426 55.2158 257.396 47.6674 278.254 42.7832C297.337 38.343 317.308 36.1229 336.834 35.2348C339.941 35.2348 342.604 35.6788 345.266 38.343C350.148 43.2272 355.917 46.7794 362.574 47.6674C371.006 48.9995 378.55 46.3354 384.32 40.1191C389.201 35.2348 394.083 34.7908 400.296 35.2348C417.16 36.5669 433.58 38.343 450 41.8951C472.633 46.7794 493.935 54.3277 514.349 65.4283C516.568 66.7603 517.456 68.0924 517.456 70.7565C517.012 79.1929 517.456 87.6293 519.231 95.6217C519.675 97.3978 519.675 99.6179 521.45 101.394C523.669 95.1777 526.331 89.8494 529.882 84.9652C539.645 71.6446 553.402 64.9842 568.935 60.544C581.805 56.9919 594.231 54.7718 607.544 58.768C609.32 59.212 611.095 59.656 611.982 60.9881C611.539 61.4321 610.651 61.8761 610.207 61.8761C599.556 64.0962 591.568 70.7565 584.024 77.8609C571.598 89.8494 560.947 103.17 550.74 117.379C546.746 123.151 541.864 128.923 538.757 135.584C531.657 129.811 524.556 124.039 517.456 118.711C515.681 117.379 515.237 115.603 514.793 113.827C511.243 101.394 507.249 89.4054 503.698 76.9728C503.254 76.0848 503.254 75.1967 502.367 73.4206C500.592 81.857 500.592 88.5174 500.148 94.7337Z" fill="#6E6E6E" fill-opacity="0.1"/>
<path d="M525 516.109C534.763 511.225 544.527 506.341 553.846 501.012C576.036 488.58 596.894 475.259 616.864 459.275C626.183 451.726 635.503 443.29 643.935 434.854C647.041 431.746 649.26 427.749 653.254 425.529C650.592 433.522 646.154 441.07 642.16 448.618C627.515 475.703 609.32 500.568 589.349 523.657C565.385 551.187 538.314 575.608 506.805 595.145C505.474 596.033 504.142 597.809 501.923 597.809L501.479 597.365C511.687 579.16 519.231 559.623 522.781 538.754C524.113 532.094 524.556 525.434 525.444 518.773C525.888 517.885 525.888 516.553 525 516.109Z" fill="#6E6E6E" fill-opacity="0.1"/>
<path d="M255.621 513.002C256.953 513.446 257.396 514.778 257.84 515.666C265.828 528.543 277.367 530.319 289.793 521.882C293.343 519.662 296.006 516.11 300 514.778C300 515.222 300 515.666 299.556 515.666C293.787 526.322 288.905 536.979 290.681 549.411C290.681 549.411 290.681 549.411 290.237 549.855C288.462 546.303 286.686 542.751 284.467 539.199C284.467 542.751 285.355 546.303 285.799 549.411C286.686 555.184 289.793 558.736 294.231 561.844C298.669 564.508 303.107 567.172 307.544 569.392C311.982 571.612 316.42 574.72 321.302 575.609C321.302 576.053 321.302 576.053 321.302 576.497C321.302 577.829 322.633 578.717 323.521 579.605C325.74 581.825 328.402 584.045 330.621 586.709C336.391 593.369 336.391 597.365 331.065 604.026C325.74 611.13 319.083 616.902 312.426 623.118C311.095 624.451 309.32 625.339 308.876 627.115C299.556 629.335 290.237 631.555 280.473 631.111C272.041 630.667 269.379 628.003 269.823 619.566C270.71 605.802 271.598 592.037 272.041 578.273C272.041 577.385 272.041 576.053 272.041 573.832C267.604 580.937 265.385 588.041 262.278 595.589C246.302 568.948 248.077 541.419 255.621 513.002Z" fill="#9B8E7C" fill-opacity="0.1"/>
<path d="M436.243 518.33C439.793 519.662 442.012 521.882 445.119 523.658C458.876 531.65 470.414 523.658 475.296 513.002C476.184 511.67 476.184 509.45 477.515 508.562C486.835 538.755 487.278 572.944 472.19 594.257C469.527 587.597 467.308 581.38 463.314 574.72C463.314 579.16 463.314 583.157 463.314 587.153C463.758 596.477 464.201 605.801 464.645 615.126C464.645 618.678 464.201 622.23 463.758 625.782C463.758 628.002 462.426 628.446 460.207 628.89C450.888 629.778 441.568 628.002 432.249 627.114C428.255 626.67 424.704 626.226 420.71 625.338C420.71 624.006 419.379 623.118 418.491 622.23C414.053 618.234 409.616 614.238 405.621 609.354C395.858 598.697 395.858 594.257 406.065 583.601C408.284 581.38 410.947 580.048 411.834 576.94C419.379 572.944 426.923 568.504 434.911 564.952C446.006 560.068 449.113 550.743 449.113 539.643C449.556 539.643 449.556 539.199 449.556 538.755C449.556 538.755 449.113 538.755 449.113 538.311C449.113 538.755 449.113 539.199 449.113 539.199C446.45 542.307 445.562 546.747 442.012 550.743C443.343 544.527 443.343 538.755 442.012 533.427C441.124 528.542 438.462 523.658 436.243 518.33Z" fill="#9B8E7C" fill-opacity="0.1"/>
<path d="M85.207 433.965C86.9822 434.409 87.8698 435.297 88.7573 436.629C110.059 457.942 134.024 475.259 159.32 490.8C174.408 500.124 190.385 508.117 206.361 515.665C205.473 521.437 206.805 527.21 207.249 532.982C210.355 553.851 217.012 572.944 226.775 591.593C227.219 592.481 227.663 592.925 227.219 594.701C222.781 591.593 218.343 588.928 213.905 585.82C191.272 570.28 170.858 552.075 152.219 532.094C134.024 512.557 118.047 491.244 104.29 468.599C97.6331 457.942 91.42 447.286 85.6508 436.185C85.6508 435.741 85.6508 434.853 85.207 433.965Z" fill="#6E6E6E" fill-opacity="0.1"/>
<path d="M122.485 61.4321C130.473 63.6522 138.018 66.7604 144.231 72.0886C154.882 80.969 163.757 91.1815 172.633 101.838C180.621 112.05 188.166 122.263 195.266 132.919C196.154 134.252 197.041 136.028 197.485 137.36C190.828 143.132 184.171 148.46 177.071 154.232C174.852 156.009 173.964 155.565 173.521 152.9C169.527 140.024 164.201 127.591 156.657 116.047C150.887 106.722 143.787 98.7299 134.024 93.8456C133.58 93.4016 133.136 93.4016 132.692 93.4016C120.266 88.0734 111.834 90.7375 110.503 106.278C108.284 127.147 107.396 148.46 108.284 169.329C108.728 180.874 108.728 192.862 113.166 204.407C113.609 205.739 113.166 206.627 112.278 207.515C110.947 208.847 109.171 210.179 107.84 211.511C105.177 214.619 103.402 213.287 101.183 211.067C98.0768 207.959 96.3016 203.963 95.4141 199.523C89.2011 178.21 87.4259 156.897 89.2011 134.696C90.5324 118.711 94.0827 103.17 99.8519 88.0734C103.402 78.7489 108.284 70.3125 116.272 64.5403C117.603 63.6522 119.822 62.3202 122.485 61.4321Z" fill="#9B9B9B" fill-opacity="0.1"/>
<path d="M538.314 136.471C540.977 129.811 545.858 124.039 550.296 118.267C560.503 104.058 571.154 90.7373 583.58 78.7487C591.124 71.6444 599.113 64.9841 609.763 62.764C610.651 62.764 611.095 61.876 611.539 61.876C621.302 65.4281 627.071 72.5325 631.509 81.4129C638.61 96.0655 643.047 111.606 644.823 128.035C647.485 151.124 646.154 173.769 640.385 195.97C639.053 202.186 636.834 207.959 631.953 212.399C630.178 214.175 629.29 213.731 627.071 212.399C622.633 208.847 620.414 205.739 622.633 199.522C625.74 190.642 625.74 180.873 625.74 171.549C626.184 149.792 625.296 128.035 623.521 106.278C623.521 105.834 623.521 105.39 623.521 104.946C621.302 93.4014 615.089 89.4052 603.994 93.4014C595.562 96.0655 589.349 101.838 584.024 108.498C573.373 121.375 566.716 136.471 561.391 152.012C560.059 155.564 559.172 155.564 556.953 153.344C551.184 147.128 544.971 141.8 538.314 136.471Z" fill="#9B9B9B" fill-opacity="0.1"/>
<path d="M412.722 576.941C411.39 579.605 408.728 581.381 406.953 583.601C396.745 593.813 396.745 598.697 406.509 609.354C410.503 613.794 414.941 617.79 419.379 622.23C420.266 623.118 421.598 624.006 421.598 625.339C413.609 624.894 406.065 622.674 398.521 621.342C388.757 619.566 379.438 617.79 369.675 617.346C359.911 616.902 350.592 619.566 340.828 620.898C330.178 622.674 319.527 625.783 308.876 627.559C309.32 625.783 311.095 624.895 312.426 623.562C319.083 617.79 325.74 611.574 331.065 604.47C336.391 597.365 336.391 593.813 330.621 587.153C328.402 584.489 325.74 582.269 323.521 580.049C322.633 579.161 321.302 578.273 321.302 576.941C321.302 576.497 321.746 576.497 321.746 576.053C321.302 576.053 321.302 576.053 320.858 576.053C320.858 573.832 318.639 572.5 317.751 570.724C315.533 566.728 313.314 562.288 314.645 557.404C315.089 557.404 315.533 557.404 315.533 557.848C322.189 566.284 331.065 570.28 341.716 570.28C343.491 570.28 344.379 571.168 344.379 572.944C344.822 578.717 344.822 584.045 344.379 589.817C344.379 592.037 344.822 592.925 347.041 593.813C353.254 596.477 359.024 599.142 365.237 601.806C366.568 602.694 367.899 603.138 369.675 602.25C375.444 599.141 381.657 596.477 387.426 593.813C389.201 592.925 389.645 592.037 389.201 590.261C388.757 584.933 389.201 579.605 388.757 573.832C388.757 570.724 389.645 569.836 392.751 569.836C402.071 569.836 410.059 566.284 416.272 559.624C416.716 558.736 417.16 557.404 418.935 557.848C419.379 564.064 417.16 568.948 413.609 573.832C413.166 574.277 411.39 575.165 412.722 576.941Z" fill="#6D6453" fill-opacity="0.1"/>
<path d="M554.29 309.195C556.065 313.636 559.615 316.744 562.278 320.74C565.385 325.624 568.491 330.065 571.598 334.505C572.929 336.281 573.373 338.057 572.041 339.833C570.71 342.053 568.491 342.497 566.272 342.053C560.503 340.721 554.29 339.389 548.521 338.501C542.308 334.949 535.207 334.061 528.55 331.841C525 330.953 521.45 330.065 517.899 329.177C517.012 329.177 516.124 329.177 515.68 328.288C515.237 326.956 516.568 326.512 517.456 326.068C520.562 324.292 524.556 323.848 528.106 323.848C530.325 323.848 532.101 324.292 534.319 324.292C534.763 324.292 534.763 324.736 535.207 324.292C535.207 324.292 534.763 324.292 534.763 323.848C530.325 319.408 524.112 318.076 518.343 317.188C507.692 316.3 498.373 320.296 490.385 327.4C485.059 332.285 479.734 337.613 474.852 343.385C468.639 350.046 461.982 356.262 454.438 361.146C453.55 360.702 453.994 360.258 453.994 359.814C469.083 343.829 481.065 325.18 494.379 307.863C495.266 306.531 496.598 305.643 497.485 303.867C502.367 295.43 510.355 294.098 519.231 295.874C530.769 299.427 542.751 303.867 554.29 309.195Z" fill="#6E6E6E" fill-opacity="0.1"/>
<path d="M237.426 499.681C236.539 498.793 236.095 497.905 235.651 496.573C228.107 466.379 220.118 436.186 212.574 405.548C211.687 401.996 210.799 398.444 209.911 394.892C209.468 394.004 209.024 392.672 209.911 391.784C214.349 398.444 219.231 404.216 225.444 409.1C231.657 413.541 238.314 416.649 245.414 418.425C247.633 418.869 248.077 419.757 248.077 421.533C247.633 428.193 249.408 434.41 252.959 440.182C255.621 444.622 256.065 449.062 254.734 453.947C251.184 467.711 244.971 481.032 240.089 494.352C238.758 496.129 237.87 497.905 237.426 499.681Z" fill="#6E6E6E" fill-opacity="0.1"/>
<path d="M179.734 338.501C175.74 338.945 171.745 339.833 167.751 339.833C165.532 340.277 163.313 340.277 161.982 337.613C160.651 335.393 161.538 333.616 162.87 331.396C167.751 324.292 173.077 317.188 178.846 310.528C179.734 309.64 180.621 308.307 180.621 306.975C193.491 301.647 206.805 295.875 221.006 295.875C225 295.875 227.663 297.207 230.325 299.871C236.538 306.975 242.307 314.968 248.077 322.516C254.29 330.508 260.503 338.945 266.272 346.937C266.716 347.381 267.603 348.269 267.603 349.601C264.941 349.157 263.165 346.937 261.834 345.161C255.621 338.945 249.852 331.84 243.195 326.068C231.657 316.3 216.124 314.524 203.254 321.628C201.923 322.072 200.592 322.516 200.148 324.292C204.586 324.292 209.023 322.516 213.018 323.848C213.461 323.848 214.349 323.848 214.793 324.292C216.124 324.736 218.343 325.18 218.343 326.512C218.343 328.288 216.124 327.4 214.793 327.844C204.142 329.62 193.935 332.728 183.728 335.837C182.396 336.725 180.621 336.725 179.734 338.501Z" fill="#6E6E6E" fill-opacity="0.1"/>
<path d="M522.781 396.224C523.225 398 522.337 399.776 521.893 401.552C516.568 422.865 511.242 443.734 505.473 465.047C502.81 475.26 500.148 485.472 497.485 495.685C497.485 496.573 497.041 497.461 496.154 497.905C491.272 483.252 485.059 469.043 479.734 454.391C477.515 448.174 478.402 441.514 481.509 435.298C483.728 430.857 486.834 426.417 486.39 420.645C486.39 419.313 487.278 418.869 488.609 418.425C502.367 415.761 513.018 408.656 521.006 397.556C521.45 397.112 521.893 396.668 522.781 396.224Z" fill="#6E6E6E" fill-opacity="0.1"/>
<path d="M317.751 655.087C320.858 653.755 323.964 653.311 326.627 653.755C344.822 655.531 363.018 654.199 381.213 654.199C392.308 654.199 403.402 653.311 414.497 652.867C416.716 652.867 418.935 652.867 420.71 652.867C421.598 652.867 423.373 652.423 423.817 653.755C424.26 655.087 422.485 655.531 421.598 656.419C412.722 663.525 402.071 666.633 390.976 668.853C370.562 672.406 350.592 671.074 331.065 663.525C326.183 661.304 321.746 659.084 317.751 655.087Z" fill="#6D6453" fill-opacity="0.1"/>
<path d="M254.29 381.127C240.533 381.127 229.438 372.691 226.775 360.702C225.444 354.93 227.219 349.602 230.325 344.717C231.657 342.497 232.988 342.053 234.763 343.829C242.751 350.046 251.183 356.262 259.172 362.478C261.834 364.698 264.941 366.475 267.604 368.251C269.823 369.583 271.598 371.803 271.154 374.467C270.71 377.131 268.491 378.463 265.828 379.351C262.722 380.239 258.728 381.127 254.29 381.127Z" fill="white" fill-opacity="0.1"/>
<path d="M479.29 381.127C474.408 381.127 469.97 380.239 465.532 378.019C461.538 375.799 461.095 372.69 464.201 369.138C464.645 368.694 465.089 368.25 465.532 367.806C477.071 360.258 487.722 351.377 498.817 343.385C501.479 341.609 502.367 341.609 504.142 344.273C509.911 353.597 508.136 365.142 500.148 372.69C493.935 378.463 487.278 381.127 479.29 381.127Z" fill="white" fill-opacity="0.1"/>
<path d="M73.6685 327.845C73.6685 331.841 72.3372 335.393 71.0058 339.389C69.2307 345.605 67.4555 351.822 66.1242 358.038C65.6804 358.926 65.6804 360.258 64.349 360.702C63.4614 348.27 64.7928 336.281 65.2366 323.848C65.6804 314.08 66.5679 304.312 67.0117 294.543C67.4555 278.558 68.3431 262.574 71.0058 247.033C71.8934 242.149 74.5561 238.597 78.994 236.376C79.8815 235.932 80.7691 235.488 81.2129 236.376C82.1005 237.265 81.2129 237.709 81.2129 238.597C76.775 248.365 75.8875 259.022 74.9999 269.234C73.2247 287.439 72.781 305.644 72.781 324.292C72.3372 325.181 71.4496 326.957 73.6685 327.845Z" fill="#6E6E6E" fill-opacity="0.1"/>
<path d="M669.674 355.817C667.455 354.041 667.456 351.377 667.012 349.157C664.793 342.053 663.905 334.504 661.243 327.844C661.686 327.4 661.686 326.956 661.686 326.068C661.686 300.315 661.243 274.562 656.361 248.809C655.473 244.812 654.142 241.26 652.367 237.264C655.03 238.152 655.917 239.484 657.249 241.26C663.905 250.141 665.237 260.353 666.124 271.454C667.456 294.099 668.787 316.3 669.231 338.945C669.231 343.829 670.118 350.045 669.674 355.817Z" fill="#6E6E6E" fill-opacity="0.1"/>
<path d="M284.46 397.982V397.556C284.46 397.556 284.46 397.982 284.887 397.982C284.46 397.556 284.46 397.556 284.46 397.982C284.033 397.982 284.46 397.982 284.46 397.982Z" fill="#C7B59B" fill-opacity="0.1"/>
<path d="M270.693 354.026L270.266 353.598H270.693C270.693 354.026 270.693 354.026 270.693 354.026Z" fill="#4B2823" fill-opacity="0.1"/>
<path d="M75.4437 321.628C75.4437 322.072 75 322.072 75 322.516C75 322.072 75 322.072 75.4437 321.628Z" fill="#4B2823" fill-opacity="0.1"/>
<path d="M270.71 354.47H271.137L270.71 354.042V354.47Z" fill="#4B2823" fill-opacity="0.1"/>
<path d="M502.35 597.798H501.923C501.923 597.369 501.923 597.369 502.35 597.798C501.923 597.369 501.923 597.369 502.35 597.798Z" fill="#4B2823" fill-opacity="0.1"/>
<path d="M357.692 110.275C358.58 106.279 359.024 102.726 359.911 98.7302C360.355 96.5101 361.242 94.29 362.13 92.0699C363.018 90.2938 364.349 88.0737 367.012 88.0737C370.118 88.0737 371.45 90.2938 372.337 92.5139C375 98.2862 375.444 104.503 376.331 110.275C379.438 168.886 371.893 226.608 365.237 284.331C363.018 277.227 362.574 269.678 361.686 262.13C359.024 237.709 357.248 213.288 356.361 188.423C355.473 168.886 355.029 149.349 355.473 130.256C356.805 124.039 357.248 117.379 357.692 110.275Z" fill="#010101" fill-opacity="0.1"/>
<path d="M184.615 196.414C169.083 231.936 151.331 266.57 144.231 304.756C134.911 270.122 157.101 209.735 184.615 196.414Z" fill="#010101" fill-opacity="0.1"/>
<path d="M589.793 305.643C587.13 286.106 580.03 268.346 572.929 250.141C566.716 234.156 559.616 218.172 552.071 202.631C551.184 200.855 550.74 199.079 550.296 197.303C563.166 207.071 573.373 219.504 580.03 233.712C591.124 256.357 593.787 280.778 589.793 305.643Z" fill="#010101" fill-opacity="0.1"/>
<path d="M395.397 339.374L394.97 338.945C395.397 338.945 395.397 339.374 395.397 339.374Z" fill="#010101" fill-opacity="0.1"/>
<path d="M336.834 338.946C336.39 339.389 335.947 339.389 335.503 339.833C335.503 338.502 336.39 338.946 336.834 338.946Z" fill="#010101" fill-opacity="0.1"/>
<path d="M327.959 546.747C325.296 546.747 323.077 547.191 320.858 548.079C319.527 548.967 319.083 549.411 319.971 551.187C323.521 557.847 333.284 563.62 341.272 562.732C342.604 562.732 343.491 562.288 343.491 560.511C342.16 553.407 335.059 546.747 327.959 546.747ZM396.302 562.732C402.515 562.288 408.284 559.179 412.722 553.407C415.829 549.411 415.385 548.523 410.503 547.191C402.071 544.971 395.414 548.967 391.864 558.291C390.533 562.732 390.533 562.732 396.302 562.732ZM367.012 501.901C362.574 501.901 357.693 501.901 353.255 501.901C344.379 502.345 335.503 503.233 327.071 504.121C324.408 504.565 321.302 505.009 321.746 508.561C322.19 511.669 325.296 510.781 327.515 510.781C327.959 510.781 328.403 510.781 328.846 510.781C350.148 508.117 371.006 507.229 392.308 509.449C398.077 509.893 403.403 510.781 409.172 511.225C410.947 511.225 413.166 511.225 413.61 509.005C414.053 506.785 412.278 505.897 410.503 505.009C409.616 504.565 408.728 504.565 407.84 504.565C393.639 502.789 380.326 501.457 367.012 501.901ZM412.722 576.94C411.835 575.164 413.61 574.72 414.053 573.832C417.604 568.948 420.267 564.064 419.379 557.847C417.604 557.847 417.16 559.179 416.716 559.623C410.503 566.728 402.515 570.28 393.195 569.836C390.089 569.836 388.758 570.724 389.201 573.832C389.645 579.16 389.201 584.489 389.645 590.261C389.645 592.037 389.201 592.925 387.87 593.813C382.101 596.477 375.888 599.585 370.119 602.249C368.343 603.137 367.012 602.693 365.681 601.805C359.468 599.141 353.698 596.477 347.485 593.813C345.266 592.925 344.823 592.037 344.823 589.817C345.266 584.044 345.266 578.716 344.823 572.944C344.823 571.168 344.379 570.28 342.16 570.28C331.509 570.724 322.633 566.284 315.977 557.847C315.977 557.847 315.533 557.847 315.089 557.403C314.201 562.288 315.977 566.728 318.195 570.724C319.083 572.5 321.302 573.832 321.302 576.052C316.42 574.72 311.982 572.056 307.545 569.836C303.107 567.616 298.669 564.952 294.231 562.288C289.349 559.623 286.243 555.627 285.799 549.855C285.355 546.303 284.468 543.195 284.468 539.643C286.243 543.195 288.018 546.747 290.237 550.299C290.681 549.855 290.681 549.855 290.681 549.855C288.462 537.422 293.787 526.322 299.556 516.109C299.556 515.665 299.556 515.221 300 515.221C300.444 515.221 300.444 514.777 300.444 514.333C304.882 508.561 308.432 501.901 315.089 496.573C309.32 497.461 304.438 498.349 299.113 499.237C323.521 476.148 407.84 476.148 433.136 499.237C428.698 498.793 424.261 497.905 420.266 497.461L419.823 497.017C419.823 497.017 419.823 497.017 419.379 497.461C419.379 497.461 419.823 497.461 419.823 497.905C426.036 504.565 430.917 511.669 435.355 519.218C437.574 524.546 440.237 529.43 441.568 534.758C443.343 540.087 442.9 545.859 441.568 552.075C444.675 548.079 445.562 543.639 448.669 540.531C448.225 551.187 445.119 560.511 434.468 565.84C427.811 568.504 420.267 572.944 412.722 576.94Z" fill="#010101" fill-opacity="0.1"/>
<path d="M327.959 546.747C325.296 546.747 323.077 547.191 320.858 548.079C319.527 548.967 319.083 549.411 319.971 551.187C323.521 557.847 333.284 563.62 341.272 562.732C342.604 562.732 343.491 562.288 343.491 560.511C342.16 553.407 335.059 546.747 327.959 546.747ZM396.302 562.732C402.515 562.288 408.284 559.179 412.722 553.407C415.829 549.411 415.385 548.523 410.503 547.191C402.071 544.971 395.414 548.967 391.864 558.291C390.533 562.732 390.533 562.732 396.302 562.732ZM367.012 501.901C362.574 501.901 357.693 501.901 353.255 501.901C344.379 502.345 335.503 503.233 327.071 504.121C324.408 504.565 321.302 505.009 321.746 508.561C322.19 511.669 325.296 510.781 327.515 510.781C327.959 510.781 328.403 510.781 328.846 510.781C350.148 508.117 371.006 507.229 392.308 509.449C398.077 509.893 403.403 510.781 409.172 511.225C410.947 511.225 413.166 511.225 413.61 509.005C414.053 506.785 412.278 505.897 410.503 505.009C409.616 504.565 408.728 504.565 407.84 504.565C393.639 502.789 380.326 501.457 367.012 501.901ZM412.722 576.94C411.835 575.164 413.61 574.72 414.054 573.832C417.604 568.948 420.267 564.064 419.379 557.847C417.604 557.847 417.16 559.179 416.716 559.623C410.503 566.728 402.515 570.28 393.195 569.836C390.089 569.836 388.758 570.724 389.201 573.832C389.645 579.16 389.201 584.489 389.645 590.261C389.645 592.037 389.201 592.925 387.87 593.813C382.101 596.477 375.888 599.585 370.119 602.249C368.343 603.137 367.012 602.693 365.681 601.805C359.468 599.141 353.698 596.477 347.485 593.813C345.266 592.925 344.823 592.037 344.823 589.817C345.266 584.044 345.266 578.716 344.823 572.944C344.823 571.168 344.379 570.28 342.16 570.28C331.509 570.724 322.633 566.284 315.977 557.847C315.977 557.847 315.533 557.847 315.089 557.403C314.201 562.288 315.977 566.728 318.195 570.724C319.083 572.5 321.302 573.832 321.302 576.052C316.42 574.72 311.982 572.056 307.545 569.836C303.107 567.616 298.669 564.952 294.231 562.288C289.349 559.623 286.243 555.627 285.799 549.855C285.355 546.303 284.468 543.195 284.468 539.643C286.243 543.195 288.018 546.747 290.237 550.299C290.681 549.855 290.681 549.855 290.681 549.855C288.462 537.422 293.787 526.322 299.556 516.109C299.556 515.665 299.556 515.221 300 515.221C300.444 515.221 300.444 514.777 300.444 514.333C304.882 508.561 308.432 501.901 315.089 496.573C309.32 497.461 304.438 498.349 299.113 499.237C323.521 476.148 407.84 476.148 433.136 499.237C428.698 498.793 424.261 497.905 420.266 497.461L419.823 497.017C419.823 497.017 419.823 497.017 419.379 497.461C419.379 497.461 419.823 497.461 419.823 497.905C426.036 504.565 430.917 511.669 435.355 519.218C437.574 524.546 440.237 529.43 441.568 534.758C443.343 540.087 442.9 545.859 441.568 552.075C444.675 548.079 445.562 543.639 448.669 540.531C448.225 551.187 445.119 560.511 434.468 565.84C427.811 568.504 420.267 572.944 412.722 576.94Z" stroke="#9B8E7C" stroke-opacity="0.1" stroke-width="0.0996227" stroke-miterlimit="22.9256"/>
<path d="M298.208 485.027C298.208 485.027 298.208 485.456 297.781 485.456C298.208 485.456 297.781 485.027 298.208 485.027Z" fill="#010101" fill-opacity="0.1"/>
<path d="M300.444 513.89C300.444 514.334 300.444 514.777 300 514.777C300 514.333 300.444 514.334 300.444 513.89Z" fill="#998D7B" fill-opacity="0.1"/>
<path d="M321.302 576.052C321.746 576.052 321.746 576.052 322.189 576.052C322.189 576.497 321.746 576.497 321.746 576.941C321.302 576.497 321.302 576.052 321.302 576.052Z" fill="#010101" fill-opacity="0.1"/>
<path d="M450 539.642C450 539.198 450 538.754 450 538.754C450 538.754 450.444 538.754 450.444 539.198C450.444 539.198 450.444 539.642 450 539.642Z" fill="#010101" fill-opacity="0.1"/>
<path d="M534.312 324.736C534.312 324.736 534.739 324.736 534.739 325.165C534.312 325.165 534.312 324.736 534.312 324.736C533.885 324.736 534.312 324.736 534.312 324.736Z" fill="#010101" fill-opacity="0.1"/>
<path d="M367.012 501.9C380.325 501.456 393.639 502.344 406.953 504.12C407.84 504.12 408.728 504.564 409.615 504.564C411.391 505.008 413.166 506.34 412.722 508.561C412.278 511.225 410.059 511.225 408.284 510.781C402.515 510.337 397.189 509.449 391.42 509.005C370.118 507.229 349.26 507.673 327.958 510.337C327.515 510.337 327.071 510.337 326.627 510.337C324.408 510.337 321.302 511.225 320.858 508.117C320.414 504.564 323.964 504.12 326.183 503.676C335.059 502.344 343.491 501.456 352.367 501.456C357.692 501.9 362.13 501.9 367.012 501.9Z" fill="white" fill-opacity="0.1"/>
<path d="M396.302 562.731C390.532 562.731 390.532 562.731 391.864 558.291C395.414 548.967 402.071 544.971 410.503 547.191C414.941 548.523 415.384 549.411 412.722 553.407C408.284 559.179 402.515 562.287 396.302 562.731Z" fill="#6D6453" fill-opacity="0.1"/>
<path d="M327.959 546.747C335.059 546.747 342.16 553.408 343.047 560.512C343.047 562.288 342.16 562.288 340.829 562.732C333.284 563.62 323.077 557.848 319.527 551.187C318.639 549.855 319.083 548.967 320.414 548.079C323.077 547.191 325.74 546.747 327.959 546.747Z" fill="#6D6453" fill-opacity="0.1"/>
<path d="M420.71 497.017C420.71 497.017 420.266 497.017 420.266 496.573C420.266 496.573 420.266 496.128 420.71 496.128C420.71 496.573 420.71 496.573 420.71 497.017C420.71 496.573 420.71 497.017 420.71 497.017Z" fill="#C7B59B" fill-opacity="0.1"/>
</svg>
