<svg width="36" height="36" viewBox="0 0 36 36" fill="none" xmlns="http://www.w3.org/2000/svg">
<rect width="36" height="36" fill="white"/>
<path d="M17.9996 14.4204C16.0263 14.4204 14.4196 16.0263 14.4196 17.9996C14.4196 19.9737 16.0263 21.5804 17.9996 21.5804C19.9737 21.5804 21.5796 19.9737 21.5796 17.9996C21.5796 16.0263 19.9737 14.4204 17.9996 14.4204ZM17.9996 14.4204C16.0263 14.4204 14.4196 16.0263 14.4196 17.9996C14.4196 19.9737 16.0263 21.5804 17.9996 21.5804C19.9737 21.5804 21.5796 19.9737 21.5796 17.9996C21.5796 16.0263 19.9737 14.4204 17.9996 14.4204ZM23.9637 8.5835H12.0363C10.1326 8.5835 8.5835 10.1326 8.5835 12.0363V23.9637C8.5835 25.8674 10.1326 27.4165 12.0363 27.4165H23.9637C25.8674 27.4165 27.4165 25.8674 27.4165 23.9637V12.0363C27.4165 10.1326 25.8674 8.5835 23.9637 8.5835ZM17.9996 24.1999C14.5815 24.1999 11.8001 21.4185 11.8001 17.9996C11.8001 14.5815 14.5815 11.8001 17.9996 11.8001C21.4185 11.8001 24.1999 14.5815 24.1999 17.9996C24.1999 21.4185 21.4185 24.1999 17.9996 24.1999ZM24.3989 13.0822C23.59 13.0822 22.932 12.4242 22.932 11.6153C22.932 10.8064 23.59 10.1484 24.3989 10.1484C25.2078 10.1484 25.8658 10.8064 25.8658 11.6153C25.8658 12.4242 25.2078 13.0822 24.3989 13.0822ZM17.9996 14.4204C16.0263 14.4204 14.4196 16.0263 14.4196 17.9996C14.4196 19.9737 16.0263 21.5804 17.9996 21.5804C19.9737 21.5804 21.5796 19.9737 21.5796 17.9996C21.5796 16.0263 19.9737 14.4204 17.9996 14.4204ZM23.9637 8.5835H12.0363C10.1326 8.5835 8.5835 10.1326 8.5835 12.0363V23.9637C8.5835 25.8674 10.1326 27.4165 12.0363 27.4165H23.9637C25.8674 27.4165 27.4165 25.8674 27.4165 23.9637V12.0363C27.4165 10.1326 25.8674 8.5835 23.9637 8.5835ZM17.9996 24.1999C14.5815 24.1999 11.8001 21.4185 11.8001 17.9996C11.8001 14.5815 14.5815 11.8001 17.9996 11.8001C21.4185 11.8001 24.1999 14.5815 24.1999 17.9996C24.1999 21.4185 21.4185 24.1999 17.9996 24.1999ZM24.3989 13.0822C23.59 13.0822 22.932 12.4242 22.932 11.6153C22.932 10.8064 23.59 10.1484 24.3989 10.1484C25.2078 10.1484 25.8658 10.8064 25.8658 11.6153C25.8658 12.4242 25.2078 13.0822 24.3989 13.0822ZM17.9996 14.4204C16.0263 14.4204 14.4196 16.0263 14.4196 17.9996C14.4196 19.9737 16.0263 21.5804 17.9996 21.5804C19.9737 21.5804 21.5796 19.9737 21.5796 17.9996C21.5796 16.0263 19.9737 14.4204 17.9996 14.4204ZM0 0V36H36V0H0ZM30.0359 23.9637C30.0359 27.3122 27.3122 30.0359 23.9637 30.0359H12.0363C8.68778 30.0359 5.96406 27.3122 5.96406 23.9637V12.0363C5.96406 8.68778 8.68778 5.96406 12.0363 5.96406H23.9637C27.3122 5.96406 30.0359 8.68778 30.0359 12.0363V23.9637ZM23.9637 8.5835H12.0363C10.1326 8.5835 8.5835 10.1326 8.5835 12.0363V23.9637C8.5835 25.8674 10.1326 27.4165 12.0363 27.4165H23.9637C25.8674 27.4165 27.4165 25.8674 27.4165 23.9637V12.0363C27.4165 10.1326 25.8674 8.5835 23.9637 8.5835ZM17.9996 24.1999C14.5815 24.1999 11.8001 21.4185 11.8001 17.9996C11.8001 14.5815 14.5815 11.8001 17.9996 11.8001C21.4185 11.8001 24.1999 14.5815 24.1999 17.9996C24.1999 21.4185 21.4185 24.1999 17.9996 24.1999ZM24.3989 13.0822C23.59 13.0822 22.932 12.4242 22.932 11.6153C22.932 10.8064 23.59 10.1484 24.3989 10.1484C25.2078 10.1484 25.8658 10.8064 25.8658 11.6153C25.8658 12.4242 25.2078 13.0822 24.3989 13.0822ZM17.9996 14.4204C16.0263 14.4204 14.4196 16.0263 14.4196 17.9996C14.4196 19.9737 16.0263 21.5804 17.9996 21.5804C19.9737 21.5804 21.5796 19.9737 21.5796 17.9996C21.5796 16.0263 19.9737 14.4204 17.9996 14.4204ZM17.9996 14.4204C16.0263 14.4204 14.4196 16.0263 14.4196 17.9996C14.4196 19.9737 16.0263 21.5804 17.9996 21.5804C19.9737 21.5804 21.5796 19.9737 21.5796 17.9996C21.5796 16.0263 19.9737 14.4204 17.9996 14.4204ZM17.9996 14.4204C16.0263 14.4204 14.4196 16.0263 14.4196 17.9996C14.4196 19.9737 16.0263 21.5804 17.9996 21.5804C19.9737 21.5804 21.5796 19.9737 21.5796 17.9996C21.5796 16.0263 19.9737 14.4204 17.9996 14.4204ZM23.9637 8.5835H12.0363C10.1326 8.5835 8.5835 10.1326 8.5835 12.0363V23.9637C8.5835 25.8674 10.1326 27.4165 12.0363 27.4165H23.9637C25.8674 27.4165 27.4165 25.8674 27.4165 23.9637V12.0363C27.4165 10.1326 25.8674 8.5835 23.9637 8.5835ZM17.9996 24.1999C14.5815 24.1999 11.8001 21.4185 11.8001 17.9996C11.8001 14.5815 14.5815 11.8001 17.9996 11.8001C21.4185 11.8001 24.1999 14.5815 24.1999 17.9996C24.1999 21.4185 21.4185 24.1999 17.9996 24.1999ZM24.3989 13.0822C23.59 13.0822 22.932 12.4242 22.932 11.6153C22.932 10.8064 23.59 10.1484 24.3989 10.1484C25.2078 10.1484 25.8658 10.8064 25.8658 11.6153C25.8658 12.4242 25.2078 13.0822 24.3989 13.0822ZM17.9996 14.4204C16.0263 14.4204 14.4196 16.0263 14.4196 17.9996C14.4196 19.9737 16.0263 21.5804 17.9996 21.5804C19.9737 21.5804 21.5796 19.9737 21.5796 17.9996C21.5796 16.0263 19.9737 14.4204 17.9996 14.4204ZM17.9996 14.4204C16.0263 14.4204 14.4196 16.0263 14.4196 17.9996C14.4196 19.9737 16.0263 21.5804 17.9996 21.5804C19.9737 21.5804 21.5796 19.9737 21.5796 17.9996C21.5796 16.0263 19.9737 14.4204 17.9996 14.4204ZM17.9996 14.4204C16.0263 14.4204 14.4196 16.0263 14.4196 17.9996C14.4196 19.9737 16.0263 21.5804 17.9996 21.5804C19.9737 21.5804 21.5796 19.9737 21.5796 17.9996C21.5796 16.0263 19.9737 14.4204 17.9996 14.4204ZM23.9637 8.5835H12.0363C10.1326 8.5835 8.5835 10.1326 8.5835 12.0363V23.9637C8.5835 25.8674 10.1326 27.4165 12.0363 27.4165H23.9637C25.8674 27.4165 27.4165 25.8674 27.4165 23.9637V12.0363C27.4165 10.1326 25.8674 8.5835 23.9637 8.5835ZM17.9996 24.1999C14.5815 24.1999 11.8001 21.4185 11.8001 17.9996C11.8001 14.5815 14.5815 11.8001 17.9996 11.8001C21.4185 11.8001 24.1999 14.5815 24.1999 17.9996C24.1999 21.4185 21.4185 24.1999 17.9996 24.1999ZM24.3989 13.0822C23.59 13.0822 22.932 12.4242 22.932 11.6153C22.932 10.8064 23.59 10.1484 24.3989 10.1484C25.2078 10.1484 25.8658 10.8064 25.8658 11.6153C25.8658 12.4242 25.2078 13.0822 24.3989 13.0822ZM17.9996 14.4204C16.0263 14.4204 14.4196 16.0263 14.4196 17.9996C14.4196 19.9737 16.0263 21.5804 17.9996 21.5804C19.9737 21.5804 21.5796 19.9737 21.5796 17.9996C21.5796 16.0263 19.9737 14.4204 17.9996 14.4204Z" fill="#C536A4"/>
</svg>
