<svg width="160" height="165" viewBox="0 0 160 165" fill="none" xmlns="http://www.w3.org/2000/svg">
<g clip-path="url(#clip0)">
<path d="M102.249 81.4622C103.953 81.4622 105.373 80.9908 106.698 79.7651C108.497 78.1622 108.781 75.7108 107.55 73.7308C107.172 73.1651 106.982 73.1651 106.414 73.5423C104.047 75.2394 101.87 77.1251 99.3136 78.728C99.2189 78.8223 99.1243 78.9165 99.0296 79.0108C98.3669 79.7651 98.4615 80.4251 99.3136 80.8965C100.26 81.2737 101.207 81.4622 102.249 81.4622ZM54.2485 81.4622C55.1953 81.4622 56.0473 81.2737 56.8994 80.9908C57.3728 80.8023 57.9408 80.6137 58.0355 79.9537C58.1302 79.2937 57.7515 78.9165 57.2781 78.6337C56.7101 78.1622 56.0473 77.7851 55.4793 77.408C53.6805 76.088 51.9763 74.768 50.2722 73.448C49.7988 73.0708 49.6095 73.1651 49.3254 73.6365C48.6627 74.6737 48.3787 75.8051 48.568 77.0308C48.9467 79.6708 51.4083 81.4622 54.2485 81.4622ZM67.787 139.637C68.6391 140.485 69.5858 140.957 70.6272 141.334C74.7929 142.937 79.0533 143.219 83.4083 142.465C85.7751 142.088 88.0473 141.334 89.9408 139.825C90.1302 139.637 90.5089 139.542 90.4142 139.259C90.3195 139.071 90.0355 139.071 89.7515 139.071C89.2781 139.071 88.8047 139.071 88.426 139.071C86.0592 139.165 83.6923 139.354 81.3254 139.354C77.4438 139.354 73.5621 139.637 69.6805 139.259C69.1124 139.259 68.4497 139.448 67.787 139.637ZM9.94083 86.1765C9.65681 86.3651 9.65681 86.648 9.56213 86.8365C8.80473 89.3822 8.23669 92.0222 7.85799 94.7565C7.47929 97.868 7.38462 100.979 7.85799 103.997C8.71006 108.711 10.7929 112.954 13.5385 116.819C16.3787 120.779 19.787 124.268 23.4793 127.474C29.3491 132.659 35.6923 137.279 42.2248 141.711C46.4852 144.634 50.8402 147.368 55.2899 150.008C61.8225 153.874 68.4497 157.551 75.3609 160.662C78.3905 162.077 81.1361 162.171 84.1657 160.757C87.6686 159.154 91.0769 157.457 94.4852 155.665C102.154 151.611 109.444 147.085 116.639 142.277C123.834 137.468 130.746 132.471 137.183 126.719C141.16 123.137 144.852 119.177 147.787 114.651C151.669 108.711 152.994 102.205 152.142 95.228C151.574 90.7022 150.343 86.4594 148.923 82.1222C148.828 81.7451 148.639 81.368 148.355 80.8022C147.976 82.028 147.692 83.1594 147.314 84.1965C145.609 89.0994 142.959 93.6251 140.308 98.1508C135.195 106.637 128.852 114.085 121.278 120.591C116.166 124.928 110.675 128.699 104.615 131.717C103.858 132.094 103.195 132.471 103.29 133.508C103.29 133.885 103.195 134.262 103.006 134.545C102.343 136.431 101.302 137.751 99.1243 138.034C98.4615 138.128 97.9882 138.222 97.4201 138.882C95.6213 141.145 93.1598 142.559 90.5089 143.597C84.5444 145.954 78.4852 146.331 72.2367 145.105C67.9763 144.257 64.0947 142.654 61.0651 139.542C60.4024 138.882 59.7396 138.694 58.9823 138.599C55.4793 138.128 53.9645 136.902 53.2071 133.885C52.9231 132.848 52.4497 132.188 51.503 131.717C48.5681 130.302 45.8225 128.699 43.1716 126.908C36.4497 122.382 30.5799 117.008 25.2781 110.879C19.4083 104.091 14.7692 96.548 10.9822 88.5337C10.6982 87.7794 10.3195 87.0251 9.94083 86.1765ZM113.893 69.488C113.42 69.488 113.041 69.3937 112.568 69.3937C111.811 69.3937 110.959 69.3937 110.296 69.8651C110.107 69.9594 109.917 70.0537 109.917 70.3365C110.012 70.5251 110.201 70.5251 110.391 70.5251C111.148 70.7137 111.905 70.808 112.663 71.0908C114.083 71.5622 115.598 71.7508 116.923 72.5051C115.03 72.5994 113.231 72.788 111.337 72.6937C110.58 72.5994 110.485 72.8822 110.675 73.5423C112 78.5394 108.592 83.1594 103.385 83.7251C102.533 83.8194 101.586 83.6308 100.639 83.6308C101.018 84.1965 101.302 84.668 101.586 85.0451C101.68 85.2337 101.87 85.328 102.154 85.328C106.982 85.1394 111.337 83.0651 112.568 77.5022C112.663 77.2194 112.568 76.9365 112.852 76.748C113.041 77.1251 113.041 77.408 113.136 77.7851C113.325 80.2365 112.757 82.5937 111.527 84.668C111.432 84.7623 111.337 84.8565 111.243 85.0451C109.444 87.4022 107.266 88.9108 104.331 89.4765C104.047 89.5708 103.858 89.6651 103.858 89.948C103.953 91.0794 103.385 92.0222 102.817 93.0594C102.154 94.3794 101.964 95.6994 102.438 97.1137C103.574 100.225 104.899 103.242 105.941 106.354C106.604 109.182 107.361 111.917 107.645 115.028C109.254 113.331 110.675 111.728 112.095 110.219C112.189 110.408 112.284 110.597 112.189 110.785C112 112.199 111.905 113.614 111.621 115.028C110.864 119.459 109.254 123.514 107.077 127.474V127.568H107.172C107.645 127.568 107.834 127.191 108.213 127.002C114.84 122.854 120.615 117.668 125.822 111.822C130.178 106.919 133.965 101.545 137.089 95.888C137.941 94.2851 138.888 92.7765 139.456 90.9851C141.728 86.3651 143.243 81.4622 142.959 76.2765C142.959 75.0508 142.864 73.7308 142.864 72.5051C142.769 67.6965 142.485 62.9822 142.201 58.1737C142.012 55.9108 141.728 53.7422 140.308 51.7622C140.118 51.4794 139.834 51.1022 139.266 50.9137C139.645 51.7622 139.929 52.6108 140.118 53.3651C141.16 58.7394 141.254 64.208 141.254 69.7708C141.254 69.8651 141.16 69.9594 141.16 70.148C141.16 70.0537 141.16 69.9594 141.065 69.8651C139.55 65.0565 138.036 60.1537 136.426 55.3451C135.669 52.988 134.438 51.1022 132.639 49.4051C125.917 42.8994 118.627 37.148 111.243 31.4908C109.822 30.3594 108.781 29.0394 108.118 27.4365C107.172 25.268 107.077 23.0051 106.793 20.7422C106.888 19.328 106.888 17.9137 107.172 16.3108C107.266 16.688 107.361 16.8765 107.456 17.0651C108.213 19.7051 109.065 22.2508 109.822 24.8908C109.917 25.268 110.012 25.6451 110.391 25.928C111.905 27.1537 113.42 28.2851 114.935 29.5108C116.26 30.6422 117.68 31.7737 119.006 32.9051C119.574 33.3765 119.763 33.3765 119.953 32.6222C121.089 29.3222 122.509 26.1165 124.781 23.3822C125.917 21.968 127.243 20.8365 129.041 20.1765C131.408 19.328 132.828 20.1765 133.207 22.628C133.207 22.7222 133.207 22.8165 133.207 22.9108C133.586 27.5308 133.775 32.1508 133.68 36.7708C133.68 38.7508 133.68 40.8251 133.018 42.7108C132.544 44.0308 133.018 44.7851 133.964 45.4451C134.343 45.728 134.627 45.728 135.006 45.4451C136.047 44.5022 136.426 43.1822 136.805 41.9565C138.036 37.2422 138.32 32.3394 137.751 27.5308C137.373 24.0422 136.426 20.7422 134.911 17.6308C133.964 15.7451 132.734 14.2365 130.651 13.4823C130.367 13.1994 129.988 13.1051 129.704 13.0108C126.959 12.1623 124.213 12.5394 121.467 13.388C118.154 14.3308 115.219 15.8394 113.136 18.5737C112.379 19.6108 111.811 20.7422 111.337 22.0622C110.959 21.5908 110.959 21.2137 110.864 20.8365C110.485 19.0451 110.485 17.348 110.485 15.5565C110.485 14.9908 110.391 14.708 109.822 14.4251C105.467 12.1622 100.923 10.4651 96.0947 9.42796C92.5917 8.67368 89.0888 8.29654 85.4911 8.01368C84.2604 7.91939 83.1243 8.01368 82.0828 9.05082C80.8521 10.2765 79.2426 10.9365 77.4438 10.6537C75.929 10.4651 74.7929 9.61654 73.7515 8.67368C73.1834 8.20225 72.7101 8.01368 71.9527 8.01368C67.6923 8.10796 63.5266 8.67368 59.4556 9.61654C55.0059 10.6537 50.6509 12.2565 46.6746 14.4251C46.2959 14.6137 46.1065 14.8023 46.2012 15.2737C46.4852 17.0651 46.2012 18.9508 45.9172 20.7422C45.8225 21.1194 45.8225 21.5908 45.5385 21.968C45.2544 21.7794 45.2544 21.4965 45.1598 21.308C44.5917 19.8937 43.8343 18.5737 42.6982 17.5365C39.1006 14.1422 34.5562 12.728 29.6331 12.728C28.4024 12.728 27.1716 12.9165 26.1302 13.6708C25.6568 13.7651 25.1834 14.048 24.7101 14.4251C22.9112 15.6508 21.9645 17.4422 21.2071 19.4222C19.9763 22.628 19.2189 25.928 18.9349 29.3222C18.5562 33.9422 19.0296 38.5622 20.2604 43.088C20.5444 43.9365 20.9231 44.7851 21.4911 45.5394C21.9645 46.0108 22.3432 46.2937 22.9112 45.6337C23.1953 45.3508 23.574 45.068 23.858 44.7851C24.0473 44.5965 24.142 44.408 24.0473 44.1251C23.1006 41.768 23.1006 39.2222 23.0059 36.6765C22.8166 32.2451 23.0059 27.7194 23.4793 23.288C23.7633 19.988 25.5621 19.328 28.213 20.5537C28.3077 20.5537 28.4024 20.648 28.497 20.648C30.6746 21.6851 32.0947 23.4765 33.3254 25.3622C34.9349 27.8137 36.071 30.4537 36.9231 33.188C37.1124 33.6594 37.2071 33.848 37.6805 33.4708C39.1006 32.2451 40.6154 31.1137 42.0355 29.888C43.4556 28.7565 44.6864 27.5308 45.9172 26.2108C46.2959 25.7394 46.6746 25.268 46.8639 24.7022C47.3373 23.4765 47.8107 22.1565 48.1894 20.9308C48.6627 19.5165 49.0414 18.1022 49.5148 16.5937C49.7988 18.1022 49.7041 19.6108 49.7988 21.1194C49.7041 22.2508 49.6095 23.288 49.4201 24.4194C48.9467 27.1537 47.9053 29.6994 45.5385 31.4908C42.8876 33.5651 40.142 35.6394 37.4911 37.808C32.6627 41.6737 27.8343 45.6337 23.574 50.0651C22.6272 51.1022 21.5858 52.0451 21.0178 53.3651C19.1243 58.5508 17.4201 63.7365 15.9053 69.0165C15.9053 69.1108 15.8107 69.1108 15.8107 69.2051C15.716 69.5823 15.6213 69.9594 15.5266 70.3365C15.1479 70.148 15.3373 69.7708 15.3373 69.488C15.3373 65.6222 15.432 61.7565 15.8107 57.7965C16 55.628 16.1894 53.3651 17.1361 51.2908C17.2308 51.1965 17.3254 51.008 17.1361 50.8194C16.9467 50.6308 16.7574 50.7251 16.6627 50.8194C15.716 51.2908 15.1479 52.0451 14.9586 53.0822C14.3905 56.4765 14.2959 59.7765 14.1065 63.1708C14.0118 65.2451 13.8225 67.3194 13.7278 69.3937C13.6331 72.0337 13.3491 74.5794 13.5385 77.2194C13.4438 82.8765 15.3373 87.8737 17.9882 92.7765C18.0828 92.9651 18.0828 93.1537 18.1775 93.3422C19.4083 95.6994 20.8284 97.9622 22.1538 100.225C25.0888 105.034 28.497 109.559 32.3787 113.708C36.355 117.951 40.7101 121.817 45.5385 125.117C46.4852 125.777 47.432 126.342 48.3787 127.002C48.4734 126.625 48.284 126.531 48.284 126.342C46.2012 122.382 44.7811 118.328 44.1183 113.897C43.929 112.671 43.7396 111.445 43.929 110.219C45.5385 111.917 47.1479 113.708 48.8521 115.499C49.0414 114.274 49.1361 113.237 49.3254 112.105C49.6095 110.314 50.0828 108.522 50.5562 106.731C50.7456 106.354 50.9349 105.977 51.0296 105.599C52.071 102.771 53.3965 99.9422 54.1538 97.0194C54.4379 95.9822 54.4379 95.0394 53.7751 94.0965C53.0177 92.8708 52.5444 91.6451 52.7337 90.1365C52.7337 89.7594 52.6391 89.5708 52.1657 89.4765C50.5562 89.1937 49.1361 88.5337 47.9053 87.4965C46.5799 86.4594 45.5385 85.2337 44.5917 83.8194C43.4556 80.6137 43.0769 77.7851 43.8343 76.6537C43.929 77.1251 44.0237 77.408 44.1183 77.7851C44.497 79.388 45.2544 80.8022 46.3905 82.028C48.1894 83.9137 50.4615 84.668 52.9231 85.0451C54.3432 85.2337 54.8166 84.9508 55.2899 83.5365C55.1953 83.5365 55.1006 83.4422 55.1006 83.4422C54.9112 83.4422 54.7219 83.4422 54.4379 83.4422C51.6923 83.6308 49.4201 82.688 47.6213 80.6137C45.7278 78.3508 45.1598 75.8051 45.9172 72.9765C46.0118 72.5994 46.2012 72.128 45.5385 72.2222C43.1716 72.5051 40.7101 72.3165 38.3432 72.2222C38.4379 71.8451 38.8166 71.8451 39.1006 71.7508C41.2781 71.0908 43.4556 70.5251 45.7278 70.0537C46.0118 69.9594 46.4852 70.148 46.4852 69.7708C46.4852 69.488 46.0118 69.3937 45.7278 69.2994C45.6331 69.2051 45.4438 69.2994 45.3491 69.2051C44.4024 68.9222 43.5503 69.2994 42.6035 69.2994C42.6982 68.9222 42.9823 68.828 43.2663 68.7337C46.0118 67.2251 49.3254 67.6965 51.787 69.6765C53.2071 70.9023 54.4379 72.3165 55.7633 73.7308C56.142 74.108 56.426 74.5794 56.9941 74.6737C56.9941 74.3908 56.8994 74.2965 56.7101 74.108C55.3846 72.4108 54.0592 70.6194 52.8284 68.9222C51.5976 67.3194 50.4615 65.6222 49.0414 64.1137C48.4734 63.548 47.9053 63.2651 47.0533 63.2651C43.929 63.2651 41.1834 64.4908 38.4379 65.6222C36.8284 66.2822 35.4083 67.1308 33.7988 67.6965C35.6923 65.4337 37.6805 63.4537 39.9527 61.6623C41.8462 60.248 43.7396 59.0222 46.1065 58.4565C48.8521 57.8908 51.2189 58.5508 53.0178 60.8137C54.9112 63.1708 56.8047 65.528 58.6982 67.8851C60.3077 69.8651 62.0118 71.8451 63.716 73.7308C64.6627 74.8622 65.7988 75.1451 67.2189 74.6737C68.355 74.2965 69.3965 73.6365 70.4379 72.9765C70.8166 72.788 71.0059 72.4108 71.4793 72.4108C70.6272 74.6737 69.3964 76.5594 67.4083 77.9737C66.9349 78.2565 66.9349 78.4451 67.3136 78.9165C68.7337 80.8965 69.7752 82.9708 69.3965 85.5165C68.5444 91.3622 66.6509 96.9251 64.284 102.299C64.0947 102.677 64 103.054 63.5266 103.242C63.5266 101.922 64 100.791 64.284 99.5651C65.2308 94.9451 66.2722 90.2308 66.6509 85.5165C66.8402 83.4422 65.8935 81.7451 64.6627 79.9537C63.1479 82.9708 61.6331 85.988 60.213 88.9108C60.1183 88.628 60.1183 88.3451 60.1183 88.1565C60.213 87.0251 60.497 85.8937 60.497 84.7623H60.5917C60.5917 84.7623 60.5917 84.668 60.497 84.668V84.7623C59.1716 86.1765 58.3195 87.7794 57.3728 89.4765C56.9941 90.2308 56.9941 90.7965 57.5621 91.4565C58.6982 92.7765 59.0769 94.3794 58.6982 96.0765C58.4142 97.4908 57.9408 98.7165 57.4675 100.037C56.2367 103.054 55.0059 106.071 54.2485 109.277C52.7337 115.217 52.2604 121.157 55.7633 126.908C56.426 125.305 56.8994 123.797 57.8462 122.288C57.8462 122.759 57.8462 122.948 57.8462 123.231C57.6568 126.154 57.4675 129.077 57.3728 131.999C57.2781 133.791 57.7515 134.357 59.645 134.451C61.7278 134.545 63.716 134.168 65.7041 133.602C67.9763 133.225 70.2485 132.565 72.5207 132.188C74.5089 131.811 76.5917 131.339 78.6746 131.434C80.7574 131.528 82.8402 131.905 84.8284 132.282C86.4379 132.565 88.0473 133.037 89.7515 133.131C90.5089 133.414 91.3609 133.414 92.213 133.508C94.2012 133.697 96.0947 134.074 98.1775 133.885C98.6509 133.885 98.8402 133.697 98.9349 133.225C99.0296 132.471 99.1243 131.717 99.1243 130.962C99.0296 128.982 98.9349 127.002 98.8402 125.022C98.8402 124.174 98.8402 123.419 98.8402 122.382C99.6923 123.797 100.166 125.117 100.734 126.531C103.953 122.005 103.953 114.745 101.87 108.334C101.68 107.108 101.207 105.977 100.828 104.845C99.9763 102.488 98.9349 100.131 98.0828 97.7737C97.3254 95.4165 97.3254 93.1537 99.1243 91.1737C99.503 90.7965 99.4083 90.4194 99.2189 89.948C98.5562 88.4394 97.6095 87.0251 96.6627 85.7051C96.4734 85.4222 96.1894 85.1394 95.9053 84.668C96.0947 86.2708 96.3787 87.5908 96.284 88.9108C94.7692 85.8937 93.3491 82.9708 91.8343 79.9537C91.5503 80.1423 91.3609 80.3308 91.2663 80.5194C89.6568 82.5937 89.4675 84.8565 89.7515 87.4022C90.3195 91.8337 91.1716 96.1708 92.213 100.602C92.4024 101.545 92.5917 102.488 92.8757 103.525C92.3077 103.054 92.0237 102.582 91.8343 102.111C89.9408 98.0565 88.6154 93.8137 87.4793 89.5708C87.1006 88.0622 86.8166 86.648 86.7219 85.1394C86.5325 82.8765 87.574 81.0851 88.8047 79.2937C89.0888 78.8223 89.0888 78.6337 88.6154 78.4451C87.574 77.7851 86.8166 77.0308 86.1538 76.088C85.3965 75.0508 84.8284 73.9194 84.2604 72.8823C84.2604 72.788 84.2604 72.788 84.355 72.6937C84.7337 72.6937 84.9231 72.9765 85.2071 73.1651C86.0592 73.7308 86.9112 74.2965 87.7633 74.6737C89.8462 75.6165 90.8876 75.3337 92.4024 73.7308C96.1893 69.5822 99.5976 65.2451 103.101 60.908C104.047 59.6822 105.278 59.0222 106.793 58.7394C109.16 58.268 111.337 59.1165 113.325 60.248C116.45 62.0394 119.101 64.5851 121.562 67.2251C121.751 67.508 122.036 67.7908 122.225 67.9794C122.225 67.9794 122.13 67.9794 122.13 68.0737C120.899 67.508 119.574 66.848 118.343 66.2822C115.882 65.1508 113.42 64.1137 110.675 63.6423C108.781 63.2651 107.172 63.4537 106.036 65.3394C105.846 65.6223 105.657 65.9051 105.373 66.188C102.533 69.8651 99.9763 73.8251 96.7574 77.2194C96.6627 77.3137 96.6627 77.408 96.8521 77.5022C98.4615 76.3708 99.8817 75.1451 101.207 73.7308C102.249 72.5994 103.385 71.468 104.521 70.3365C106.225 68.828 108.118 67.9794 110.485 68.168C111.716 68.168 112.947 68.4508 113.893 69.488ZM57.7515 75.7108V75.6165H57.6568C57.6568 75.7108 57.7515 75.7108 57.7515 75.7108ZM0 97.3965C0 92.9651 1.04142 88.7222 1.98817 84.4794C5.11243 69.2994 9.46745 54.4022 13.1598 39.3165C13.4438 37.9965 13.4438 36.7708 13.3491 35.5451C12.5917 28.9451 13.5385 22.5337 16.1894 16.4051C18.9349 9.99368 24.0473 6.88225 31.432 7.07082C34.4615 7.16511 37.3018 8.01368 39.858 9.61654C40.3314 9.89939 40.7101 9.89939 41.1834 9.61654C47.8106 5.46796 55.1006 3.01654 62.8639 1.79082C66.2722 1.22511 69.6805 0.94225 73.0888 0.847965C74.7929 0.659393 76.3077 1.13082 77.6331 2.26225C78.1065 2.63939 78.3905 2.63939 78.8639 2.26225C80.0947 1.13082 81.6095 0.659393 83.4083 0.659393C92.6864 0.847965 101.68 2.45082 110.107 6.31654C112.095 7.25939 113.988 8.20225 115.787 9.33368C116.26 9.61654 116.639 9.71082 117.112 9.33368C120.994 6.97654 125.16 6.41082 129.609 7.16511C135.101 8.10796 138.604 11.408 140.686 16.3108C142.485 20.4594 143.527 24.7965 143.716 29.3222C143.811 31.5851 143.716 33.9422 143.432 36.2051C143.337 36.8651 143.337 37.5251 143.621 38.1851C147.787 49.8765 151.858 61.6622 154.888 73.7308C156.118 78.728 157.728 83.7251 158.959 88.7222C161.988 100.225 159.148 110.408 152.047 119.648C147.692 125.305 142.296 130.019 136.521 134.168C125.065 142.277 113.136 149.819 100.639 156.231C95.432 158.965 90.0355 161.322 84.5444 163.397C81.7988 164.434 79.0533 164.434 76.3077 163.585C72.6154 162.454 69.3018 160.757 65.8935 158.965C58.1302 154.911 50.3669 150.857 42.8876 146.331C35.3136 141.711 27.7396 137.185 20.7337 131.717C15.1479 127.379 10.1302 122.665 6.24852 116.725C3.12426 112.011 1.04142 106.825 0.378698 101.168C0.0946745 100.037 0.0946746 98.7165 0 97.3965Z" fill="#010101"/>
<path d="M125.823 65.4343C126.675 60.1543 126.107 55.0628 123.74 50.16C122.225 47.0486 120.142 44.5028 117.396 42.4286C117.491 42.8057 117.586 43.1828 117.775 43.56C119.385 46.86 120.899 50.2543 122.225 53.6486C123.74 57.5143 125.254 61.2857 125.823 65.4343ZM39.3846 42.24C33.5148 45.0686 28.7811 57.7971 30.7693 65.2457C32.2841 57.1371 36.071 49.7828 39.3846 42.24ZM84.3551 72.6C84.3551 72.6943 84.3551 72.6943 84.2604 72.7885C84.071 72.6943 83.787 72.6943 83.5977 72.6C80.6628 71.4686 77.6332 71.1857 74.6036 71.8457C73.6568 72.0343 72.8048 72.4114 71.858 72.5057C71.7633 72.5057 71.574 72.5057 71.574 72.6943C71.1006 72.6943 70.8166 73.0714 70.5326 73.26C69.4912 73.92 68.4497 74.58 67.3136 74.9571C65.8935 75.4286 64.7574 75.1457 63.8107 74.0143C62.1065 72.1286 60.4024 70.1486 58.7929 68.1686C56.8994 65.8114 55.006 63.4543 53.1125 61.0971C51.3136 58.8343 48.9468 58.1743 46.2012 58.74C43.8344 59.2114 41.9409 60.5314 40.0474 61.9457C37.7752 63.7371 35.6923 65.8114 33.8935 67.98C35.503 67.32 36.9231 66.4714 38.5326 65.9057C38.5326 66.1886 38.3432 66.4714 38.1539 66.66C36.9231 68.0743 35.787 69.5828 34.7456 71.0914C34.4616 71.4686 34.2722 71.8457 34.5562 72.4114C34.8403 72.8828 35.3136 72.8828 35.787 72.8828C36.6391 72.7886 37.4912 72.6943 38.3432 72.6C40.7101 72.6943 43.1716 72.8828 45.5385 72.6C46.2959 72.5057 46.0119 72.9771 45.9172 73.3543C45.1598 76.1828 45.6332 78.7285 47.6213 80.9914C49.4202 83.0657 51.6923 83.9143 54.4379 83.82C54.6273 83.82 54.8166 83.82 55.1006 83.82C55.1953 83.82 55.29 83.82 55.29 83.9143C54.8166 85.3286 54.3432 85.6114 52.9231 85.4228C50.4616 85.0457 48.1894 84.2914 46.3906 82.4057C45.2545 81.18 44.4971 79.7657 44.1184 78.1628C44.0237 77.7857 43.929 77.4085 43.8344 77.0314C43.077 78.0685 43.4557 80.9914 44.5917 84.1971C44.4024 84.3857 44.4971 84.6685 44.5917 84.8571C44.7811 85.6114 44.9704 86.3657 45.1598 87.12C46.8639 93.5314 48.4734 99.9428 50.0829 106.449C50.1776 106.731 50.1775 106.92 50.4616 107.109C50.0829 108.9 49.5148 110.597 49.2308 112.483C49.0415 113.52 48.9468 114.557 48.7574 115.877C47.0533 113.991 45.4438 112.294 43.8344 110.597C40.3314 108.994 37.0178 107.297 33.7988 105.317C28.3077 102.017 23.1953 98.2457 18.7456 93.8143C18.5562 93.6257 18.3669 93.3428 17.9882 93.2486C15.3373 88.44 13.4438 83.3485 13.5385 77.6914C13.8225 77.5971 13.8225 77.3143 13.9172 77.1257C14.2959 75.8057 14.6746 74.4857 14.9586 73.1657C15.148 72.3171 15.432 71.5628 15.5267 70.7143C15.6213 70.3371 15.716 69.96 15.8107 69.5828C15.8107 69.4886 15.9054 69.4885 15.9054 69.3943C17.4201 64.1143 19.0296 58.9286 21.0178 53.7428C21.6805 51.8571 22.7219 50.9143 23.6687 49.8771C27.929 45.4457 32.7574 41.4857 37.5858 37.62C40.2367 35.4514 42.8876 33.3771 45.6332 31.3028C48 29.5114 49.0415 26.9657 49.5148 24.2314C49.7042 23.1943 49.7989 22.0628 49.8935 20.9314C50.1775 20.8371 50.2722 20.5543 50.4616 20.2714C51.503 18.5743 52.9231 17.2543 54.8166 16.5943C59.7397 14.8028 64.4734 15.2743 69.0178 17.82C71.3847 19.2343 73.6568 20.8371 75.4557 23.0057C75.7397 23.3828 76.0237 23.76 76.4971 23.9486C76.4024 25.3628 76.3077 26.7771 76.2131 28.1914C76.1184 32.34 76.1184 36.4886 76.4024 40.5428C76.6864 45.7286 77.0651 51.0086 77.5385 56.1943C77.7278 57.7971 77.8225 59.3057 78.2959 60.9086C79.6213 48.6514 81.3255 36.3 80.6628 23.9486C81.1361 23.76 81.4202 23.3828 81.7989 23.0057C83.3136 21.2143 85.1125 19.8 87.1006 18.48C90.7929 16.0286 94.9586 15.0857 99.3136 15.7457C101.681 16.1228 103.669 16.9714 105.373 18.6686C105.941 19.2343 106.32 19.9886 106.982 20.5543C107.172 22.8171 107.361 25.08 108.308 27.2486C108.97 28.8514 110.012 30.2657 111.432 31.3028C118.817 36.96 126.107 42.7114 132.828 49.2171C134.533 50.9143 135.858 52.8 136.615 55.1571C138.225 59.9657 139.74 64.7743 141.254 69.6771C141.254 69.7714 141.254 69.8657 141.349 69.96C141.917 71.4685 142.107 72.9771 142.58 74.4857C142.769 74.9571 142.675 75.6171 143.148 75.9C143.527 81.18 142.012 85.9885 139.645 90.6086C138.793 91.08 138.32 91.9285 137.657 92.5885C135.858 94.4743 133.87 96.1714 131.882 97.7743C127.716 101.169 123.172 103.997 118.438 106.637C116.45 107.769 114.272 108.711 112.284 109.843C110.864 111.351 109.444 112.954 107.834 114.651C107.645 111.54 106.888 108.806 106.13 105.977C106.32 105.883 106.32 105.694 106.414 105.506C106.982 103.337 107.55 101.169 108.118 99C109.254 94.4743 110.391 90.0428 111.621 85.5171C111.716 85.14 111.905 84.7628 111.811 84.3857C113.041 82.2171 113.61 79.9543 113.42 77.5028C113.42 77.1257 113.42 76.7486 113.136 76.4657C112.757 76.6543 112.852 76.9371 112.852 77.22C111.621 82.7828 107.266 84.8571 102.438 85.0457C102.154 85.0457 102.059 85.0457 101.87 84.7628C101.586 84.2914 101.302 83.82 100.923 83.3485C101.965 83.3485 102.817 83.5371 103.669 83.4428C108.876 82.8771 112.189 78.2571 110.959 73.26C110.769 72.6 110.864 72.3171 111.621 72.4114C113.515 72.5057 115.314 72.3171 117.207 72.2228C118.438 72.5057 119.763 72.7886 120.994 72.9771C121.467 73.0714 121.941 72.9771 122.225 72.5057C122.509 72.1286 122.414 71.6571 122.13 71.3743C121.467 70.4314 120.805 69.4885 120.142 68.4514C119.574 67.6028 118.817 66.9428 118.438 66C119.669 66.5657 120.994 67.2257 122.225 67.7914C122.225 67.7914 122.32 67.7914 122.32 67.6971C122.13 67.4143 121.846 67.1314 121.657 66.9428C119.195 64.3028 116.639 61.7571 113.42 59.9657C111.432 58.8343 109.349 57.9857 106.888 58.4571C105.373 58.74 104.142 59.4 103.195 60.6257C99.6923 64.9628 96.2841 69.3943 92.4971 73.4486C90.9823 75.1457 89.9409 75.3343 87.858 74.3914C86.9113 74.0143 86.0592 73.4486 85.3018 72.8828C84.9231 72.8828 84.7338 72.6 84.3551 72.6C84.3551 72.6 84.4497 72.4114 84.2604 72.5057L84.3551 72.6Z" fill="#9B9B9B"/>
<path d="M9.94084 86.1771C10.3195 87.0257 10.6982 87.78 11.0769 88.5343C14.9586 96.5486 19.503 104.091 25.3728 110.88C30.6746 117.009 36.5444 122.383 43.2663 126.909C45.9172 128.7 48.7574 130.303 51.5976 131.717C52.5444 132.189 53.1124 132.754 53.3018 133.886C53.9645 136.903 55.574 138.129 59.0769 138.6C59.929 138.694 60.5917 138.977 61.1598 139.543C64.1894 142.654 68.071 144.257 72.3314 145.106C78.5799 146.331 84.6391 145.954 90.6036 143.597C93.2544 142.56 95.716 141.146 97.5148 138.883C97.9882 138.223 98.4616 138.129 99.2189 138.034C101.302 137.751 102.438 136.431 103.101 134.546C103.195 134.169 103.385 133.791 103.385 133.509C103.29 132.471 103.953 132.094 104.71 131.717C110.769 128.7 116.26 125.023 121.373 120.591C128.947 114.086 135.29 106.637 140.402 98.1514C143.053 93.6257 145.704 89.1 147.408 84.1971C147.787 83.16 148.071 82.0286 148.45 80.8029C148.639 81.3686 148.828 81.7457 149.018 82.1229C150.438 86.3657 151.669 90.7029 152.237 95.2286C153.089 102.206 151.669 108.711 147.882 114.651C144.947 119.177 141.349 123.137 137.278 126.72C130.84 132.471 123.929 137.563 116.734 142.277C109.538 147.086 102.154 151.611 94.5799 155.666C91.1716 157.457 87.7633 159.154 84.2604 160.757C81.2308 162.171 78.3905 161.983 75.4556 160.663C68.5444 157.457 61.9172 153.874 55.3846 150.009C50.9349 147.369 46.5799 144.634 42.3195 141.711C35.787 137.28 29.4438 132.66 23.574 127.474C19.8817 124.269 16.4734 120.78 13.6331 116.82C10.8876 112.954 8.71007 108.711 7.95268 103.997C7.38463 100.886 7.4793 97.7743 7.95268 94.7571C8.33137 92.1171 8.89942 89.4771 9.65682 86.8371C9.65682 86.6486 9.65682 86.3657 9.94084 86.1771Z" fill="#6E6E6E"/>
<path d="M71.858 72.5057C72.8048 72.5057 73.6568 72.0343 74.6036 71.8457C77.7278 71.28 80.6627 71.5629 83.5977 72.6C83.787 72.6943 84.071 72.6943 84.2604 72.7886C84.8284 73.92 85.3965 75.0514 86.1539 75.9943C86.9113 76.9371 87.6687 77.7857 88.6154 78.3514C89.0888 78.6343 89.0888 78.8229 88.8048 79.2C87.574 80.9914 86.5326 82.7829 86.7219 85.0457C86.8166 86.5543 87.1006 88.0629 87.4793 89.4771C88.6154 93.8143 89.9408 98.0571 91.8343 102.017C92.0237 102.489 92.3077 102.96 92.8758 103.431C92.5917 102.3 92.4024 101.357 92.213 100.509C91.2663 96.1714 90.3195 91.74 89.7515 87.3086C89.3728 84.8571 89.6568 82.5 91.2663 80.4257C91.4556 80.2371 91.5503 79.9543 91.8343 79.86C93.3491 82.8771 94.7692 85.8 96.284 88.8171C96.3787 87.4029 96.0947 86.0829 95.9053 84.5743C96.284 85.0457 96.4734 85.3286 96.6627 85.6114C97.6095 86.9314 98.5562 88.3457 99.219 89.8543C99.4083 90.3257 99.503 90.7029 99.1243 91.08C97.3255 93.06 97.3255 95.3229 98.0829 97.68C98.8403 100.131 99.9763 102.394 100.828 104.751C101.207 105.883 101.68 107.014 101.87 108.24C101.586 108.523 101.491 108.9 101.396 109.183C100.355 111.446 97.8935 113.143 94.9586 111.446C94.2959 111.069 93.8225 110.503 93.0651 110.314C92.1184 108.711 90.9823 107.109 89.7515 105.789H89.8462C90.6982 105.883 91.5503 106.071 92.5917 106.166C87.1953 101.263 69.2071 101.263 64 106.166C65.1361 105.977 66.1775 105.789 67.4083 105.6C65.9882 106.826 65.1361 108.146 64.2841 109.371C64.2841 109.466 64.1894 109.466 64.1894 109.56C63.3373 109.843 62.7693 110.597 62.0119 111.069C59.361 112.86 56.8994 112.483 55.1953 109.749C55.1006 109.56 54.9113 109.277 54.7219 109.183C55.4793 105.977 56.7101 102.96 57.9409 99.9429C58.4142 98.6229 58.8876 97.3971 59.1716 95.9829C59.4557 94.2857 59.1716 92.6829 58.0355 91.3629C57.4675 90.7029 57.4675 90.1371 57.8462 89.3829C58.6983 87.78 59.645 86.0829 60.9704 84.6686C60.9704 85.8 60.5917 86.9314 60.5917 88.0629C60.5917 88.3457 60.5917 88.5343 60.6864 88.8171C62.2012 85.8943 63.6213 82.8771 65.1361 79.86C66.3669 81.5571 67.219 83.3486 67.1243 85.4229C66.7456 90.1371 65.7042 94.8514 64.7574 99.4714C64.4734 100.697 64 101.923 64 103.149H63.9054V103.243C63.9054 103.243 63.9054 103.149 64 103.149C64.4734 102.96 64.5681 102.583 64.7574 102.206C67.219 96.8314 69.1125 91.2686 69.8699 85.4229C70.2485 82.8771 69.2071 80.8029 67.787 78.8229C67.503 78.3514 67.503 78.1629 67.8817 77.88C69.7752 76.4657 71.1006 74.4857 71.9527 72.3171C71.6687 72.6 71.7633 72.5057 71.858 72.5057Z" fill="#C9B89E"/>
<path d="M106.698 20.6486C106.036 20.0828 105.657 19.3286 105.089 18.7628C103.385 17.0657 101.302 16.1228 99.0296 15.84C94.5799 15.18 90.5089 16.1229 86.8166 18.5743C84.8284 19.8 83.0296 21.3086 81.5148 23.1C81.2308 23.4771 80.8521 23.8543 80.3787 24.0428C80.1894 22.7228 80.0947 21.4971 79.5267 20.2714C79.3373 19.8 78.9586 19.3286 78.3906 19.3286C77.8225 19.3286 77.6332 19.8 77.3491 20.1771C77.0651 20.6486 76.9704 21.12 76.8758 21.5914C76.6864 22.44 76.4971 23.1943 76.4024 24.0428C75.929 23.8543 75.645 23.4771 75.361 23.1C73.5622 20.9314 71.3846 19.3286 68.9231 17.9143C64.3787 15.3686 59.645 14.8971 54.7219 16.6886C52.9231 17.3486 51.503 18.6686 50.3669 20.3657C50.1775 20.6486 50.1775 20.9314 49.7988 21.0257C49.7042 19.5171 49.7988 18.0086 49.5148 16.5C49.0414 18.0086 48.6627 19.4228 48.1894 20.8371C47.8107 22.0628 47.3373 23.3828 46.8639 24.6086C46.6746 25.1743 46.2959 25.6457 45.9172 26.1171C44.6864 27.4371 43.361 28.6628 42.0355 29.7943C41.9409 29.4171 41.7515 29.1343 41.5622 28.8514C40.0474 26.5886 38.4379 24.42 36.7337 22.2514C34.9349 19.9886 32.9468 17.82 30.6746 15.9343C29.3491 14.8028 27.7397 14.1428 26.0355 13.6714C27.0769 13.0114 28.3077 12.7286 29.5385 12.7286C34.4616 12.7286 38.9113 14.0486 42.6036 17.5371C43.7397 18.5743 44.4971 19.8943 45.0651 21.3086C45.1598 21.4971 45.1598 21.8743 45.4438 21.9686C45.7278 21.5914 45.7278 21.12 45.8225 20.7428C46.1065 18.9514 46.3906 17.16 46.1065 15.2743C46.0119 14.8029 46.2012 14.6143 46.5799 14.4257C50.6509 12.2571 54.9113 10.6543 59.361 9.61714C63.432 8.67428 67.6923 8.20285 71.858 8.01428C72.5207 8.01428 73.0888 8.10856 73.6568 8.67428C74.6983 9.71142 75.929 10.4657 77.3491 10.6543C79.148 10.9371 80.7574 10.3714 81.9882 9.05142C83.0296 8.01428 84.071 7.91999 85.3965 8.01428C88.9941 8.29714 92.4971 8.67428 96 9.42856C100.828 10.4657 105.373 12.0686 109.728 14.4257C110.201 14.7086 110.391 14.9914 110.391 15.5571C110.296 17.3486 110.391 19.14 110.769 20.8371C110.864 21.2143 110.864 21.6857 111.243 22.0628C111.716 20.7428 112.284 19.6114 113.041 18.5743C115.124 15.7457 118.059 14.3314 121.373 13.3886C124.118 12.6343 126.769 12.1629 129.609 13.0114C129.988 13.1057 130.367 13.2 130.556 13.4829C130.462 13.5771 130.272 13.6714 130.178 13.6714C127.905 14.1428 126.201 15.5571 124.592 17.0657C121.941 19.6114 119.669 22.44 117.491 25.4571C116.639 26.6828 115.598 27.9086 114.935 29.3228C113.42 28.0971 111.905 26.8714 110.391 25.74C110.012 25.4571 109.917 25.08 109.823 24.7029C109.065 22.0628 108.213 19.5171 107.456 16.8771C107.361 16.6886 107.361 16.5 107.172 16.1228C106.793 17.9143 106.793 19.3286 106.698 20.6486Z" fill="#6E6E6E"/>
<path d="M112 110.126C114.083 109.089 116.166 108.051 118.154 106.92C122.888 104.28 127.337 101.451 131.598 98.0571C133.586 96.4543 135.574 94.6629 137.373 92.8714C138.036 92.2114 138.509 91.3629 139.361 90.8914C138.793 92.5886 137.846 94.1914 136.994 95.7943C133.87 101.546 129.988 106.826 125.728 111.729C120.615 117.574 114.84 122.76 108.118 126.909C107.834 127.097 107.55 127.474 107.077 127.474L106.982 127.38C109.16 123.514 110.769 119.366 111.527 114.934C111.811 113.52 111.905 112.106 112.095 110.691C112.189 110.503 112.189 110.22 112 110.126Z" fill="#6E6E6E"/>
<path d="M54.5325 109.466C54.8165 109.56 54.9112 109.843 55.0059 110.031C56.71 112.766 59.1716 113.143 61.8225 111.351C62.5798 110.88 63.1479 110.126 64 109.843C64 109.937 64 110.031 63.9053 110.031C62.6745 112.294 61.6331 114.557 62.0118 117.197C62.0118 117.197 62.0118 117.197 61.9171 117.291C61.5384 116.537 61.1597 115.783 60.6864 115.029C60.6864 115.783 60.8757 116.537 60.9704 117.197C61.1597 118.423 61.8225 119.177 62.7692 119.837C63.7159 120.403 64.6627 120.969 65.6094 121.44C66.5562 121.911 67.5029 122.571 68.5443 122.76C68.5443 122.854 68.5443 122.854 68.5443 122.949C68.5443 123.231 68.8284 123.42 69.0177 123.609C69.4911 124.08 70.0591 124.551 70.5325 125.117C71.7633 126.531 71.7633 127.38 70.6272 128.794C69.4911 130.303 68.071 131.529 66.6509 132.849C66.3668 133.131 65.9881 133.32 65.8935 133.697C63.9053 134.169 61.9171 134.64 59.8343 134.546C58.0355 134.451 57.4674 133.886 57.5621 132.094C57.7514 129.171 57.9408 126.249 58.0355 123.326C58.0355 123.137 58.0355 122.854 58.0355 122.383C57.0887 123.891 56.6153 125.4 55.9526 127.003C52.5443 121.346 52.923 115.5 54.5325 109.466Z" fill="#9B8E7C"/>
<path d="M93.0651 110.597C93.8225 110.88 94.2959 111.351 94.9586 111.729C97.8935 113.426 100.355 111.729 101.396 109.466C101.586 109.183 101.586 108.711 101.87 108.523C103.858 114.934 103.953 122.194 100.734 126.72C100.166 125.306 99.6923 123.986 98.8402 122.571C98.8402 123.514 98.8402 124.363 98.8402 125.211C98.9349 127.191 99.0296 129.171 99.1243 131.151C99.1243 131.906 99.0296 132.66 98.9349 133.414C98.9349 133.886 98.6509 133.98 98.1775 134.074C96.1894 134.263 94.2012 133.886 92.213 133.697C91.361 133.603 90.6036 133.509 89.7515 133.32C89.7515 133.037 89.4675 132.849 89.2781 132.66C88.3314 131.811 87.3846 130.963 86.5325 129.926C84.4497 127.663 84.4497 126.72 86.6272 124.457C87.1006 123.986 87.6686 123.703 87.858 123.043C89.4675 122.194 91.0769 121.251 92.7811 120.497C95.1479 119.46 95.8107 117.48 95.8107 115.123C95.9053 115.123 95.9053 115.029 95.9053 114.934C95.9053 114.934 95.8107 114.934 95.8107 114.84C95.8107 114.934 95.8107 115.029 95.8107 115.029C95.2426 115.689 95.0533 116.631 94.2959 117.48C94.5799 116.16 94.5799 114.934 94.2959 113.803C94.1065 112.766 93.5385 111.729 93.0651 110.597Z" fill="#9B8E7C"/>
<path d="M18.1775 92.6829C18.5562 92.7771 18.7455 92.9657 18.9349 93.2486C23.4793 97.7743 28.5917 101.451 33.9881 104.751C37.2071 106.731 40.6154 108.429 44.0236 110.031C43.8343 111.257 44.1183 112.483 44.213 113.709C44.8757 118.14 46.2958 122.194 48.3787 126.154C48.4733 126.343 48.568 126.437 48.4733 126.814C47.5266 126.154 46.5799 125.589 45.6331 124.929C40.8047 121.629 36.4497 117.763 32.4733 113.52C28.5917 109.371 25.1834 104.846 22.2485 100.037C20.8284 97.7743 19.5029 95.5114 18.2722 93.1543C18.2722 93.06 18.2722 92.8714 18.1775 92.6829Z" fill="#6E6E6E"/>
<path d="M26.1302 13.5771C27.8343 14.0486 29.4438 14.7086 30.7692 15.84C33.0414 17.7257 34.9349 19.8943 36.8284 22.1571C38.5325 24.3257 40.142 26.4943 41.6568 28.7571C41.8461 29.04 42.0355 29.4171 42.1302 29.7C40.71 30.9257 39.2899 32.0571 37.7751 33.2829C37.3018 33.66 37.1124 33.5657 37.0177 33C36.1657 30.2657 35.0296 27.6257 33.4201 25.1743C32.1893 23.1943 30.6745 21.4971 28.5917 20.46C28.497 20.3657 28.4023 20.3657 28.3077 20.3657C25.6568 19.2343 23.858 19.8 23.5739 23.1C23.1006 27.5314 22.9112 32.0571 23.1006 36.4886C23.1952 38.94 23.1952 41.4857 24.142 43.9371C24.2367 44.22 24.142 44.4086 23.9526 44.5971C23.6686 44.88 23.2899 45.1629 23.0059 45.4457C22.4378 46.1057 22.0591 45.8229 21.5858 45.3514C20.9231 44.6914 20.5444 43.8429 20.355 42.9C19.0296 38.3743 18.6509 33.8486 19.0296 29.1343C19.3136 25.74 20.071 22.44 21.3018 19.2343C22.0592 17.2543 23.1006 15.4629 24.8047 14.2371C25.0887 14.0486 25.5621 13.7657 26.1302 13.5771Z" fill="#9B9B9B"/>
<path d="M114.84 29.5114C115.408 28.0971 116.45 26.8714 117.396 25.6457C119.574 22.6286 121.846 19.8 124.497 17.2543C126.107 15.7457 127.811 14.3314 130.083 13.86C130.272 13.86 130.367 13.6714 130.462 13.6714C132.544 14.4257 133.775 15.9343 134.722 17.82C136.237 20.9314 137.183 24.2314 137.562 27.72C138.13 32.6228 137.846 37.4314 136.615 42.1457C136.331 43.4657 135.858 44.6914 134.817 45.6343C134.438 46.0114 134.249 45.9171 133.775 45.6343C132.828 44.88 132.355 44.22 132.828 42.9C133.491 41.0143 133.491 38.94 133.491 36.96C133.586 32.34 133.396 27.72 133.018 23.1C133.018 23.0057 133.018 22.9114 133.018 22.8171C132.544 20.3657 131.219 19.5171 128.852 20.3657C127.053 20.9314 125.728 22.1571 124.592 23.5714C122.32 26.3057 120.899 29.5114 119.763 32.8114C119.479 33.5657 119.29 33.5657 118.817 33.0943C117.586 31.7743 116.26 30.6428 114.84 29.5114Z" fill="#9B9B9B"/>
<path d="M88.0473 123.043C87.7633 123.609 87.1953 123.986 86.8166 124.457C84.6391 126.626 84.6391 127.663 86.7219 129.926C87.574 130.869 88.5207 131.717 89.4675 132.66C89.6568 132.849 89.9408 133.037 89.9408 133.32C88.2367 133.226 86.6272 132.754 85.0178 132.471C82.9349 132.094 80.9468 131.717 78.8639 131.623C76.7811 131.529 74.7929 132.094 72.7101 132.377C70.4379 132.754 68.1657 133.414 65.8935 133.791C65.9882 133.414 66.3669 133.226 66.6509 132.943C68.071 131.717 69.4911 130.397 70.6272 128.889C71.7633 127.38 71.7633 126.626 70.5325 125.211C70.0592 124.646 69.4911 124.174 69.0178 123.703C68.8284 123.514 68.5444 123.326 68.5444 123.043C68.5444 122.949 68.6391 122.949 68.6391 122.854C68.5444 122.854 68.5444 122.854 68.4497 122.854C68.4497 122.383 67.9763 122.1 67.787 121.723C67.3136 120.874 66.8402 119.931 67.1243 118.894C67.2189 118.894 67.3136 118.894 67.3136 118.989C68.7337 120.78 70.6272 121.629 72.8994 121.629C73.2781 121.629 73.4675 121.817 73.4675 122.194C73.5621 123.42 73.5621 124.551 73.4675 125.777C73.4675 126.249 73.5621 126.437 74.0355 126.626C75.3609 127.191 76.5917 127.757 77.9172 128.323C78.2012 128.511 78.4852 128.606 78.8639 128.417C80.0947 127.757 81.4201 127.191 82.6509 126.626C83.0296 126.437 83.1243 126.249 83.0296 125.871C82.9349 124.74 83.0296 123.609 82.9349 122.383C82.9349 121.723 83.1243 121.534 83.787 121.534C85.7752 121.534 87.4793 120.78 88.8047 119.366C88.8994 119.177 88.9941 118.894 89.3728 118.989C89.4675 120.309 88.9941 121.346 88.2367 122.383C88.142 122.477 87.7633 122.666 88.0473 123.043Z" fill="#6D6453"/>
<path d="M118.248 66.1886C118.627 67.1314 119.385 67.7914 119.953 68.64C120.615 69.6771 121.278 70.62 121.941 71.5629C122.225 71.94 122.319 72.3171 122.035 72.6943C121.751 73.1657 121.278 73.26 120.805 73.1657C119.574 72.8829 118.248 72.6 117.018 72.4114C115.692 71.6571 114.177 71.4686 112.757 70.9971C112 70.8086 111.243 70.62 110.485 70.4314C110.296 70.4314 110.106 70.4314 110.012 70.2429C109.917 69.96 110.201 69.8657 110.39 69.7714C111.053 69.3943 111.905 69.3 112.663 69.3C113.136 69.3 113.515 69.3943 113.988 69.3943C114.083 69.3943 114.083 69.4886 114.177 69.3943C114.177 69.3943 114.083 69.3943 114.083 69.3C113.136 68.3571 111.811 68.0743 110.58 67.8857C108.308 67.6971 106.319 68.5457 104.615 70.0543C103.479 71.0914 102.343 72.2229 101.302 73.4486C99.9763 74.8629 98.5562 76.1829 96.9467 77.22C96.7574 77.1257 96.852 77.0314 96.852 76.9371C100.071 73.5429 102.627 69.5829 105.467 65.9057C105.657 65.6229 105.941 65.4343 106.13 65.0571C107.172 63.2657 108.876 62.9828 110.769 63.36C113.231 64.1143 115.787 65.0571 118.248 66.1886Z" fill="#6E6E6E"/>
<path d="M50.6509 106.637C50.4615 106.449 50.3669 106.26 50.2722 105.977C48.6627 99.5657 46.9586 93.1543 45.3491 86.6486C45.1598 85.8943 44.9704 85.14 44.7811 84.3857C44.6864 84.1971 44.5917 83.9143 44.7811 83.7257C45.7278 85.14 46.7692 86.3657 48.0947 87.4029C49.4201 88.3457 50.8402 89.0057 52.355 89.3829C52.8284 89.4772 52.9231 89.6657 52.9231 90.0429C52.8284 91.4572 53.2071 92.7771 53.9645 94.0029C54.5326 94.9457 54.6272 95.8886 54.3432 96.9257C53.5858 99.8486 52.2604 102.677 51.2189 105.506C50.9349 105.883 50.7456 106.26 50.6509 106.637Z" fill="#6E6E6E"/>
<path d="M38.3432 72.4114C37.4911 72.5057 36.639 72.6943 35.787 72.6943C35.3136 72.7886 34.8402 72.7886 34.5562 72.2228C34.2722 71.7514 34.4615 71.3743 34.7456 70.9028C35.787 69.3943 36.9231 67.8857 38.1538 66.4714C38.3432 66.2828 38.5325 66 38.5325 65.7171C41.2781 64.5857 44.1183 63.36 47.1479 63.36C48 63.36 48.568 63.6428 49.1361 64.2086C50.4615 65.7171 51.6923 67.4143 52.9231 69.0171C54.2485 70.7143 55.5739 72.5057 56.8047 74.2028C56.8994 74.2971 57.0887 74.4857 57.0887 74.7686C56.5207 74.6743 56.142 74.2028 55.858 73.8257C54.5325 72.5057 53.3018 70.9971 51.8816 69.7714C49.4201 67.6971 46.1065 67.32 43.3609 68.8286C43.0769 68.9228 42.7929 69.0171 42.6982 69.3943C43.645 69.3943 44.5917 69.0171 45.4438 69.3C45.5385 69.3 45.7278 69.3 45.8225 69.3943C46.1065 69.4886 46.5799 69.5828 46.5799 69.8657C46.5799 70.2428 46.1065 70.0543 45.8225 70.1486C43.5503 70.5257 41.3728 71.1857 39.1953 71.8457C38.9112 72.0343 38.5325 72.0343 38.3432 72.4114Z" fill="#6E6E6E"/>
<path d="M111.527 84.6686C111.621 85.0457 111.432 85.4228 111.337 85.8C110.201 90.3257 109.065 94.7571 107.834 99.2828C107.266 101.451 106.698 103.62 106.13 105.789C106.13 105.977 106.036 106.166 105.846 106.26C104.805 103.149 103.479 100.131 102.343 97.02C101.87 95.7 102.059 94.2857 102.722 92.9657C103.195 92.0228 103.858 91.08 103.763 89.8543C103.763 89.5714 103.953 89.4771 104.237 89.3828C107.172 88.8171 109.444 87.3086 111.148 84.9514C111.243 84.8571 111.337 84.7628 111.527 84.6686Z" fill="#6E6E6E"/>
<path d="M67.787 139.637C68.4497 139.354 69.1124 139.26 69.6805 139.354C73.5621 139.731 77.4438 139.449 81.3255 139.449C83.6923 139.449 86.0592 139.26 88.426 139.166C88.8994 139.166 89.3728 139.166 89.7515 139.166C89.9408 139.166 90.3195 139.071 90.4142 139.354C90.5089 139.637 90.1302 139.731 89.9408 139.92C88.0473 141.429 85.7752 142.089 83.4083 142.56C79.0533 143.314 74.7929 143.031 70.6272 141.429C69.5858 140.957 68.6391 140.486 67.787 139.637Z" fill="#6D6453"/>
<path d="M54.2485 81.4629C51.3136 81.4629 48.9467 79.6714 48.3787 77.1257C48.0947 75.9 48.4734 74.7686 49.1361 73.7314C49.4201 73.26 49.7041 73.1657 50.0828 73.5429C51.787 74.8629 53.5858 76.1829 55.2899 77.5029C55.858 77.9743 56.5207 78.3514 57.0887 78.7286C57.5621 79.0114 57.9408 79.4829 57.8461 80.0486C57.7515 80.6143 57.2781 80.8972 56.71 81.0857C56.0473 81.2743 55.1952 81.4629 54.2485 81.4629Z" fill="white"/>
<path d="M102.249 81.4629C101.207 81.4629 100.26 81.2743 99.3136 80.8029C98.4615 80.3314 98.3669 79.6714 99.0296 78.9171C99.1243 78.8229 99.2189 78.7286 99.3136 78.6343C101.775 77.0314 104.047 75.1457 106.414 73.4486C106.982 73.0714 107.172 73.0714 107.55 73.6371C108.781 75.6171 108.402 78.0686 106.698 79.6714C105.373 80.8971 103.953 81.4629 102.249 81.4629Z" fill="white"/>
<path d="M15.7159 70.1486C15.7159 70.9972 15.4319 71.7514 15.1479 72.6C14.7692 73.92 14.3905 75.24 14.1065 76.56C14.0118 76.7486 14.0118 77.0314 13.7278 77.1257C13.5384 74.4857 13.8224 71.94 13.9171 69.3C14.0118 67.2257 14.2011 65.1514 14.2958 63.0772C14.3905 59.6829 14.5798 56.2886 15.1479 52.9886C15.3372 51.9514 15.9053 51.1972 16.852 50.7257C17.0414 50.6314 17.2307 50.5372 17.3254 50.7257C17.5147 50.9143 17.3254 51.0086 17.3254 51.1972C16.3786 53.2714 16.1893 55.5343 15.9999 57.7029C15.6212 61.5686 15.5266 65.4343 15.5266 69.3943C15.4319 69.5829 15.2425 69.96 15.7159 70.1486Z" fill="#6E6E6E"/>
<path d="M142.864 76.0885C142.391 75.7114 142.391 75.1457 142.296 74.6743C141.823 73.1657 141.633 71.5628 141.065 70.1486C141.16 70.0543 141.16 69.96 141.16 69.7714C141.16 64.3028 141.065 58.8343 140.024 53.3657C139.834 52.5171 139.55 51.7628 139.172 50.9143C139.74 51.1028 139.929 51.3857 140.213 51.7628C141.633 53.6486 141.917 55.8171 142.107 58.1743C142.391 62.9828 142.675 67.6971 142.769 72.5057C142.769 73.5428 142.959 74.8628 142.864 76.0885Z" fill="#6E6E6E"/>
<path d="M60.6862 85.0456V84.9514C60.6862 84.9514 60.6862 85.0456 60.7804 85.0456C60.6862 84.9514 60.6862 84.9514 60.6862 85.0456C60.592 85.0456 60.6862 85.0456 60.6862 85.0456Z" fill="#C7B59B"/>
<path d="M57.751 75.7113L57.6568 75.6171H57.751C57.751 75.7113 57.751 75.7113 57.751 75.7113Z" fill="#4B2823"/>
<path d="M16.0942 68.8286C16.0942 68.9228 16 68.9228 16 69.017C16 68.9228 16 68.9228 16.0942 68.8286Z" fill="#4B2823"/>
<path d="M57.7515 75.8056H57.8457L57.7515 75.7114V75.8056Z" fill="#4B2823"/>
<path d="M107.171 127.474H107.077C107.077 127.38 107.077 127.38 107.171 127.474C107.077 127.38 107.077 127.38 107.171 127.474Z" fill="#4B2823"/>
<path d="M76.3077 23.9486C76.497 23.1 76.5917 22.3457 76.7811 21.4971C76.8757 21.0257 77.0651 20.5543 77.2544 20.0829C77.4438 19.7057 77.7278 19.2343 78.2959 19.2343C78.9586 19.2343 79.2426 19.7057 79.432 20.1771C80 21.4029 80.0947 22.7229 80.284 23.9486C80.9468 36.3943 79.3373 48.6514 77.9172 60.9086C77.4438 59.4 77.3491 57.7971 77.1598 56.1943C76.5917 51.0086 76.213 45.8229 76.0237 40.5429C75.8343 36.3943 75.7396 32.2457 75.8343 28.1914C76.1183 26.8714 76.213 25.4571 76.3077 23.9486Z" fill="#010101"/>
<path d="M39.3846 42.24C36.071 49.7828 32.284 57.1371 30.7692 65.2457C28.7811 57.8914 33.5148 45.0686 39.3846 42.24Z" fill="#010101"/>
<path d="M125.822 65.4343C125.254 61.2857 123.74 57.5143 122.225 53.6486C120.899 50.2543 119.385 46.86 117.775 43.56C117.586 43.1828 117.491 42.8057 117.396 42.4286C120.142 44.5028 122.32 47.1428 123.74 50.16C126.107 54.9686 126.675 60.1543 125.822 65.4343Z" fill="#010101"/>
<path d="M84.3546 72.5999L84.2604 72.5057C84.3546 72.5057 84.3546 72.5999 84.3546 72.5999Z" fill="#010101"/>
<path d="M71.858 72.5057C71.7633 72.5999 71.6686 72.5999 71.574 72.6941C71.574 72.4115 71.7633 72.5057 71.858 72.5057Z" fill="#010101"/>
<path d="M69.9645 116.631C69.3965 116.631 68.9231 116.726 68.4497 116.914C68.1657 117.103 68.071 117.197 68.2604 117.574C69.0178 118.989 71.1006 120.214 72.8047 120.026C73.0888 120.026 73.2781 119.931 73.2781 119.554C72.9941 118.046 71.4793 116.631 69.9645 116.631ZM84.5444 120.026C85.8698 119.931 87.1006 119.271 88.0473 118.046C88.7101 117.197 88.6154 117.009 87.574 116.726C85.7752 116.254 84.355 117.103 83.5976 119.083C83.3136 120.026 83.3136 120.026 84.5444 120.026ZM78.2959 107.109C77.3491 107.109 76.3077 107.109 75.361 107.109C73.4675 107.203 71.574 107.391 69.7752 107.58C69.2071 107.674 68.5444 107.769 68.6391 108.523C68.7337 109.183 69.3965 108.994 69.8698 108.994C69.9645 108.994 70.0592 108.994 70.1539 108.994C74.6982 108.429 79.1479 108.24 83.6923 108.711C84.9231 108.806 86.0592 108.994 87.2899 109.089C87.6686 109.089 88.142 109.089 88.2367 108.617C88.3314 108.146 87.9527 107.957 87.574 107.769C87.3846 107.674 87.1953 107.674 87.0059 107.674C83.9763 107.297 81.1361 107.014 78.2959 107.109ZM88.0473 123.043C87.858 122.666 88.2367 122.571 88.3314 122.383C89.0888 121.346 89.6568 120.309 89.4675 118.989C89.0888 118.989 88.9941 119.271 88.8994 119.366C87.574 120.874 85.8698 121.629 83.8817 121.534C83.2189 121.534 82.9349 121.723 83.0296 122.383C83.1243 123.514 83.0296 124.646 83.1243 125.871C83.1243 126.249 83.0296 126.437 82.7456 126.626C81.5148 127.191 80.1894 127.851 78.9586 128.417C78.5799 128.606 78.2959 128.511 78.0118 128.323C76.6864 127.757 75.4556 127.191 74.1302 126.626C73.6568 126.437 73.5621 126.249 73.5621 125.777C73.6568 124.551 73.6568 123.42 73.5621 122.194C73.5621 121.817 73.4675 121.629 72.9941 121.629C70.7219 121.723 68.8284 120.78 67.4083 118.989C67.4083 118.989 67.3136 118.989 67.2189 118.894C67.0296 119.931 67.4083 120.874 67.8817 121.723C68.071 122.1 68.5444 122.383 68.5444 122.854C67.503 122.571 66.5562 122.006 65.6095 121.534C64.6627 121.063 63.716 120.497 62.7692 119.931C61.7278 119.366 61.0651 118.517 60.9704 117.291C60.8758 116.537 60.6864 115.877 60.6864 115.123C61.0651 115.877 61.4438 116.631 61.9172 117.386C62.0118 117.291 62.0118 117.291 62.0118 117.291C61.5385 114.651 62.6746 112.294 63.9053 110.126C63.9053 110.031 63.9053 109.937 64 109.937C64.0947 109.937 64.0947 109.843 64.0947 109.749C65.0414 108.523 65.7988 107.109 67.2189 105.977C65.9882 106.166 64.9468 106.354 63.8107 106.543C69.0178 101.64 87.0059 101.64 92.4024 106.543C91.4556 106.449 90.5089 106.26 89.6568 106.166L89.5621 106.071C89.5621 106.071 89.5621 106.071 89.4675 106.166C89.4675 106.166 89.5621 106.166 89.5621 106.26C90.8876 107.674 91.929 109.183 92.8757 110.786C93.3491 111.917 93.9172 112.954 94.2012 114.086C94.5799 115.217 94.4852 116.443 94.2012 117.763C94.8639 116.914 95.0533 115.971 95.716 115.311C95.6213 117.574 94.9586 119.554 92.6864 120.686C91.2663 121.251 89.6568 122.194 88.0473 123.043Z" fill="#010101"/>
<path d="M69.9645 116.631C69.3965 116.631 68.9231 116.726 68.4497 116.914C68.1657 117.103 68.071 117.197 68.2604 117.574C69.0178 118.989 71.1006 120.214 72.8047 120.026C73.0888 120.026 73.2781 119.931 73.2781 119.554C72.9941 118.046 71.4793 116.631 69.9645 116.631ZM84.5444 120.026C85.8698 119.931 87.1006 119.271 88.0473 118.046C88.7101 117.197 88.6154 117.009 87.574 116.726C85.7752 116.254 84.355 117.103 83.5976 119.083C83.3136 120.026 83.3136 120.026 84.5444 120.026ZM78.2959 107.109C77.3491 107.109 76.3077 107.109 75.361 107.109C73.4675 107.203 71.574 107.391 69.7752 107.58C69.2071 107.674 68.5444 107.769 68.6391 108.523C68.7337 109.183 69.3965 108.994 69.8698 108.994C69.9645 108.994 70.0592 108.994 70.1539 108.994C74.6982 108.429 79.1479 108.24 83.6923 108.711C84.9231 108.806 86.0592 108.994 87.2899 109.089C87.6686 109.089 88.142 109.089 88.2367 108.617C88.3314 108.146 87.9527 107.957 87.574 107.769C87.3846 107.674 87.1953 107.674 87.0059 107.674C83.9763 107.297 81.1361 107.014 78.2959 107.109ZM88.0473 123.043C87.858 122.666 88.2367 122.571 88.3314 122.383C89.0888 121.346 89.6568 120.309 89.4675 118.989C89.0888 118.989 88.9941 119.271 88.8994 119.366C87.574 120.874 85.8698 121.629 83.8817 121.534C83.2189 121.534 82.9349 121.723 83.0296 122.383C83.1243 123.514 83.0296 124.646 83.1243 125.871C83.1243 126.249 83.0296 126.437 82.7456 126.626C81.5148 127.191 80.1894 127.851 78.9586 128.417C78.5799 128.606 78.2959 128.511 78.0118 128.323C76.6864 127.757 75.4556 127.191 74.1302 126.626C73.6568 126.437 73.5621 126.249 73.5621 125.777C73.6568 124.551 73.6568 123.42 73.5621 122.194C73.5621 121.817 73.4675 121.629 72.9941 121.629C70.7219 121.723 68.8284 120.78 67.4083 118.989C67.4083 118.989 67.3136 118.989 67.2189 118.894C67.0296 119.931 67.4083 120.874 67.8817 121.723C68.071 122.1 68.5444 122.383 68.5444 122.854C67.503 122.571 66.5562 122.006 65.6095 121.534C64.6627 121.063 63.716 120.497 62.7692 119.931C61.7278 119.366 61.0651 118.517 60.9704 117.291C60.8758 116.537 60.6864 115.877 60.6864 115.123C61.0651 115.877 61.4438 116.631 61.9172 117.386C62.0118 117.291 62.0118 117.291 62.0118 117.291C61.5385 114.651 62.6746 112.294 63.9053 110.126C63.9053 110.031 63.9053 109.937 64 109.937C64.0947 109.937 64.0947 109.843 64.0947 109.749C65.0414 108.523 65.7988 107.109 67.2189 105.977C65.9882 106.166 64.9468 106.354 63.8107 106.543C69.0178 101.64 87.0059 101.64 92.4024 106.543C91.4556 106.449 90.5089 106.26 89.6568 106.166L89.5621 106.071C89.5621 106.071 89.5621 106.071 89.4675 106.166C89.4675 106.166 89.5621 106.166 89.5621 106.26C90.8876 107.674 91.929 109.183 92.8757 110.786C93.3491 111.917 93.9172 112.954 94.2012 114.086C94.5799 115.217 94.4852 116.443 94.2012 117.763C94.8639 116.914 95.0533 115.971 95.716 115.311C95.6213 117.574 94.9586 119.554 92.6864 120.686C91.2663 121.251 89.6568 122.194 88.0473 123.043Z" stroke="#9B8E7C" stroke-width="0.0996227" stroke-miterlimit="22.9256"/>
<path d="M63.6208 103.526C63.6208 103.526 63.6208 103.62 63.5266 103.62C63.6208 103.62 63.5266 103.526 63.6208 103.526Z" fill="#010101"/>
<path d="M64.0942 109.654C64.0942 109.748 64.0942 109.843 64 109.843C64 109.748 64.0942 109.748 64.0942 109.654Z" fill="#998D7B"/>
<path d="M68.5444 122.854C68.6386 122.854 68.6386 122.854 68.7328 122.854C68.7328 122.948 68.6386 122.948 68.6386 123.043C68.5444 122.948 68.5444 122.854 68.5444 122.854Z" fill="#010101"/>
<path d="M96 115.123C96 115.028 96 114.934 96 114.934C96 114.934 96.0942 114.934 96.0942 115.028C96.0942 115.028 96.0942 115.123 96 115.123Z" fill="#010101"/>
<path d="M113.988 69.4886C113.988 69.4886 114.082 69.4886 114.082 69.5828C113.988 69.5828 113.988 69.4886 113.988 69.4886C113.894 69.4886 113.988 69.4886 113.988 69.4886Z" fill="#010101"/>
<path d="M78.2958 107.109C81.1361 107.014 83.9763 107.203 86.8166 107.58C87.0059 107.58 87.1953 107.674 87.3846 107.674C87.7633 107.769 88.142 108.051 88.0473 108.523C87.9527 109.089 87.4793 109.089 87.1006 108.994C85.8698 108.9 84.7337 108.711 83.5029 108.617C78.9586 108.24 74.5089 108.334 69.9645 108.9C69.8698 108.9 69.7751 108.9 69.6805 108.9C69.2071 108.9 68.5444 109.089 68.4497 108.429C68.355 107.674 69.1124 107.58 69.5858 107.486C71.4793 107.203 73.2781 107.014 75.1716 107.014C76.3077 107.109 77.2544 107.109 78.2958 107.109Z" fill="white"/>
<path d="M84.5444 120.026C83.3136 120.026 83.3136 120.026 83.5977 119.083C84.3551 117.103 85.7752 116.254 87.574 116.726C88.5207 117.009 88.6154 117.197 88.0474 118.046C87.1006 119.271 85.8698 119.931 84.5444 120.026Z" fill="#6D6453"/>
<path d="M69.9645 116.631C71.4793 116.631 72.9941 118.046 73.1835 119.554C73.1835 119.931 72.9941 119.931 72.7101 120.026C71.1006 120.214 68.9231 118.989 68.1657 117.574C67.9764 117.291 68.071 117.103 68.3551 116.914C68.9231 116.726 69.4912 116.631 69.9645 116.631Z" fill="#6D6453"/>
<path d="M89.751 106.071C89.751 106.071 89.6568 106.071 89.6568 105.977C89.6568 105.977 89.6568 105.883 89.751 105.883C89.751 105.977 89.751 105.977 89.751 106.071C89.751 105.977 89.751 106.071 89.751 106.071Z" fill="#C7B59B"/>
</g>
<defs>
<clipPath id="clip0">
<rect width="160" height="165" fill="white"/>
</clipPath>
</defs>
</svg>
