<svg width="80" height="80" viewBox="0 0 80 80" fill="none" xmlns="http://www.w3.org/2000/svg">
<path d="M21.4063 20.7812C19.1232 20.7812 17.2657 22.6387 17.2657 24.9219C17.2657 27.205 19.1232 29.0625 21.4063 29.0625C23.6894 29.0625 25.5469 27.205 25.5469 24.9219C25.5469 22.6387 23.6894 20.7812 21.4063 20.7812ZM21.4063 26.7187C20.4156 26.7187 19.6095 25.9126 19.6095 24.9219C19.6095 23.9311 20.4156 23.125 21.4063 23.125C22.3971 23.125 23.2032 23.9311 23.2032 24.9219C23.2032 25.9126 22.3971 26.7187 21.4063 26.7187Z" fill="white"/>
<path d="M58.5937 20.7812C56.3106 20.7812 54.4531 22.6387 54.4531 24.9219C54.4531 27.205 56.3106 29.0625 58.5937 29.0625C60.8768 29.0625 62.7343 27.205 62.7343 24.9219C62.7343 22.6387 60.8768 20.7812 58.5937 20.7812ZM58.5937 26.7187C57.6029 26.7187 56.7968 25.9126 56.7968 24.9219C56.7968 23.9311 57.6029 23.125 58.5937 23.125C59.5844 23.125 60.3905 23.9311 60.3905 24.9219C60.3905 25.9126 59.5844 26.7187 58.5937 26.7187Z" fill="white"/>
<path d="M71.8321 43.4372H64.0001C64.0905 43.1369 64.1405 42.819 64.1405 42.4897V37.5561C64.6162 37.292 65.0577 36.96 65.4519 36.5628C66.5551 35.4511 67.1555 33.9752 67.1433 32.4071C67.118 29.1633 66.7791 25.7455 66.136 22.249C65.7782 20.3034 64.4709 18.736 62.7435 17.984L64.4018 15.3124H65.1357C65.4182 16.822 66.7437 17.9687 68.3338 17.9687H71.0407C72.836 17.9687 74.2966 16.5081 74.2966 14.7128V13.5684C74.2966 11.7731 72.836 10.3125 71.0407 10.3125H68.3338C66.7435 10.3125 65.4182 11.4592 65.1357 12.9687H63.7498C63.3445 12.9687 62.9679 13.1782 62.7541 13.5226L61.6696 15.2698L60.2151 4.26764C59.9332 1.83374 57.8754 0 55.4242 0H24.5759C22.1246 0 20.0671 1.83343 19.7849 4.26717L18.3303 15.2699L17.2457 13.5226C17.032 13.1782 16.6554 12.9687 16.2501 12.9687H14.8642C14.5817 11.4592 13.2562 10.3125 11.6661 10.3125H8.9592C7.1639 10.3125 5.70328 11.7731 5.70328 13.5684V14.7128C5.70328 16.5081 7.1639 17.9687 8.9592 17.9687H11.6661C13.2564 17.9687 14.5817 16.822 14.8642 15.3124H15.5982L17.2543 17.9807C15.5259 18.7301 14.2162 20.2949 13.8568 22.2377C13.3162 25.1588 12.9954 28.0474 12.894 30.8483C12.8898 30.8886 12.8876 30.9294 12.8876 30.9707C12.8876 30.9755 12.8882 30.9802 12.8884 30.985C12.8723 31.4613 12.8609 31.9355 12.8578 32.4063C12.8475 33.9774 13.4501 35.4549 14.5545 36.5667C14.9468 36.9616 15.3864 37.2919 15.8595 37.555V42.4898C15.8595 42.8192 15.9095 43.137 16 43.4373H8.16796C6.8089 43.4373 5.70328 44.5429 5.70328 45.902V47.2665C5.70328 49.2453 7.2128 50.8779 9.14076 51.0737V52.7537C9.14076 54.4229 10.4987 55.781 12.1681 55.781H13.4151L35.1547 65.7949C35.1053 66.0696 35.0782 66.3518 35.0782 66.6404C35.0782 66.9776 35.1139 67.3066 35.1808 67.6243L13.1048 77.763C12.5167 78.0331 12.2589 78.7289 12.529 79.3169C12.7264 79.7466 13.1507 80 13.5947 80C13.7582 80 13.9245 79.9655 14.0829 79.8927L36.2174 69.7272C37.0922 70.7533 38.3928 71.406 39.8438 71.406C41.3292 71.406 42.6578 70.7225 43.5325 69.6538L65.7596 79.8922C65.9185 79.9653 66.0851 80 66.2491 80C66.6924 80 67.1166 79.7472 67.3143 79.3181C67.5849 78.7303 67.328 78.0342 66.7401 77.7634L44.5247 67.5305C44.5794 67.2419 44.6094 66.9446 44.6094 66.6404C44.6094 66.3885 44.5894 66.1412 44.5516 65.8997L66.5841 55.781H67.8319C69.5013 55.781 70.8593 54.4231 70.8593 52.7537V51.0737C72.7872 50.8779 74.2968 49.2451 74.2968 47.2664V45.9019C74.2968 44.5428 73.1911 43.4372 71.8321 43.4372ZM67.4218 13.5684C67.4218 13.0654 67.831 12.6562 68.334 12.6562H71.0408C71.5438 12.6562 71.953 13.0654 71.953 13.5684V14.7128C71.953 15.2157 71.5438 15.6249 71.0408 15.6249H68.334C67.831 15.6249 67.4218 15.2157 67.4218 14.7128V13.5684ZM12.5782 14.7128C12.5782 15.2157 12.169 15.6249 11.6661 15.6249H8.9592C8.45624 15.6249 8.04702 15.2157 8.04702 14.7128V13.5684C8.04702 13.0654 8.45624 12.6562 8.9592 12.6562H11.6661C12.169 12.6562 12.5782 13.0654 12.5782 13.5684V14.7128ZM24.5759 2.34374H55.4242C56.5795 2.34374 57.5626 3.13718 57.8301 4.23326H22.1701C22.4376 3.13718 23.4205 2.34374 24.5759 2.34374ZM16.1615 22.6641C16.4639 21.0299 17.8984 19.8437 19.5723 19.8437H47.7344C48.3817 19.8437 48.9062 19.319 48.9062 18.6718C48.9062 18.0246 48.3817 17.4999 47.7344 17.4999H20.3996L21.8438 6.57701H58.1563L59.6004 17.4999H52.4218C51.7745 17.4999 51.25 18.0246 51.25 18.6718C51.25 19.319 51.7745 19.8437 52.4218 19.8437H60.4181C62.0941 19.8437 63.5294 21.0335 63.831 22.6729C64.2779 25.1029 64.5696 27.4888 64.7076 29.7988H54.1106C54.1026 29.6886 54.0918 29.5785 54.075 29.4685L53.6034 26.3913C53.2929 24.3629 51.5778 22.8905 49.5256 22.8905H30.4744C28.4224 22.8905 26.7074 24.3627 26.3966 26.3911L25.9252 29.4685C25.9084 29.5785 25.8976 29.6888 25.8896 29.7988H15.2892C15.4242 27.4685 15.7146 25.0791 16.1615 22.6641ZM51.7145 30.5641C51.7026 30.596 51.6922 30.6283 51.6831 30.6614C51.6108 30.8758 51.4998 31.0777 51.3487 31.2536C51.0098 31.6483 50.5172 31.8747 49.997 31.8747H30.003C29.4827 31.8747 28.9901 31.6483 28.6512 31.2535C28.5001 31.0775 28.389 30.8755 28.3168 30.661C28.3077 30.628 28.2973 30.5958 28.2855 30.5641C28.2202 30.326 28.2035 30.0739 28.2419 29.8235L28.7133 26.7461C28.8476 25.8702 29.5882 25.2343 30.4744 25.2343H49.5256C50.4118 25.2343 51.1525 25.8701 51.2867 26.7461L51.7581 29.8233C51.7965 30.0738 51.78 30.3257 51.7145 30.5641ZM15.2015 32.4216C15.2021 32.3291 15.2056 32.2353 15.2067 32.1425H26.4241C26.5526 32.3667 26.7016 32.5808 26.8729 32.7803C27.6576 33.6944 28.7985 34.2186 30.0032 34.2186H49.9972C51.2017 34.2186 52.3426 33.6946 53.1272 32.7805C53.2984 32.581 53.4475 32.3669 53.5761 32.1425H64.7941C64.7954 32.2364 64.799 32.3317 64.7998 32.4255C64.8073 33.3641 64.4479 34.2472 63.7884 34.9121C63.1321 35.5731 62.2581 35.9374 61.3268 35.9374H18.674C17.7448 35.9374 16.8723 35.5742 16.2173 34.9149C15.5561 34.2492 15.1953 33.3638 15.2015 32.4216ZM61.7968 38.2811V42.4898C61.7968 43.0123 61.3717 43.4373 60.8493 43.4373H54.6195C54.097 43.4373 53.672 43.0122 53.672 42.4898V41.1717V38.2811H61.327H61.7968ZM30.7147 42.3436C32.2593 42.3436 33.5157 41.087 33.5157 39.5427V38.2811H46.4844V39.5427C46.4844 41.0872 47.7408 42.3436 49.2853 42.3436H51.3281V42.4898C51.3281 42.8192 51.3781 43.137 51.4686 43.4373H28.5315C28.6219 43.137 28.6719 42.8192 28.6719 42.4898V42.3436H30.7147ZM28.6719 39.9998V38.2811H31.1719V39.5427C31.1719 39.7948 30.9668 39.9998 30.7147 39.9998H28.6719ZM48.8281 39.5427V38.2811H51.3281V39.9998H49.2853C49.0333 39.9998 48.8281 39.7947 48.8281 39.5427ZM26.3282 38.2811V41.1717V42.4898C26.3282 43.0123 25.903 43.4373 25.3807 43.4373H19.1509C18.6284 43.4373 18.2032 43.0122 18.2032 42.4898V38.2811H18.674H26.3282ZM15.8595 52.7537C15.8595 53.1306 15.5529 53.4373 15.1759 53.4373H12.1679C11.7911 53.4373 11.4845 53.1307 11.4845 52.7537V51.0936H15.8595V52.7537ZM39.8438 69.0622C38.5083 69.0622 37.4219 67.9758 37.4219 66.6404C37.4219 65.3049 38.5083 64.2185 39.8438 64.2185C41.1792 64.2185 42.2656 65.3049 42.2656 66.6404C42.2656 67.9758 41.1792 69.0622 39.8438 69.0622ZM68.5155 52.7537C68.5155 53.1306 68.2088 53.4373 67.8319 53.4373H64.8241C64.4473 53.4373 64.1405 53.1307 64.1405 52.7537V51.0936H68.5155V52.7537ZM71.953 47.2665C71.953 48.0843 71.2875 48.7498 70.4697 48.7498H28.2032C27.556 48.7498 27.0313 49.2745 27.0313 49.9217C27.0313 50.5689 27.556 51.0936 28.2032 51.0936H61.7968V52.7537C61.7968 53.6237 62.1677 54.4068 62.7573 54.9595L43.6259 63.7457C42.7541 62.6093 41.3834 61.8746 39.8438 61.8746C38.3421 61.8746 37.0013 62.5735 36.1272 63.6623L17.2398 54.9623C17.831 54.4095 18.2034 53.6251 18.2034 52.7537V51.0936H23.5159C24.163 51.0936 24.6877 50.5689 24.6877 49.9217C24.6877 49.2745 24.163 48.7498 23.5159 48.7498H9.53029C8.71248 48.7498 8.04702 48.0845 8.04702 47.2665V45.902C8.04702 45.8353 8.10139 45.7811 8.16796 45.7811H71.8321C71.8988 45.7811 71.953 45.8354 71.953 45.902V47.2665Z" fill="white"/>
<path d="M33.9063 27.3438H31.7188C31.0716 27.3438 30.5469 27.8684 30.5469 28.5156C30.5469 29.1628 31.0716 29.6875 31.7188 29.6875H33.9063C34.5535 29.6875 35.0782 29.1628 35.0782 28.5156C35.0782 27.8684 34.5535 27.3438 33.9063 27.3438Z" fill="white"/>
<path d="M48.75 27.3438H37.6563C37.0091 27.3438 36.4844 27.8684 36.4844 28.5156C36.4844 29.1628 37.0091 29.6875 37.6563 29.6875H48.75C49.3973 29.6875 49.9219 29.1628 49.9219 28.5156C49.9219 27.8684 49.3973 27.3438 48.75 27.3438Z" fill="white"/>
<path d="M27.1876 7.96857C26.7992 7.45076 26.0646 7.34591 25.547 7.73419L23.047 9.60918C22.5293 9.99746 22.4243 10.7321 22.8126 11.2498C23.0429 11.5568 23.3948 11.7185 23.751 11.7185C23.9957 11.7185 24.2424 11.6421 24.4532 11.4842L26.9532 9.60918C27.4709 9.2209 27.5759 8.48622 27.1876 7.96857Z" fill="white"/>
<path d="M32.275 8.99726C31.8938 8.4743 31.161 8.3593 30.6377 8.7407L23.1377 14.2094C22.6148 14.5907 22.4999 15.3238 22.8813 15.8468C23.1107 16.1615 23.4674 16.3283 23.8291 16.3283C24.0685 16.3283 24.3102 16.2552 24.5187 16.1033L32.0186 10.6346C32.5416 10.2534 32.6564 9.52023 32.275 8.99726Z" fill="white"/>
</svg>
