<svg width="36" height="37" viewBox="0 0 36 37" fill="none" xmlns="http://www.w3.org/2000/svg">
<path d="M36 0H0V35.99H36V0Z" fill="#7A7A7A"/>
<path d="M29.3854 11.1877L29.3783 11.1588C28.8032 8.79525 26.2107 6.25905 23.8298 5.73141L23.8029 5.72578C19.952 4.9789 16.0473 4.9789 12.1971 5.72578L12.1695 5.73141C9.7894 6.25905 7.19682 8.79525 6.62095 11.1588L6.61463 11.1877C5.90368 14.4885 5.90368 17.8358 6.61463 21.1366L6.62095 21.1655C7.17225 23.4282 9.57177 25.8478 11.8638 26.5133V29.1516C11.8638 30.1065 13.0084 30.5756 13.6593 29.8865L16.2886 27.1078C16.8589 27.1403 17.4295 27.1583 18 27.1583C19.9385 27.1583 21.8778 26.972 23.8029 26.5986L23.8298 26.593C26.2107 26.0653 28.8032 23.5291 29.3783 21.1656L29.3854 21.1367C30.0964 17.8358 30.0964 14.4885 29.3854 11.1877ZM27.3047 20.6579C26.9208 22.1999 24.9523 24.1169 23.3882 24.4711C21.3406 24.8669 19.2768 25.0361 17.2151 24.9781C17.1741 24.9769 17.1346 24.9931 17.1061 25.023C16.8135 25.3283 15.1863 27.0266 15.1863 27.0266L13.1443 29.1572C12.995 29.3154 12.7327 29.2078 12.7327 28.9893V24.6187C12.7327 24.5465 12.682 24.4851 12.6122 24.4712C12.6119 24.4712 12.6115 24.4711 12.6111 24.471C11.047 24.1168 9.07924 22.1998 8.69454 20.6578C8.05469 17.6743 8.05469 14.6498 8.69454 11.6663C9.07924 10.1243 11.047 8.2073 12.6111 7.85313C16.1871 7.16166 19.8129 7.16166 23.3882 7.85313C24.9531 8.2073 26.9208 10.1243 27.3047 11.6663C27.9453 14.6499 27.9453 17.6744 27.3047 20.6579Z" fill="white"/>
<path d="M21.4025 22.6755C21.162 22.6013 20.9328 22.5514 20.72 22.4616C18.5148 21.5315 16.4853 20.3315 14.8777 18.4919C13.9635 17.4459 13.248 16.2649 12.6431 15.0151C12.3563 14.4224 12.1146 13.8065 11.8682 13.1947C11.6435 12.6367 11.9744 12.0602 12.3229 11.6398C12.6498 11.2452 13.0706 10.9432 13.5262 10.7207C13.8818 10.547 14.2327 10.6471 14.4924 10.9536C15.0539 11.6162 15.5696 12.3126 15.9873 13.0806C16.2441 13.553 16.1736 14.1304 15.7082 14.4519C15.5951 14.5301 15.492 14.6218 15.3866 14.71C15.2942 14.7874 15.2072 14.8655 15.1438 14.9702C15.028 15.1619 15.0225 15.3879 15.0971 15.5962C15.6711 17.1998 16.6385 18.4468 18.2261 19.1184C18.4802 19.2259 18.7353 19.351 19.028 19.3163C19.5181 19.2581 19.6768 18.7115 20.0203 18.4259C20.356 18.1468 20.785 18.1432 21.1467 18.3758C21.5084 18.6086 21.859 18.8584 22.2076 19.1109C22.5497 19.3587 22.8903 19.6012 23.2059 19.8837C23.5093 20.1554 23.6138 20.5118 23.443 20.8805C23.1301 21.5558 22.675 22.1176 22.0184 22.4761C21.833 22.5773 21.6116 22.61 21.4025 22.6755C21.162 22.6012 21.6116 22.61 21.4025 22.6755Z" fill="white"/>
<path d="M18.006 9.94852C20.8905 10.0307 23.2596 11.9768 23.7673 14.8761C23.8538 15.37 23.8846 15.8751 23.923 16.3765C23.9392 16.5874 23.8218 16.7878 23.5979 16.7905C23.3667 16.7933 23.2626 16.5966 23.2476 16.3858C23.2179 15.9685 23.1973 15.5494 23.1408 15.1355C22.8422 12.951 21.1288 11.1437 18.99 10.7559C18.6682 10.6975 18.3388 10.6822 18.0128 10.6474C17.8067 10.6254 17.5368 10.6127 17.4911 10.3522C17.4528 10.1339 17.6341 9.96 17.8386 9.94884C17.8942 9.94571 17.9501 9.94827 18.006 9.94852C20.8905 10.0307 17.9501 9.94827 18.006 9.94852Z" fill="white"/>
<path d="M22.3896 15.7257C22.3849 15.7623 22.3824 15.8484 22.3613 15.9296C22.2847 16.224 21.8457 16.2608 21.7446 15.9637C21.7146 15.8755 21.7101 15.7752 21.71 15.6803C21.7089 15.0591 21.5762 14.4387 21.2681 13.8983C20.9514 13.3428 20.4676 12.8759 19.9001 12.5934C19.5569 12.4225 19.1858 12.3164 18.8097 12.2531C18.6453 12.2255 18.4792 12.2087 18.314 12.1853C18.1138 12.157 18.007 12.0273 18.0164 11.8268C18.0253 11.6389 18.1604 11.5037 18.3618 11.5153C19.0238 11.5535 19.6632 11.6989 20.2517 12.0158C21.4484 12.6601 22.132 13.6772 22.3316 15.0352C22.3406 15.0967 22.3551 15.1577 22.3597 15.2194C22.371 15.372 22.3781 15.5246 22.3896 15.7257C22.3849 15.7623 22.3781 15.5246 22.3896 15.7257Z" fill="white"/>
<path d="M20.5955 15.6547C20.3541 15.6592 20.225 15.5233 20.2001 15.2984C20.1828 15.1415 20.1691 14.9826 20.1323 14.83C20.0598 14.5295 19.9027 14.251 19.654 14.0668C19.5366 13.9799 19.4036 13.9165 19.2642 13.8756C19.0872 13.8237 18.9034 13.8379 18.7268 13.7939C18.535 13.7462 18.4289 13.5883 18.4591 13.4053C18.4865 13.2388 18.6458 13.1089 18.8247 13.1221C19.943 13.2041 20.7423 13.7919 20.8564 15.1304C20.8644 15.2248 20.8739 15.3247 20.8533 15.415C20.818 15.5697 20.7053 15.6472 20.5955 15.6547C20.3541 15.6592 20.7053 15.6472 20.5955 15.6547Z" fill="white"/>
</svg>
