<svg width="40" height="40" viewBox="0 0 40 40" fill="none" xmlns="http://www.w3.org/2000/svg">
<circle cx="20" cy="20" r="20" fill="#498DD8"/>
<path d="M29.6479 12.0684L20.8479 8.17869C20.5799 8.06072 20.2925 8 20.0023 8C19.7121 8 19.4247 8.06072 19.1567 8.17869L10.3567 12.0684C9.53625 12.4282 9 13.279 9 14.2223C9 23.8735 14.2479 30.5443 19.1521 32.7128C19.6929 32.9511 20.3025 32.9511 20.8433 32.7128C24.7712 30.9771 31 24.9821 31 14.2223C31 13.279 30.4638 12.4282 29.6479 12.0684ZM20.0046 29.6983L20 11.1737L28.0621 14.7377C27.9108 22.0989 24.2992 27.4326 20.0046 29.6983Z" fill="white"/>
</svg>
