<svg width="80" height="80" viewBox="0 0 80 80" fill="none" xmlns="http://www.w3.org/2000/svg">
<path d="M23.2271 49.8116C18.5559 47.1018 12.4068 47.1043 7.7432 49.8091C5.38558 51.165 3.42301 53.1263 2.07094 55.4814C0.716356 57.8169 0 60.494 0 63.2258C0 65.9577 0.716356 68.6347 2.06842 70.9652C3.42427 73.3241 5.38684 75.2867 7.74067 76.6388C10.0762 77.9933 12.7533 78.7097 15.4839 78.7097C18.2145 78.7097 20.8915 77.9933 23.2245 76.6413C25.5822 75.2854 27.5447 73.3241 28.8968 70.969C30.2514 68.6347 30.9677 65.9577 30.9677 63.2258C30.9677 60.494 30.2514 57.8169 28.8993 55.4864C27.5435 53.1275 25.5809 51.165 23.2271 49.8116ZM23.0116 73.6876L21.7629 71.5228L19.5275 72.8131L20.7743 74.9742C19.5098 75.5356 18.1571 75.8827 16.7742 76.0169V73.5484H14.1935V76.0156C12.8119 75.8827 11.4592 75.5356 10.1934 74.9729L11.4403 72.8119L9.20489 71.5216L7.95615 73.6864C6.8246 72.8749 5.83606 71.8851 5.02205 70.7523L7.18687 69.5035L5.89655 67.2682L3.73173 68.5175C3.1628 67.2556 2.80368 65.9073 2.66444 64.5161H5.16129V61.9355H2.66444C2.80242 60.5456 3.1628 59.1973 3.73173 57.9329L5.89655 59.1822L7.18687 56.9468L5.02205 55.6981C5.8348 54.5665 6.82334 53.578 7.95615 52.764L9.20489 54.9288L11.4403 53.6385L10.1909 51.4737C11.4541 50.9048 12.8024 50.5456 14.1935 50.4064V52.9032H16.7742V50.4064C18.1641 50.5444 19.5123 50.9048 20.7768 51.4737L19.5275 53.6385L21.7629 54.9288L23.0116 52.764C24.1431 53.5755 25.1317 54.5653 25.9457 55.6981L23.7809 56.9468L25.0712 59.1822L27.236 57.9329C27.8049 59.1948 28.1641 60.5444 28.3033 61.9355H25.8064V64.5161H28.3033C28.1653 65.906 27.8049 67.2543 27.236 68.5188L25.0712 67.2694L23.7809 69.5048L25.9457 70.7535C25.1329 71.8851 24.1444 72.8749 23.0116 73.6876Z" fill="white"/>
<path d="M15.4839 56.7742C11.9267 56.7742 9.03226 59.6686 9.03226 63.2258C9.03226 66.783 11.9267 69.6774 15.4839 69.6774C19.0411 69.6774 21.9355 66.783 21.9355 63.2258C21.9355 59.6686 19.0411 56.7742 15.4839 56.7742ZM15.4839 67.0968C13.3499 67.0968 11.6129 65.3597 11.6129 63.2258C11.6129 61.0918 13.3499 59.3548 15.4839 59.3548C17.6178 59.3548 19.3548 61.0918 19.3548 63.2258C19.3548 65.3597 17.6178 67.0968 15.4839 67.0968Z" fill="white"/>
<path d="M14.1935 61.9354H16.7742V64.5161H14.1935V61.9354Z" fill="white"/>
<path d="M79.9546 39.884C79.925 39.5848 79.8784 39.2849 79.8192 38.9856L77.3677 26.7149C76.7017 23.3833 74.2414 20.7894 71.1265 19.8028C72.614 18.3908 73.5484 16.4012 73.5484 14.1935V9.03222C73.5484 6.97262 72.747 5.02831 71.2815 3.54709C69.8104 2.09169 67.8661 1.29028 65.8064 1.29028C61.5367 1.29028 58.0645 4.76244 58.0645 9.03222H54.1935V11.6129H58.0645V14.1935C58.0645 17.534 60.1947 20.378 63.1653 21.4617L51.48 33.147L39.6787 31.2607L35.1871 21.1485L41.5096 10.9381C44.2477 6.51206 48.9894 3.87093 54.1935 3.87093V1.29028C48.0903 1.29028 42.5277 4.38819 39.3164 9.57909L28.0966 27.6953L9.03226 9.63454C6.81578 7.52264 4.21182 6.45157 1.29032 6.45157H0V53.3499L2.23601 50.9431C5.69934 47.2139 10.4026 45.1613 15.4839 45.1613C16.6828 45.1613 17.8824 45.2784 19.0493 45.5109C25.746 46.8592 31.2015 51.9922 32.9473 58.595C33.3455 60.0787 33.5484 61.6374 33.5484 63.2258V67.0967H61.6526L60.8298 71.2235C60.8077 71.3249 60.746 71.41 60.6622 71.4516L57.076 73.2466C56.0944 73.7367 55.4839 74.7215 55.4839 75.819C55.4839 77.413 56.7805 78.7096 58.3745 78.7096H77.4193C78.8426 78.7096 80 77.5523 80 76.129V40.7743C80 40.4738 79.9855 40.1871 79.9546 39.884ZM63.7689 69.6774L64.3366 66.8346C65.2029 66.4157 65.8064 65.5292 65.8064 64.4777L65.4196 51.587C65.4196 50.0466 64.5357 48.7084 63.2258 48.0865V45.1316C64.6749 45.0838 66.1082 44.9546 67.5107 44.7461C68.9422 51.7408 69.6774 58.9138 69.6774 66.0906V69.6774H63.7689ZM70.0491 44.2836C72.5252 43.7663 74.9584 43.0141 77.2978 42.0092L77.4193 41.9575V69.6774H72.2581V66.0906C72.2581 58.7405 71.5058 51.3961 70.0491 44.2836ZM74.8387 27.2221L77.2373 39.2307L76.2777 39.6402C73.716 40.7409 71.0345 41.5354 68.2945 42.0092C66.5587 42.3292 64.7625 42.4848 62.9498 42.5352C62.8075 41.8775 62.6285 41.2273 62.374 40.5998C61.9846 39.6049 61.4453 38.6775 60.7768 37.8207L70.8077 27.7898C71.7301 26.8687 72.2581 25.596 72.2581 24.2968C72.2581 23.8917 72.1938 23.4992 72.0993 23.1161C73.4722 24.0618 74.4941 25.4996 74.8387 27.2221ZM60.6452 44.9288V47.4848L49.0323 45.373V42.5806H60.3264C60.458 43.0569 60.5494 43.5395 60.6011 44.0272C60.6351 44.3277 60.6452 44.6282 60.6452 44.9288ZM67.9977 22.0413C68.3625 22.1446 68.7034 22.3469 68.9844 22.6285C69.4323 23.0758 69.6774 23.6681 69.6774 24.2968C69.6774 24.9162 69.4248 25.5235 68.9844 25.9652L58.9623 35.9872C57.6682 34.9149 56.1757 34.1538 54.5483 33.7279L65.6489 22.6272C66.2532 22.023 67.1276 21.7666 67.9977 22.0413ZM65.8064 3.87093C67.1818 3.87093 68.4829 4.40772 69.4569 5.37169C70.4309 6.35707 70.9677 7.6581 70.9677 9.03222H60.6452C60.6452 6.1857 62.9599 3.87093 65.8064 3.87093ZM60.6452 14.1935V11.6129H70.9677V14.1935C70.9677 17.04 68.653 19.3548 65.8064 19.3548C62.9599 19.3548 60.6452 17.04 60.6452 14.1935ZM33.5408 23.8067L36.6375 30.7755L30.2734 29.7574L30.0101 29.5085L33.5408 23.8067ZM7.25428 11.5045L26.4415 29.6774H22.3664L17.6235 26.1189L5.00378 13.5005C4.31326 12.8131 3.4879 12.3021 2.58065 11.9821V9.12799C4.30318 9.38945 5.86946 10.1858 7.25428 11.5045ZM5.16129 27.7419C5.16129 27.9586 5.18334 28.1741 5.21421 28.3871H2.58065V14.8462C2.79234 14.9874 2.99458 15.1417 3.17792 15.3238L11.0786 23.2258H9.67742C7.18687 23.2258 5.16129 25.2514 5.16129 27.7419ZM9.67742 25.8064H13.6593L15.8619 28.009L18.0771 29.6774H9.67742C9.1652 29.6774 8.66431 29.472 8.30078 29.1072C8.25038 29.0581 8.19745 29.0001 8.12626 28.8993C7.87865 28.5717 7.74194 28.1602 7.74194 27.7419C7.74194 26.6746 8.61013 25.8064 9.67742 25.8064ZM2.58065 47.1125V30.9677H6.51714C7.36517 31.7975 8.48412 32.258 9.67742 32.258H20.6143C20.4738 35.894 19.7341 39.4348 18.4167 42.8118C17.4452 42.6751 16.4661 42.5806 15.4839 42.5806C10.7831 42.5806 6.22039 44.2049 2.58065 47.1125ZM20.9848 43.3228C22.316 39.7744 23.0582 36.0635 23.1949 32.258H29.5779L53.0362 36.0093C54.9704 36.3174 56.715 37.2259 58.0828 38.641C58.4967 39.0669 58.8621 39.5199 59.1753 40H46.4516V47.5289L61.7395 50.3068C62.3765 50.4051 62.839 50.9431 62.8402 51.6255L62.9933 56.7742H35.0901C32.9417 50.2608 27.5932 45.1613 20.9848 43.3228ZM35.7636 59.3548H63.0708L63.2258 64.5161H36.129V63.2258C36.129 61.9121 36.0037 60.6155 35.7636 59.3548ZM58.0645 75.819C58.0645 75.7081 58.1288 75.6054 58.2283 75.555L61.8158 73.7601C62.4439 73.445 62.919 72.9133 63.1861 72.258H68.0815L66.107 73.2466C65.1266 73.7367 64.5161 74.7215 64.5161 75.819V76.129H58.3745C58.1949 76.129 58.0645 75.9986 58.0645 75.819ZM67.0968 76.129V75.819C67.0968 75.7081 67.161 75.6054 67.2606 75.555L70.6659 73.8514C71.3395 73.515 71.8183 72.9366 72.0659 72.2593H77.4193V76.1303H67.0968V76.129Z" fill="white"/>
</svg>
