<svg width="13" height="13" viewBox="0 0 13 13" fill="none" xmlns="http://www.w3.org/2000/svg">
<path d="M6.03534 1.16945C6.20241 0.748952 6.79759 0.74895 6.96466 1.16945L8.30961 4.55435C8.38097 4.73394 8.54943 4.85633 8.74227 4.8687L12.3771 5.10183C12.8287 5.13079 13.0126 5.69683 12.6643 5.98567L9.86068 8.31079C9.71193 8.43415 9.64758 8.63218 9.69541 8.81941L10.5969 12.3484C10.7089 12.7868 10.2274 13.1366 9.84509 12.8946L6.7674 10.9467C6.60411 10.8434 6.39589 10.8434 6.2326 10.9467L3.15492 12.8946C2.77258 13.1366 2.29108 12.7868 2.40307 12.3484L3.30459 8.81941C3.35242 8.63218 3.28807 8.43415 3.13932 8.31079L0.335697 5.98567C-0.0125879 5.69683 0.171329 5.13079 0.622874 5.10183L4.25773 4.8687C4.45057 4.85633 4.61903 4.73394 4.69039 4.55436L6.03534 1.16945Z" fill="#F8D10B"/>
</svg>
