<svg width="45" height="45" viewBox="0 0 45 45" fill="none" xmlns="http://www.w3.org/2000/svg">
<path d="M22.5 45C34.9264 45 45 34.9264 45 22.5C45 10.0736 34.9264 0 22.5 0C10.0736 0 0 10.0736 0 22.5C0 34.9264 10.0736 45 22.5 45Z" fill="#003473"/>
<path d="M21.911 29.2714C23.8679 27.505 25.1028 24.9402 25.1028 22.0916C25.1028 19.2423 23.8675 16.6789 21.911 14.893C20.2011 13.3358 17.923 12.3857 15.4155 12.3857C10.06 12.3857 5.70923 16.7357 5.70923 22.0912C5.70923 27.4481 10.06 31.7783 15.4155 31.7783C17.923 31.7786 20.2011 30.8293 21.911 29.2714Z" fill="#009DDD"/>
<path d="M21.911 29.271C23.8679 27.5046 25.1028 24.9399 25.1028 22.0912C25.1028 19.2419 23.8675 16.6786 21.911 14.8926V29.271Z" fill="#009DDD"/>
<path d="M28.4269 12.3857C25.919 12.3857 23.6395 13.3358 21.9111 14.893C21.5697 15.2156 21.2472 15.5577 20.9423 15.9194H22.8984C23.1648 16.2412 23.4118 16.6029 23.6395 16.9443H20.2011C19.9929 17.2864 19.8028 17.6289 19.6312 17.9701H24.1902C24.343 18.3115 24.4939 18.6546 24.608 18.9961H19.2341C19.1196 19.3379 19.0244 19.6807 18.9487 20.0406H24.8933C25.0258 20.6865 25.1029 21.3896 25.1029 22.0916C25.1029 23.1553 24.931 24.2005 24.6081 25.169H19.2341C19.3471 25.5104 19.4803 25.8529 19.6317 26.1947H24.1907C24.0201 26.5368 23.8486 26.8974 23.6396 27.2204H20.2012C20.4303 27.5814 20.6766 27.9232 20.9423 28.2462H22.8984C22.595 28.6072 22.2717 28.9493 21.9111 29.2719C23.6396 30.8298 25.919 31.7791 28.4269 31.7791C33.783 31.7791 38.1139 27.449 38.1139 22.0921C38.1135 16.7358 33.783 12.3857 28.4269 12.3857Z" fill="#ED1C2E"/>
<path d="M34.7697 24.1807C34.7697 24.0094 34.9224 23.877 35.093 23.877C35.2642 23.877 35.3967 24.0095 35.3967 24.1807C35.3967 24.3523 35.2641 24.504 35.093 24.504C34.9224 24.504 34.7697 24.3523 34.7697 24.1807ZM35.093 24.4279C35.2255 24.4279 35.3206 24.3139 35.3206 24.1807C35.3206 24.0479 35.2254 23.9526 35.093 23.9526C34.9597 23.9526 34.8468 24.0479 34.8468 24.1807C34.8468 24.3139 34.9597 24.4279 35.093 24.4279ZM35.0549 24.3139H34.9792V24.0478H35.0929C35.1302 24.0478 35.1497 24.0478 35.1692 24.0669C35.188 24.0857 35.2065 24.1043 35.2065 24.1238C35.2065 24.1622 35.1877 24.2002 35.1496 24.2002L35.2065 24.3138H35.1302L35.0929 24.2186H35.0549V24.3139ZM35.0549 24.1622H35.0929C35.0929 24.1622 35.1117 24.1622 35.1302 24.1622C35.1302 24.1622 35.1302 24.1426 35.1302 24.1238V24.1043C35.1114 24.1043 35.0929 24.1043 35.0741 24.1043H35.0545V24.1622H35.0549Z" fill="white"/>
<path d="M14.1998 24.5042H12.9847L13.7062 20.7243L12.0542 24.5042H10.9515L10.7621 20.7431L10.0405 24.5042H8.93848L9.86964 19.585H11.7682L11.8631 22.6233L13.1944 19.585H15.1487L14.1998 24.5042Z" fill="white"/>
<path d="M27.6856 24.4473C27.3435 24.5415 27.0966 24.5794 26.8113 24.5794C26.2041 24.5794 25.8612 24.2757 25.8612 23.7065C25.8612 23.5921 25.8808 23.4777 25.8992 23.3448L25.9749 22.9459L26.0332 22.6425L26.5835 19.585H27.7797L27.6096 20.4959H28.2356L28.0651 21.4654H27.4384L27.1347 23.1363C27.1151 23.2124 27.0967 23.2695 27.0967 23.3072C27.0967 23.5165 27.2299 23.6106 27.5152 23.6106C27.6478 23.6106 27.7608 23.5918 27.8379 23.5729L27.6856 24.4473Z" fill="white"/>
<path d="M31.1995 20.5354C31.1043 20.4967 31.0859 20.4967 31.067 20.4967C31.0095 20.4771 30.9718 20.4771 30.9718 20.459C30.933 20.459 30.8954 20.459 30.8392 20.459C30.4395 20.459 30.1549 20.6299 29.7936 21.1042L29.9073 20.4967H28.8052L28.0648 24.5046H29.2805C29.7172 22.0535 29.8884 21.6172 30.4768 21.6172C30.5148 21.6172 30.5727 21.6363 30.6289 21.6363L30.7621 21.674L31.1995 20.5354Z" fill="white"/>
<path d="M22.8984 21.7681C22.8984 22.2623 23.1837 22.623 23.8295 22.8706C24.3238 23.0788 24.3998 23.1363 24.3998 23.3264C24.3998 23.573 24.1714 23.6874 23.6967 23.6874C23.3357 23.6874 22.9932 23.6303 22.5946 23.5169L22.4426 24.4477H22.5002L22.7084 24.5042C22.7841 24.5042 22.8977 24.5234 23.031 24.5234C23.3163 24.5607 23.5444 24.5607 23.7153 24.5607C24.9879 24.5607 25.5958 24.1429 25.5958 23.2316C25.5958 22.6805 25.3488 22.3579 24.7222 22.111C24.2088 21.9209 24.1523 21.864 24.1523 21.674C24.1523 21.4658 24.3612 21.3514 24.7601 21.3514C24.9878 21.3514 25.3293 21.371 25.6331 21.4079L25.8044 20.4966C25.4817 20.4405 25.0071 20.4209 24.7407 20.4209C23.3737 20.4202 22.8984 21.0277 22.8984 21.7681Z" fill="white"/>
<path d="M18.1124 24.5045H17.1243L17.1439 24.0859C16.8402 24.4092 16.4223 24.5609 15.8713 24.5609C15.2261 24.5609 14.7699 24.1243 14.7699 23.4784C14.7699 22.5092 15.5476 21.9397 16.8973 21.9397C17.0291 21.9397 17.2007 21.9397 17.3908 21.9593C17.4287 21.8264 17.4287 21.7688 17.4287 21.7123C17.4287 21.4465 17.2191 21.3513 16.6496 21.3513C16.3075 21.3513 15.9287 21.3893 15.6623 21.4465L15.4918 21.5037L15.3774 21.5222L15.5479 20.6298C16.1565 20.477 16.5359 20.4209 16.9925 20.4209C18.0362 20.4209 18.5685 20.8192 18.5685 21.5787C18.5685 21.788 18.5497 21.94 18.474 22.377L18.2271 23.8017L18.1891 24.0483L18.1504 24.258L18.1316 24.3901L18.1124 24.5045ZM17.2388 22.7185C17.1048 22.6997 17.0487 22.6997 16.973 22.6997C16.2887 22.6997 15.9473 22.9086 15.9473 23.3079C15.9473 23.5545 16.0986 23.7257 16.3644 23.7257C16.8593 23.7257 17.2196 23.3079 17.2388 22.7185Z" fill="white"/>
<path d="M22.0815 24.4087C21.6644 24.5227 21.2654 24.5792 20.8469 24.5792C19.5 24.5792 18.7959 23.9521 18.7959 22.7747C18.7959 21.4068 19.6891 20.4004 20.9048 20.4004C21.8921 20.4004 22.5203 20.9703 22.5203 21.8439C22.5203 22.1473 22.4815 22.4336 22.3871 22.8319H19.9736C19.9736 22.9076 19.9736 22.9264 19.9736 22.9651C19.9736 23.421 20.3157 23.6676 21.0186 23.6676C21.4555 23.6676 21.8542 23.5919 22.2716 23.4214L22.0815 24.4087ZM21.4363 22.035C21.4363 21.9587 21.4363 21.8823 21.4363 21.8258C21.4363 21.5031 21.2267 21.3124 20.8664 21.3124C20.4863 21.3124 20.2205 21.5781 20.1058 22.035H21.4363Z" fill="white"/>
<path d="M34.9597 22.6802C34.7697 24.0089 33.8392 24.598 32.6039 24.598C31.2563 24.598 30.7059 23.7819 30.7059 22.7563C30.7059 21.3505 31.6357 20.3809 33.0792 20.3809C34.333 20.3809 34.9977 21.1788 34.9977 22.1856C34.9981 22.434 34.9981 22.4525 34.9597 22.6802ZM33.7066 22.1668C33.7066 21.7491 33.5353 21.3703 33.0426 21.3703C32.4333 21.3703 32.0539 22.0912 32.0539 22.7374C32.0539 23.2696 32.3204 23.6302 32.7382 23.6302C33.004 23.6302 33.5739 23.2696 33.6687 22.6617C33.7066 22.509 33.7066 22.3388 33.7066 22.1668Z" fill="white"/>
</svg>
