<svg width="45" height="45" viewBox="0 0 45 45" fill="none" xmlns="http://www.w3.org/2000/svg">
<path d="M22.5 45C34.9264 45 45 34.9264 45 22.5C45 10.0736 34.9264 0 22.5 0C10.0736 0 0 10.0736 0 22.5C0 34.9264 10.0736 45 22.5 45Z" fill="#3C80AD"/>
<path d="M15.1443 11.5791C9.46669 11.615 4.86975 16.2442 4.86975 21.9421C4.86975 27.6624 9.5022 32.3044 15.2107 32.3044C17.8885 32.3044 20.3306 31.2815 22.1681 29.6044L22.1677 29.604H22.1691C22.5461 29.2605 22.8971 28.8888 23.2193 28.4941H21.1012C20.8181 28.152 20.5609 27.7945 20.33 27.4261H23.9833C24.2064 27.0702 24.4068 26.7004 24.5862 26.3173H19.7275C19.5616 25.9614 19.4177 25.5986 19.2951 25.2287H25.0186C25.3643 24.1956 25.5508 23.09 25.5508 21.9421C25.5508 21.1797 25.468 20.4378 25.3128 19.7223H18.9914C19.0703 19.3539 19.1686 18.9904 19.2859 18.6341H25.0123C24.8844 18.2539 24.7355 17.8841 24.5664 17.5245H19.7268C19.9013 17.1504 20.0991 16.7877 20.3198 16.4359H23.971C23.7276 16.0476 23.459 15.6767 23.1687 15.3271H21.133C21.4482 14.9551 21.7942 14.6052 22.1697 14.2809C20.3329 12.6029 17.8904 11.5794 15.2113 11.5794C15.188 11.5791 15.166 11.5791 15.1443 11.5791Z" fill="#931B1D"/>
<path d="M39.4217 21.9453C39.4228 27.6678 34.7957 32.308 29.0832 32.3097C23.3732 32.3115 18.7426 27.673 18.7408 21.9496V21.9453C18.739 16.2211 23.3676 11.5805 29.0787 11.5791C34.7894 11.577 39.4204 16.2158 39.4218 21.9396C39.4217 21.9396 39.4217 21.9422 39.4217 21.9453Z" fill="#F16622"/>
<path d="M39.4217 22.0599C39.4228 27.7826 34.7957 32.4236 29.0832 32.4247C23.3732 32.4268 18.7426 27.7877 18.7408 22.0652V22.0599C18.739 16.3368 23.3676 11.6958 29.0787 11.6943C34.7894 11.6922 39.4204 16.3311 39.4218 22.0545C39.4217 22.0546 39.4217 22.0578 39.4217 22.0599Z" fill="#F7981D"/>
<path d="M15.1443 11.6974C9.46669 11.7339 4.86975 16.3621 4.86975 22.0604C4.86975 27.781 9.5022 32.4233 15.2107 32.4233C17.8885 32.4233 20.3306 31.3998 22.1681 29.7229L22.1677 29.7219H22.1691C22.5461 29.3786 22.8971 29.0081 23.2193 28.612H21.1012C20.8181 28.2706 20.5609 27.9138 20.33 27.5454H23.9833C24.2064 27.1891 24.4068 26.8182 24.5862 26.4356H19.7275C19.5616 26.0792 19.4177 25.7165 19.2951 25.3474H25.0186C25.3643 24.3135 25.5508 23.2083 25.5508 22.0604C25.5508 21.2983 25.468 20.5561 25.3128 19.8409H18.9914C19.0703 19.4729 19.1686 19.1087 19.2859 18.7527H25.0123C24.8844 18.3723 24.7355 18.0023 24.5664 17.6425H19.7268C19.9013 17.2698 20.0991 16.9057 20.3198 16.5543H23.971C23.7276 16.1663 23.459 15.7957 23.1687 15.4447H21.133C21.4482 15.0735 21.7942 14.7235 22.1697 14.3985C20.3329 12.7208 17.8904 11.6973 15.2113 11.6973C15.188 11.6974 15.166 11.6974 15.1443 11.6974Z" fill="#CB2026"/>
<path d="M18.9287 24.6985L19.0669 23.7609C18.9916 23.7609 18.8807 23.7929 18.783 23.7929C18.4 23.7929 18.3573 23.5889 18.3822 23.438L18.6917 21.5241H19.274L19.4147 20.4863H18.8658L18.9777 19.8418H17.8764C17.8526 19.8659 17.2263 23.4703 17.2263 23.9083C17.2263 24.5581 17.5898 24.8476 18.1035 24.8433C18.5048 24.8396 18.8185 24.7284 18.9287 24.6985Z" fill="white"/>
<path d="M19.2778 22.9104C19.2778 24.4697 20.3042 24.8406 21.1793 24.8406C21.9872 24.8406 22.3421 24.6591 22.3421 24.6591L22.5365 23.5947C22.5365 23.5947 21.9222 23.8676 21.3673 23.8676C20.1853 23.8676 20.3924 22.9837 20.3924 22.9837H22.6303C22.6303 22.9837 22.7741 22.2682 22.7741 21.9769C22.7741 21.2503 22.4125 20.3643 21.2041 20.3643C20.0968 20.3645 19.2778 21.5593 19.2778 22.9104ZM21.2088 21.3518C21.8299 21.3518 21.7151 22.0517 21.7151 22.1082H20.4929C20.4925 22.0361 20.6081 21.3518 21.2088 21.3518Z" fill="white"/>
<path d="M28.1801 24.6984L28.3773 23.4944C28.3773 23.4944 27.8369 23.7673 27.4663 23.7673C26.6855 23.7673 26.3724 23.1683 26.3724 22.5273C26.3724 21.2242 27.0443 20.5072 27.7929 20.5072C28.3535 20.5072 28.804 20.8234 28.804 20.8234L28.9834 19.6552C28.9834 19.6552 28.3158 19.3838 27.7439 19.3838C26.4727 19.3838 25.2356 20.4877 25.2356 22.5646C25.2356 23.9395 25.9038 24.8493 27.2177 24.8493C27.5888 24.8495 28.1801 24.6984 28.1801 24.6984Z" fill="white"/>
<path d="M12.8734 20.3809C12.1185 20.3809 11.5397 20.6235 11.5397 20.6235L11.3802 21.5743C11.3802 21.5743 11.8583 21.3803 12.5799 21.3803C12.9899 21.3803 13.2894 21.4261 13.2894 21.7605C13.2894 21.963 13.2528 22.0379 13.2528 22.0379C13.2528 22.0379 12.9299 22.0106 12.78 22.0106C11.8282 22.0106 10.8278 22.4177 10.8278 23.6462C10.8278 24.6133 11.4836 24.8356 11.8904 24.8356C12.6674 24.8356 13.0013 24.3308 13.0198 24.3286L12.9836 24.7507H13.9528L14.3855 21.7113C14.3855 20.4224 13.2631 20.3809 12.8734 20.3809ZM13.1097 22.8543C13.1306 23.0401 12.9932 23.9105 12.3302 23.9105C11.9884 23.9105 11.8993 23.6483 11.8993 23.4934C11.8993 23.1917 12.063 22.829 12.8702 22.829C13.0574 22.829 13.0777 22.8496 13.1097 22.8543Z" fill="white"/>
<path d="M15.4159 24.8133C15.6636 24.8133 17.0812 24.8769 17.0812 23.411C17.0812 22.0403 15.7692 22.3107 15.7692 21.76C15.7692 21.4869 15.9831 21.3994 16.3738 21.3994C16.529 21.3994 17.1263 21.4495 17.1263 21.4495L17.2655 20.4747C17.2655 20.4747 16.879 20.3887 16.2502 20.3887C15.4348 20.3887 14.6088 20.7134 14.6088 21.8286C14.6088 23.093 15.9872 22.9651 15.9872 23.4973C15.9872 23.8526 15.6018 23.8817 15.3048 23.8817C14.7918 23.8817 14.3295 23.7051 14.3274 23.7133L14.1807 24.6771C14.2063 24.6862 14.4919 24.8133 15.4159 24.8133Z" fill="white"/>
<path d="M37.2996 19.5063L37.0626 20.9828C37.0626 20.9828 36.648 20.4098 35.9997 20.4098C34.9904 20.4098 34.1498 21.6284 34.1498 23.0293C34.1498 23.9335 34.5977 24.8185 35.5151 24.8185C36.1748 24.8185 36.5397 24.3577 36.5397 24.3577L36.4918 24.751H37.5626L38.4042 19.5039L37.2996 19.5063ZM36.7887 22.3866C36.7887 22.9689 36.5002 23.7465 35.9037 23.7465C35.5072 23.7465 35.3221 23.4132 35.3221 22.8903C35.3221 22.0354 35.7051 21.4698 36.1882 21.4698C36.5851 21.4699 36.7887 21.7435 36.7887 22.3866Z" fill="white"/>
<path d="M6.91145 24.7557L7.58255 20.7943L7.68025 24.7557H8.43908L9.8541 20.7943L9.22706 24.7557H10.354L11.2227 19.5029H9.47943L8.39407 22.7253L8.33758 19.5029H6.73133L5.85059 24.7557H6.91145Z" fill="white"/>
<path d="M23.8752 24.7638C24.1956 22.938 24.255 21.4547 25.0203 21.7251C25.1542 21.0188 25.2832 20.7456 25.4288 20.4462C25.4288 20.4462 25.3607 20.4316 25.2163 20.4316C24.7243 20.4316 24.3587 21.1066 24.3587 21.1066L24.456 20.487H23.4306L22.7446 24.7638H23.8752Z" fill="white"/>
<path d="M30.7202 20.3809C29.9653 20.3809 29.3869 20.6235 29.3869 20.6235L29.2277 21.5743C29.2277 21.5743 29.7048 21.3803 30.4271 21.3803C30.8367 21.3803 31.137 21.4261 31.137 21.7605C31.137 21.963 31.1 22.0379 31.1 22.0379C31.1 22.0379 30.7771 22.0106 30.626 22.0106C29.6739 22.0106 28.6746 22.4177 28.6746 23.6462C28.6746 24.6133 29.3307 24.8356 29.7372 24.8356C30.5142 24.8356 30.8485 24.3308 30.8663 24.3286L30.8304 24.7507H31.8003L32.2327 21.7113C32.233 20.4224 31.111 20.3809 30.7202 20.3809ZM30.9568 22.8543C30.9778 23.0401 30.841 23.9105 30.177 23.9105C29.8356 23.9105 29.7471 23.6483 29.7471 23.4934C29.7471 23.1917 29.9109 22.829 30.7166 22.829C30.905 22.829 30.9246 22.8496 30.9568 22.8543Z" fill="white"/>
<path d="M33.1179 24.7638C33.4387 22.938 33.4981 21.4547 34.2633 21.7251C34.3973 21.0188 34.5262 20.7456 34.6726 20.4462C34.6726 20.4462 34.6033 20.4316 34.4598 20.4316C33.9664 20.4316 33.6019 21.1066 33.6019 21.1066L33.6999 20.487H32.6739L31.9875 24.7635H33.118L33.1179 24.7638Z" fill="white"/>
</svg>
