<svg width="50" height="50" viewBox="0 0 50 50" fill="none" xmlns="http://www.w3.org/2000/svg">
<path d="M31.1035 21.6311H25.3418V15.0881C25.3418 14.8733 25.166 14.6975 24.9512 14.6975H22.0215C21.8066 14.6975 21.6309 14.8733 21.6309 15.0881V21.6311H15.8691C15.6543 21.6311 15.4785 21.8069 15.4785 22.0217V24.9514C15.4785 25.1663 15.6543 25.342 15.8691 25.342H21.6309V31.885C21.6309 32.0999 21.8066 32.2756 22.0215 32.2756H24.9512C25.166 32.2756 25.3418 32.0999 25.3418 31.885V25.342H31.1035C31.3184 25.342 31.4941 25.1663 31.4941 24.9514V22.0217C31.4941 21.8069 31.3184 21.6311 31.1035 21.6311ZM44.9707 42.3342L37.8418 35.2053C43.8037 27.9348 43.3887 17.1633 36.5723 10.3518C29.3457 3.12036 17.6074 3.12036 10.3516 10.3518C3.12012 17.6077 3.12012 29.3459 10.3516 36.5725C17.1631 43.3889 27.9346 43.804 35.2051 37.842L42.334 44.9709C42.4902 45.1077 42.7393 45.1077 42.8711 44.9709L44.9707 42.8713C45.1074 42.7395 45.1074 42.4905 44.9707 42.3342ZM33.9844 33.9846C28.1836 39.7805 18.7891 39.7805 12.9883 33.9846C7.19238 28.1838 7.19238 18.7893 12.9883 12.9885C18.7891 7.19263 28.1836 7.19263 33.9844 12.9885C39.7803 18.7893 39.7803 28.1838 33.9844 33.9846Z" fill="white"/>
</svg>
