<svg width="60" height="60" viewBox="0 0 60 60" fill="none" xmlns="http://www.w3.org/2000/svg">
<path d="M28.7998 5C23.8553 5 19.0218 6.46622 14.9106 9.21326C10.7993 11.9603 7.59502 15.8648 5.70283 20.4329C3.81064 25.0011 3.31555 30.0277 4.28018 34.8773C5.24481 39.7268 7.62583 44.1814 11.1221 47.6777C14.6185 51.174 19.073 53.555 23.9226 54.5196C28.7721 55.4843 33.7987 54.9892 38.3669 53.097C42.9351 51.2048 46.8395 48.0005 49.5866 43.8893C52.3336 39.778 53.7998 34.9445 53.7998 30C53.7998 26.717 53.1532 23.4661 51.8968 20.4329C50.6404 17.3998 48.799 14.6438 46.4775 12.3223C44.156 10.0009 41.4 8.15938 38.3669 6.90301C35.3338 5.64664 32.0829 5 28.7998 5ZM35.5748 33.225C35.8091 33.4574 35.9951 33.7339 36.122 34.0386C36.249 34.3432 36.3143 34.67 36.3143 35C36.3143 35.33 36.249 35.6568 36.122 35.9614C35.9951 36.2661 35.8091 36.5426 35.5748 36.775C35.3424 37.0093 35.0659 37.1953 34.7613 37.3222C34.4566 37.4492 34.1298 37.5145 33.7998 37.5145C33.4698 37.5145 33.143 37.4492 32.8384 37.3222C32.5337 37.1953 32.2572 37.0093 32.0248 36.775L28.7998 33.525L25.5748 36.775C25.3424 37.0093 25.0659 37.1953 24.7613 37.3222C24.4566 37.4492 24.1298 37.5145 23.7998 37.5145C23.4698 37.5145 23.143 37.4492 22.8384 37.3222C22.5337 37.1953 22.2572 37.0093 22.0248 36.775C21.7905 36.5426 21.6045 36.2661 21.4776 35.9614C21.3507 35.6568 21.2853 35.33 21.2853 35C21.2853 34.67 21.3507 34.3432 21.4776 34.0386C21.6045 33.7339 21.7905 33.4574 22.0248 33.225L25.2748 30L22.0248 26.775C21.5541 26.3042 21.2896 25.6658 21.2896 25C21.2896 24.3342 21.5541 23.6958 22.0248 23.225C22.4956 22.7542 23.1341 22.4898 23.7998 22.4898C24.4656 22.4898 25.1041 22.7542 25.5748 23.225L28.7998 26.475L32.0248 23.225C32.4956 22.7542 33.1341 22.4898 33.7998 22.4898C34.4656 22.4898 35.1041 22.7542 35.5748 23.225C36.0456 23.6958 36.31 24.3342 36.31 25C36.31 25.6658 36.0456 26.3042 35.5748 26.775L32.3248 30L35.5748 33.225Z" fill="#EDEDED"/>
</svg>
