<svg width="30" height="30" viewBox="0 0 30 30" fill="none" xmlns="http://www.w3.org/2000/svg">
<path fill-rule="evenodd" clip-rule="evenodd" d="M15 30C15 30 26.25 19.3388 26.25 11.25C26.25 8.26631 25.0647 5.40483 22.955 3.29505C20.8452 1.18526 17.9837 0 15 0C12.0163 0 9.15483 1.18526 7.04505 3.29505C4.93526 5.40483 3.75 8.26631 3.75 11.25C3.75 19.3388 15 30 15 30ZM15 16.875C16.4918 16.875 17.9226 16.2824 18.9775 15.2275C20.0324 14.1726 20.625 12.7418 20.625 11.25C20.625 9.75816 20.0324 8.32742 18.9775 7.27252C17.9226 6.21763 16.4918 5.625 15 5.625C13.5082 5.625 12.0774 6.21763 11.0225 7.27252C9.96763 8.32742 9.375 9.75816 9.375 11.25C9.375 12.7418 9.96763 14.1726 11.0225 15.2275C12.0774 16.2824 13.5082 16.875 15 16.875Z" fill="#498DD8"/>
</svg>
