<svg width="45" height="45" viewBox="0 0 45 45" fill="none" xmlns="http://www.w3.org/2000/svg">
<path d="M19.6974 26.7158L27.0164 22.5005L19.6974 18.2852V26.7158Z" fill="#498DD8"/>
<path d="M22.5 0C10.0755 0 0 10.0755 0 22.5C0 34.9245 10.0755 45 22.5 45C34.9245 45 45 34.9245 45 22.5C45 10.0755 34.9245 0 22.5 0ZM36.5591 22.523C36.5591 22.523 36.5591 27.0861 35.9802 29.2865C35.6558 30.4908 34.7062 31.4405 33.5018 31.7646C31.3014 32.3438 22.5 32.3438 22.5 32.3438C22.5 32.3438 13.7216 32.3438 11.4982 31.7416C10.2938 31.4175 9.34422 30.4675 9.01978 29.2631C8.44059 27.0861 8.44059 22.5 8.44059 22.5C8.44059 22.5 8.44059 17.9372 9.01978 15.7369C9.34387 14.5325 10.3168 13.5595 11.4982 13.2354C13.6986 12.6562 22.5 12.6562 22.5 12.6562C22.5 12.6562 31.3014 12.6562 33.5018 13.2584C34.7062 13.5825 35.6558 14.5325 35.9802 15.7369C36.5824 17.9372 36.5591 22.523 36.5591 22.523Z" fill="#498DD8"/>
</svg>
