<svg width="41" height="41" viewBox="0 0 41 41" fill="none" xmlns="http://www.w3.org/2000/svg">
<circle cx="21" cy="21" r="20" fill="#498DD8"/>
<path d="M16.4976 32.2145C15.5214 32.1169 14.6429 31.7264 13.7643 31.2383C12.9833 30.7502 7.41905 25.2835 7.12619 24.7954C6.83333 24.2097 7.32143 23.1359 8.10238 22.8431L8.49286 22.6478L7.41905 21.4764C6.83333 20.8907 6.24762 20.2073 6.15 20.0121C5.95476 19.6216 5.95476 18.6454 6.15 18.255C6.24762 18.0597 6.44286 17.8645 6.63809 17.6693C6.83333 17.474 6.83333 17.3764 6.83333 16.7907C6.83333 16.3026 6.83333 16.1073 7.02857 15.7169C7.32143 15.1312 8.00476 14.8383 8.68809 14.8383C9.07857 14.8383 9.17619 14.8383 9.27381 14.5454C9.66428 13.8621 10.8357 13.5693 11.7143 14.0573L12.2024 14.2526L12.3976 14.0573C12.6905 13.7645 13.3738 13.4716 13.7643 13.4716C14.6429 13.4716 15.8143 14.4478 15.8143 15.1312C15.8143 15.9121 15.0333 16.1073 14.35 15.424C13.8619 14.9359 13.569 14.9359 13.3738 15.2288C13.2762 15.424 13.4714 15.7169 14.9357 17.0835C16.4 18.5478 16.5952 18.8407 16.5952 19.1335C16.5952 19.3288 16.4976 19.524 16.3024 19.7193C16.1071 19.9145 15.9119 19.9145 15.7167 19.9145C15.4238 19.9145 15.0333 19.524 13.0809 17.5716C11.031 15.5216 10.7381 15.2288 10.5429 15.3264C10.1524 15.6193 10.25 15.8145 12.5929 18.1573C13.8619 19.4264 14.9357 20.5978 14.9357 20.6954C14.9357 20.8907 14.7405 21.2812 14.5452 21.4764C14.6429 21.4764 14.4476 21.4764 14.35 21.4764C14.0571 21.4764 13.6667 21.0859 11.4214 18.8407C9.17619 16.5954 8.78571 16.205 8.59048 16.3026C8.10238 16.5954 8.29762 16.7907 10.8357 19.3288C12.2024 20.6954 13.3738 21.9645 13.4714 22.0621C13.569 22.2573 13.3738 22.7454 13.1786 22.8431C13.081 22.9407 12.8857 22.9407 12.6905 22.9407C12.3976 22.9407 12.1048 22.6478 10.25 20.7931C8.49286 19.0359 8.10238 18.6454 7.80952 18.6454C7.12619 18.7431 7.41905 19.0359 10.7381 22.355C13.569 25.1859 13.9595 25.674 13.9595 25.9669C13.9595 26.0645 13.9595 26.1621 13.8619 26.2597C13.7643 26.3573 13.7643 26.455 13.6667 26.5526C13.1786 26.9431 12.9833 26.8454 11.6167 25.5764C10.9333 24.9907 10.25 24.3073 10.0548 24.2097C9.7619 24.1121 8.98095 24.0145 8.78571 24.2097C8.68809 24.2097 9.95714 25.5764 11.519 27.0407C14.0571 29.5788 14.35 29.8716 15.1309 30.1645C15.8143 30.555 16.5952 30.6526 17.3762 30.6526C18.1571 30.6526 18.9381 30.4573 19.6214 30.1645C21.769 29.0907 22.9405 26.6502 22.3548 24.405C22.0619 23.2335 21.6714 22.7454 20.2071 21.1835C18.5476 19.4264 18.0595 18.9383 17.669 18.1573C17.1809 17.1812 16.9857 16.3026 16.9857 15.1312C16.9857 13.8621 17.0833 13.374 17.669 12.2026C18.1571 11.1288 19.2309 9.95735 20.3048 9.37163C22.4524 8.2002 25.1857 8.29782 27.2357 9.56687C27.6262 9.85973 29.0905 11.2264 30.8476 12.9835C33.4833 15.6193 33.8738 16.0097 33.8738 16.3026C33.8738 16.9859 33.2881 17.8645 32.6048 17.9621C32.3119 18.0597 32.4095 18.0597 33.4833 19.2312C34.1667 19.9145 34.7524 20.5978 34.85 20.7931C35.1429 21.574 35.0452 22.2573 34.4595 22.8431C34.2643 23.4288 34.1667 23.5264 34.1667 24.1121C34.1667 24.6978 34.069 24.8931 33.8738 25.1859C33.6786 25.4788 33.4833 25.674 33.1905 25.7716C32.8976 25.8693 32.6048 25.9669 32.3119 25.9669C31.9214 25.9669 31.8238 25.9669 31.6286 26.3573C31.1405 27.0407 29.969 27.3335 29.1881 26.8454L28.7976 26.6502L28.5048 26.9431C27.919 27.5288 26.8452 27.6264 26.1619 27.1383C25.5762 26.7478 25.0881 26.1621 25.0881 25.8693C25.0881 25.5764 25.4786 25.0883 25.7714 25.0883C26.0643 25.0883 26.3571 25.2835 26.7476 25.674C27.1381 26.0645 27.431 26.0645 27.5286 25.674C27.5286 25.4788 27.2357 25.0883 25.9667 23.8193C24.6 22.4526 24.3071 22.1597 24.3071 21.8669C24.3071 21.6716 24.3071 21.574 24.4048 21.4764C24.6 21.2812 24.9905 21.0859 25.1857 21.1835C25.2833 21.1835 26.4548 22.2573 27.7238 23.5264C28.9929 24.7954 30.0667 25.7716 30.1643 25.7716C30.4571 25.7716 30.6524 25.4788 30.4571 25.2835C30.3595 25.1859 29.3833 24.1121 28.1143 22.8431C26.2595 20.9883 25.869 20.5978 25.869 20.305C25.869 20.1097 25.869 20.0121 25.9667 19.8169C26.0643 19.6216 26.4548 19.4264 26.7476 19.4264C26.8452 19.4264 28.1143 20.5978 29.5786 22.0621C32.2143 24.6978 32.4095 24.7954 32.7024 24.405C32.8 24.2097 32.4095 23.8193 30.1643 21.574C27.8214 19.2312 27.5286 18.9383 27.5286 18.6454C27.5286 18.4502 27.6262 18.255 27.7238 18.0597C28.2119 17.5716 28.3095 17.6693 30.75 20.0121C32.9952 22.2573 33.1905 22.355 33.4833 21.9645C33.5809 21.7693 33.0929 21.2812 30.3595 18.5478C27.3333 15.5216 27.1381 15.2288 27.1381 14.9359C27.1381 14.4478 27.431 14.155 28.0167 14.155C28.1143 14.155 28.7976 14.7407 29.3833 15.3264C30.0667 16.0097 30.75 16.5954 30.9452 16.6931C31.3357 16.8883 31.8238 16.8883 32.019 16.7907C32.2143 16.6931 26.65 11.2264 25.9667 10.8359C25.3809 10.5431 24.6976 10.3478 24.0143 10.2502C23.3309 10.1526 22.6476 10.2502 21.9643 10.4454C21.2809 10.6407 20.6952 11.0312 20.2071 11.5193C19.719 12.0073 19.2309 12.5931 18.9381 13.1788C18.5476 13.9597 18.5476 14.155 18.45 15.1312C18.45 16.0097 18.45 16.3026 18.6452 16.8883C19.0357 17.8645 19.3286 18.3526 20.8905 19.9145C22.55 21.6716 22.9405 22.0621 23.3309 22.9407C24.5024 25.4788 24.0143 28.505 22.0619 30.4573C20.5976 31.824 18.5476 32.5073 16.4976 32.2145Z" fill="white"/>
</svg>
