<svg width="40" height="40" viewBox="0 0 40 40" fill="none" xmlns="http://www.w3.org/2000/svg">
<circle cx="20" cy="20" r="20" fill="#498DD8"/>
<g clip-path="url(#clip0)">
<path d="M28.903 20.9247C27.4063 20.9247 25.7804 20.5178 24.4262 19.2065C24.2079 18.9949 24.2057 18.6491 24.4217 18.4353C24.6367 18.2215 24.9897 18.2193 25.2091 18.4309C26.0922 19.2862 27.1468 19.6615 28.188 19.7738C28.1981 19.7389 28.2003 19.7018 28.217 19.6669C28.2259 19.6484 29.168 17.7415 28.2515 16.3942C28.0812 16.1444 28.1502 15.8051 28.4063 15.6382C28.6591 15.4724 29.0054 15.5367 29.1781 15.7898C30.187 17.2735 29.6603 19.0571 29.3674 19.7978C30.8452 19.7073 33.3041 18.84 33.3152 18.8433C33.5747 18.3273 33.7273 17.7633 33.7273 17.1818C33.7273 15.2487 32.255 13.6484 30.3518 13.3975C30.0957 11.5331 28.4609 10.0909 26.4887 10.0909C25.6623 10.0909 24.8806 10.3418 24.2224 10.8098C23.5219 9.70364 22.2746 9 20.9204 9C20.3246 9 19.7478 9.15055 19.2222 9.40582C19.2678 9.57055 19.25 10.4553 19.25 10.6364V13.3636C19.25 13.9658 19.7489 14.4545 20.3636 14.4545C20.9784 14.4545 21.4773 13.9658 21.4773 13.3636C21.4773 13.0625 21.7267 12.8182 22.0341 12.8182C22.3415 12.8182 22.5909 13.0625 22.5909 13.3636C22.5909 14.5658 21.5909 15.5455 20.3636 15.5455C19.6955 15.5455 19.1019 15.2487 18.6932 14.7916C18.2845 15.2487 17.6909 15.5455 17.0227 15.5455C15.7955 15.5455 14.7955 14.5658 14.7955 13.3636C14.7955 13.0625 15.0449 12.8182 15.3523 12.8182C15.6596 12.8182 15.9091 13.0625 15.9091 13.3636C15.9091 13.9658 16.408 14.4545 17.0227 14.4545C17.6375 14.4545 18.1364 13.9658 18.1364 13.3636V10.6364V9.71564C17.4849 9.26182 16.7143 9 15.9091 9C14.0237 9 12.4646 10.2895 12.0993 12.0371C11.5514 12.0065 10.9256 12.1636 10.2797 12.5247C9.25846 13.0975 8.23057 14.148 7.60582 15.5149C9.29298 15.4669 13.7241 15.5902 14.7554 18.1156C14.8689 18.3949 14.7308 18.7124 14.4458 18.8236C14.3778 18.8498 14.3077 18.8629 14.2386 18.8629C14.0181 18.8629 13.8087 18.7331 13.7219 18.5204C12.9602 16.656 8.92771 16.5131 7.22495 16.6233C7.08909 17.1447 7 17.6924 7 18.2727C7 21.0305 8.9678 23.1338 10.7942 23.9204C11.5125 24.2291 12.1784 24.324 12.7308 24.204C12.8711 24.6578 13.1294 25.0331 13.4479 25.3636H16.5005C16.3056 23.6793 16.7165 20.3542 19.6654 19.3909C19.9572 19.2982 20.2723 19.4509 20.3703 19.7356C20.4672 20.0215 20.3091 20.3302 20.0184 20.4262C17.7555 21.1647 17.6163 23.3804 17.6052 25.3636H18.6932C19.0005 25.3636 19.25 25.608 19.25 25.9091C19.25 26.2102 19.0005 26.4545 18.6932 26.4545H15.5371C16.0717 27.6098 17.349 29.1818 20.3636 29.1818C20.7668 29.1818 21.1398 29.0913 21.4773 28.9658V27.5073C21.4773 25.1215 23.4573 23.1818 25.8929 23.1818C26.2002 23.1818 26.4497 23.4262 26.4497 23.7273C26.4497 24.0284 26.2002 24.2727 25.8929 24.2727C24.072 24.2727 22.5909 25.7236 22.5909 27.5073V29.1818V32.4545C22.5909 32.7556 22.8404 33 23.1477 33H25.375C25.6824 33 25.9318 32.7556 25.9318 32.4545V27.9229C27.0822 27.5858 28.0132 26.7404 28.4475 25.6538C29.3072 25.9822 30.2461 25.9942 31.1526 25.6844C32.3152 25.2873 33.2429 24.3251 33.5736 23.1731C33.891 22.0647 33.6749 20.9345 33.0558 20.0171C32.3519 20.3225 30.7316 20.9247 28.903 20.9247Z" fill="white"/>
</g>
<defs>
<clipPath id="clip0">
<rect width="26.7273" height="24" fill="white" transform="translate(7 9)"/>
</clipPath>
</defs>
</svg>
