<svg width="24" height="24" viewBox="0 0 24 24" fill="none" xmlns="http://www.w3.org/2000/svg">
<path d="M17.7122 12.2932C17.6194 12.2003 17.5092 12.1265 17.3879 12.0762C17.2666 12.0259 17.1365 12 17.0052 12C16.8739 12 16.7438 12.0259 16.6225 12.0762C16.5012 12.1265 16.391 12.2003 16.2982 12.2932L14.7042 13.8872C13.9652 13.6672 12.5862 13.1672 11.7122 12.2932C10.8382 11.4192 10.3382 10.0402 10.1182 9.3012L11.7122 7.7072C11.8052 7.61441 11.8789 7.50421 11.9292 7.38289C11.9795 7.26158 12.0054 7.13153 12.0054 7.0002C12.0054 6.86887 11.9795 6.73882 11.9292 6.61751C11.8789 6.49619 11.8052 6.38599 11.7122 6.2932L7.71222 2.2932C7.61943 2.20026 7.50922 2.12652 7.38791 2.07621C7.26659 2.0259 7.13655 2 7.00522 2C6.87388 2 6.74384 2.0259 6.62252 2.07621C6.50121 2.12652 6.391 2.20026 6.29822 2.2932L3.58622 5.0052C3.20622 5.3852 2.99222 5.9072 3.00022 6.4402C3.02322 7.8642 3.40022 12.8102 7.29822 16.7082C11.1962 20.6062 16.1422 20.9822 17.5672 21.0062H17.5952C18.1232 21.0062 18.6222 20.7982 19.0002 20.4202L21.7122 17.7082C21.8052 17.6154 21.8789 17.5052 21.9292 17.3839C21.9795 17.2626 22.0054 17.1325 22.0054 17.0012C22.0054 16.8699 21.9795 16.7398 21.9292 16.6185C21.8789 16.4972 21.8052 16.387 21.7122 16.2942L17.7122 12.2932ZM17.5852 19.0052C16.3372 18.9842 12.0672 18.6492 8.71222 15.2932C5.34622 11.9272 5.02022 7.6422 5.00022 6.4192L7.00522 4.4142L9.59122 7.0002L8.29822 8.2932C8.18068 8.41065 8.09426 8.55554 8.04677 8.71477C7.99928 8.874 7.99222 9.04256 8.02622 9.2052C8.05022 9.3202 8.63722 12.0472 10.2972 13.7072C11.9572 15.3672 14.6842 15.9542 14.7992 15.9782C14.9618 16.0132 15.1305 16.0067 15.2899 15.9593C15.4492 15.9119 15.5941 15.8252 15.7112 15.7072L17.0052 14.4142L19.5912 17.0002L17.5852 19.0052Z" fill="#EDEDED"/>
</svg>
