<svg width="36" height="36" viewBox="0 0 36 36" fill="none" xmlns="http://www.w3.org/2000/svg">
<path d="M36 0H0V36H36V0Z" fill="#61A8DE"/>
<path d="M28.3465 7.94677L4.27289 17.328C3.49314 17.6319 3.54038 18.7508 4.34304 18.9878L10.4604 20.7943L12.7434 28.0385C12.9819 28.7952 13.9408 29.0246 14.4959 28.4578L17.6587 25.2284L23.8645 29.7835C24.6239 30.341 25.7055 29.9268 25.8984 29.0047L30.0085 9.3542C30.2098 8.39166 29.2628 7.58971 28.3465 7.94677ZM25.3283 12.3077L14.1463 22.196C14.0348 22.2946 13.9639 22.431 13.9473 22.5789L13.5168 26.406C13.5027 26.5308 13.328 26.5473 13.2908 26.4274L11.5195 20.7199C11.4384 20.4585 11.5441 20.1754 11.7766 20.0313L24.9815 11.8415C25.2851 11.653 25.596 12.071 25.3283 12.3077Z" fill="white"/>
</svg>
