<svg width="36" height="36" viewBox="0 0 36 36" fill="none" xmlns="http://www.w3.org/2000/svg">
<path d="M36 0H0V36H36V0Z" fill="#7A7A7A"/>
<path d="M5.41064 30.6031L7.17403 24.3401C6.04007 22.4137 5.44303 20.2218 5.44303 17.9702C5.44303 11.0373 11.0834 5.39694 18.0163 5.39694C24.9492 5.39694 30.5894 11.0373 30.5894 17.9702C30.5894 24.9031 24.9492 30.5434 18.0163 30.5434C15.856 30.5434 13.7407 29.9905 11.8694 28.9405L5.41064 30.6031ZM12.1996 26.653L12.5845 26.888C14.216 27.8841 16.0943 28.4106 18.0163 28.4106C23.7731 28.4106 28.4566 23.727 28.4566 17.9702C28.4566 12.2133 23.7731 7.52978 18.0163 7.52978C12.2594 7.52978 7.57587 12.2133 7.57587 17.9702C7.57587 19.9761 8.14597 21.924 9.2244 23.6033L9.48357 24.0069L8.46811 27.6136L12.1996 26.653Z" fill="white"/>
<path d="M14.4843 12.1182L13.6685 12.0737C13.4122 12.0597 13.1609 12.1454 12.9672 12.3136C12.5716 12.6571 11.9392 13.3211 11.745 14.1864C11.4553 15.4766 11.903 17.0565 13.0616 18.6364C14.2202 20.2163 16.3793 22.7441 20.1973 23.8237C21.4277 24.1716 22.3955 23.937 23.1422 23.4594C23.7337 23.0811 24.1413 22.4738 24.2883 21.7874L24.4185 21.179C24.4599 20.9856 24.3617 20.7894 24.1821 20.7066L21.4248 19.4356C21.2458 19.3532 21.0336 19.4053 20.9132 19.5613L19.8307 20.9646C19.749 21.0706 19.609 21.1126 19.4826 21.0682C18.7413 20.8077 16.2582 19.7677 14.8957 17.1432C14.8366 17.0294 14.8513 16.8912 14.9351 16.7942L15.9697 15.5974C16.0753 15.4752 16.102 15.3034 16.0385 15.1549L14.85 12.3742C14.7867 12.2262 14.6449 12.127 14.4843 12.1182Z" fill="white"/>
</svg>
