<svg width="80" height="80" viewBox="0 0 80 80" fill="none" xmlns="http://www.w3.org/2000/svg">
<path d="M38.6207 22.0688C28.7338 22.0688 20.6897 30.1123 20.6897 39.9999C20.6897 49.8875 28.7338 57.9309 38.6207 57.9309C48.5076 57.9309 56.5517 49.8875 56.5517 39.9999C56.5517 30.1123 48.5076 22.0688 38.6207 22.0688ZM38.6207 55.1723C30.2547 55.1723 23.4483 48.3659 23.4483 39.9999C23.4483 31.6339 30.2547 24.8275 38.6207 24.8275C46.9867 24.8275 53.7931 31.6339 53.7931 39.9999C53.7931 48.3659 46.9867 55.1723 38.6207 55.1723Z" fill="white"/>
<path d="M38.6207 33.1035C34.8181 33.1035 31.7242 36.1975 31.7242 40.0001C31.7242 43.8027 34.8181 46.8966 38.6207 46.8966C42.4233 46.8966 45.5173 43.8027 45.5173 40.0001C45.5173 36.1975 42.4233 33.1035 38.6207 33.1035ZM38.6207 44.138C36.339 44.138 34.4828 42.2818 34.4828 40.0001C34.4828 37.7183 36.339 35.8621 38.6207 35.8621C40.9024 35.8621 42.7586 37.7183 42.7586 40.0001C42.7586 42.2818 40.9024 44.138 38.6207 44.138Z" fill="white"/>
<path d="M40 27.5862H37.2414V30.3448H40V27.5862Z" fill="white"/>
<path d="M51.0345 35.8621H48.2758V38.6207H51.0345V35.8621Z" fill="white"/>
<path d="M28.9655 35.8621H26.2069V38.6207H28.9655V35.8621Z" fill="white"/>
<path d="M33.1034 48.2759H30.3448V51.0345H33.1034V48.2759Z" fill="white"/>
<path d="M46.8966 48.2759H44.1379V51.0345H46.8966V48.2759Z" fill="white"/>
<path d="M38.6207 60.6897C27.2117 60.6897 17.931 51.4083 17.931 40C17.931 28.5918 27.2117 19.3104 38.6207 19.3104C39.4867 19.3104 40.3583 19.3643 41.2083 19.4707L41.5503 16.7337C40.5872 16.613 39.6014 16.5518 38.6207 16.5518C25.691 16.5518 15.1724 27.0704 15.1724 40C15.1724 52.9297 25.691 63.4483 38.6207 63.4483C39.6014 63.4483 40.5872 63.3871 41.5503 63.2664L41.2083 60.5294C40.3583 60.6359 39.4867 60.6897 38.6207 60.6897Z" fill="white"/>
<path d="M60.1388 4.65181C59.5326 4.28008 58.7447 4.43353 58.3176 5.00129L57.376 6.25664C56.834 5.95491 56.2866 5.66646 55.7319 5.39198C55.6302 5.33302 55.5222 5.28991 55.4165 5.24026C50.2026 2.71922 44.4733 1.37939 38.6207 1.37939C17.3248 1.37939 0 18.7042 0 40.0001C0 61.296 17.3248 78.6208 38.6207 78.6208C53.0245 78.6208 65.9748 70.7861 72.7085 58.1218L74.0341 58.7285C74.22 58.8141 74.4153 58.8539 74.6066 58.8539C75.1184 58.8539 75.61 58.5677 75.8484 58.078C78.6031 52.4153 80 46.3329 80 40.0001C80 25.452 72.5755 12.2375 60.1388 4.65181ZM54.1159 7.67353C54.1488 7.6894 54.1817 7.70509 54.2145 7.72095C54.324 7.76974 54.4326 7.82267 54.5285 7.90078L55.5291 8.7194L50.4907 15.4375L48.1397 13.0859C47.7436 12.6885 47.7207 12.2266 47.7422 11.9868C47.7638 11.7463 47.8688 11.2965 48.3309 10.9766L52.8702 7.83353C53.241 7.57733 53.7066 7.52922 54.1159 7.67353ZM38.6207 75.8622C18.8457 75.8622 2.75862 59.7744 2.75862 40.0001C2.75862 20.2258 18.8457 4.13802 38.6207 4.13802C42.6791 4.13802 46.6753 4.82922 50.4566 6.14957L46.7603 8.70836C45.7488 9.40888 45.1048 10.5134 44.9945 11.7384C44.884 12.9641 45.3191 14.1663 46.1893 15.0365L48.819 17.6666L48.4333 18.1809C47.3045 19.6849 47.4567 21.8211 48.7862 23.1506L56.0976 30.4627C56.9409 31.306 58.1464 31.7099 59.325 31.5389C60.0402 31.4365 60.3514 31.9787 60.4269 32.1484C60.5024 32.3173 60.7031 32.9054 60.14 33.3741L59.1878 34.168C58.4186 34.8106 57.9391 35.713 57.8395 36.7104L56.7121 47.9873C56.5719 49.3791 57.225 50.7377 58.3781 51.5153C57.9343 52.1856 57.694 52.9704 57.694 53.7927C57.694 54.8979 58.125 55.9372 58.9062 56.7184L62.7478 60.5592C63.5586 61.3701 64.6121 61.7803 65.6707 61.7803C66.2636 61.7803 66.8529 61.636 67.4066 61.377C60.7145 70.4303 50.1721 75.8622 38.6207 75.8622ZM66.5652 58.6868C66.0116 59.1522 65.2102 59.1192 64.6983 58.6094L60.8567 54.7679C60.5953 54.5079 60.4526 54.1616 60.4526 53.7934C60.4526 53.4251 60.5953 53.0787 60.8567 52.8182L60.9388 52.7361L69.1538 56.4954L66.5652 58.6868ZM73.9359 55.6501L59.9071 49.2304C59.5945 49.017 59.4181 48.6446 59.4572 48.2641L60.5847 36.9858C60.6116 36.7116 60.7436 36.4639 60.955 36.2873L61.906 35.4934C63.2274 34.3935 63.6464 32.5987 62.9472 31.0282C62.2495 29.4577 60.6493 28.5666 58.9347 28.8091C58.6114 28.8542 58.2814 28.7444 58.0497 28.5134L50.7369 21.2006C50.3719 20.8356 50.3302 20.2496 50.6398 19.8368L59.7602 7.6756C60.5352 8.18233 61.2817 8.71905 62.0116 9.2725L55.505 17.9484C54.2766 19.5856 54.4409 21.9111 55.889 23.3572L57.3598 24.8287C58.2785 25.7441 59.5891 26.1865 60.8714 25.9978L63.4953 25.6234C66.1409 25.2496 68.7459 26.7878 69.6834 29.2911C70.6788 31.9434 69.616 34.8879 67.1566 36.2934L64.1541 38.0087C62.8678 38.7434 62.069 40.1199 62.069 41.601V43.6497C62.069 45.351 63.09 46.8596 64.67 47.492L75.4088 51.7873C74.9886 53.0946 74.4993 54.3834 73.9359 55.6501ZM77.0226 44.138C76.8447 45.8215 76.5467 47.4791 76.1509 49.1127L65.695 44.9308C65.1683 44.7199 64.8276 44.2168 64.8276 43.6497V41.601C64.8276 41.1073 65.0943 40.6487 65.5226 40.4035L68.525 38.6882C72.1659 36.6078 73.7391 32.2482 72.2669 28.3225C70.8767 24.6163 67.0203 22.3284 63.1047 22.8928L60.4807 23.2673C60.051 23.3239 59.6159 23.1832 59.3102 22.8773L57.8393 21.4058C57.3571 20.9242 57.3019 20.1491 57.7114 19.6035L64.1472 11.022C65.1195 11.8741 66.0486 12.7646 66.9226 13.6999L59.8059 19.6304L61.5731 21.7492L68.7365 15.7796C74.1855 22.5237 77.2414 30.9868 77.2414 40.0001C77.2414 40.462 77.2221 40.9204 77.2062 41.3794H67.5862V44.138H77.0226Z" fill="white"/>
<path d="M54.138 53.6846C52.6495 55.3723 50.908 56.7982 48.9642 57.9222L50.3462 60.3104C52.5485 59.0361 54.5206 57.4211 56.2069 55.5097L54.138 53.6846Z" fill="white"/>
</svg>
