<svg width="80" height="80" viewBox="0 0 80 80" fill="none" xmlns="http://www.w3.org/2000/svg">
<path d="M79.6093 37.7239L76.9427 35.0573C76.6927 34.8073 76.3537 34.6666 76 34.6666H72C71.2637 34.6666 70.6667 35.2636 70.6667 35.9999V42.6666H68V33.3333C68 32.5969 67.403 31.9999 66.6667 31.9999H58.0467L53.1133 24.5933C52.8652 24.2213 52.4472 23.9986 52 23.9999H44V21.3333H53.3333C54.0697 21.3333 54.6667 20.7363 54.6667 19.9999V14.6666C54.6667 13.9303 54.0697 13.3333 53.3333 13.3333H26.6667C25.9303 13.3333 25.3333 13.9303 25.3333 14.6666V19.9999C25.3333 20.7363 25.9303 21.3333 26.6667 21.3333H36V23.9999H28C27.5543 23.9999 27.138 24.2224 26.8907 24.5933L21.9533 31.9999H14.6667C13.9303 31.9999 13.3333 32.5969 13.3333 33.3333V41.3333H10.6667V33.3333C10.6667 32.5969 10.0697 31.9999 9.33333 31.9999H4C3.55433 31.9999 3.138 32.2224 2.89067 32.5933L0.224 36.5933C0.0783333 36.8126 0.0005 37.0699 0 37.3333V41.3333C0.0005 41.5966 0.0783333 41.8539 0.224 42.0733L2.66667 45.7333V57.3333C2.66667 58.0696 3.26367 58.6666 4 58.6666H9.33333C10.0697 58.6666 10.6667 58.0696 10.6667 57.3333V49.3333H13.3333V57.3333C13.3333 58.0696 13.9303 58.6666 14.6667 58.6666H21.9533L26.8867 66.0733C27.1348 66.4453 27.5528 66.6679 28 66.6666H66.6667C67.403 66.6666 68 66.0696 68 65.3333V53.3333H70.6667V62.6666C70.6667 63.4029 71.2637 63.9999 72 63.9999H76C76.3537 63.9999 76.6927 63.8593 76.9427 63.6093L79.6093 60.9426C79.8593 60.6926 80 60.3536 80 59.9999V38.6666C80 38.3129 79.8593 37.9739 79.6093 37.7239ZM8 42.6666V55.9999H5.33333V45.3333C5.33283 45.0699 5.255 44.8126 5.10933 44.5933L2.66667 40.9333V37.7333L4.71333 34.6666H8V42.6666ZM13.3333 46.6666H10.6667V43.9999H13.3333V46.6666ZM28 18.6666V15.9999H52V18.6666H28ZM41.3333 21.3333V23.9999H38.6667V21.3333H41.3333ZM60 63.9999H28.7133L23.78 56.5933C23.5318 56.2213 23.1138 55.9986 22.6667 55.9999H16V34.6666H22.6667C23.1123 34.6666 23.5287 34.4441 23.776 34.0733L28.7133 26.6666H51.2867L56.22 34.0733C56.4682 34.4453 56.8862 34.6679 57.3333 34.6666H60V63.9999ZM65.3333 43.9999V63.9999H62.6667V34.6666H65.3333V43.9999ZM70.6667 50.6666H68V45.3333H70.6667V50.6666ZM77.3333 59.4479L75.448 61.3333H73.3333V37.3333H75.448L77.3333 39.2186V59.4479Z" fill="white"/>
<path d="M51.6495 43.0989C51.3968 42.8234 51.0403 42.6667 50.6666 42.6667H44.3293L46.6346 32.2894C46.7943 31.5705 46.3411 30.8584 45.6223 30.6985C45.1973 30.604 44.753 30.723 44.432 31.0174L28.432 45.6841C27.8893 46.1817 27.8528 47.0252 28.3505 47.5679C28.6031 47.8434 28.9596 48.0001 29.3333 48.0001H35.6706L33.3653 58.3774C33.2056 59.0962 33.6588 59.8084 34.3776 59.9682C34.8026 60.0627 35.247 59.9437 35.568 59.6494L51.568 44.9827C52.1106 44.4851 52.1471 43.6416 51.6495 43.0989ZM36.8866 54.8227L38.6346 46.9561C38.7945 46.2372 38.3413 45.5249 37.6225 45.3652C37.5275 45.3441 37.4306 45.3334 37.3333 45.3334H32.7613L43.1133 35.844L41.3653 43.7107C41.2055 44.4296 41.6586 45.1419 42.3775 45.3016C42.4725 45.3227 42.5693 45.3332 42.6666 45.3334H47.2386L36.8866 54.8227Z" fill="white"/>
<path d="M21.3333 42.6667H18.6667V53.3334H21.3333V42.6667Z" fill="white"/>
<path d="M21.3333 37.3333H18.6667V39.9993H21.3333V37.3333Z" fill="white"/>
</svg>
