<svg width="80" height="80" viewBox="0 0 80 80" fill="none" xmlns="http://www.w3.org/2000/svg">
<g clip-path="url(#clip0)">
<path d="M72.1336 36.0985H70.3097C70.1603 34.5452 68.8486 33.3264 67.2569 33.3264H67.0105C66.1906 33.3264 65.4466 33.6516 64.8956 34.1774L60.6133 33.9182L59.3272 26.9328C60.7226 25.9874 61.9287 24.7182 62.8178 23.1572L66.7587 16.2375C66.7955 16.2288 66.8322 16.2213 66.8687 16.2113C67.7108 15.9803 68.4125 15.4353 68.8445 14.6766L69.2272 14.0047C69.6594 13.2461 69.7701 12.3644 69.5392 11.5224C69.3081 10.6803 68.7633 9.97863 68.0045 9.5466L51.9939 0.427688C50.4278 -0.464187 48.4278 0.0842507 47.5358 1.65034L47.1531 2.32222C46.7209 3.08081 46.6101 3.96253 46.8411 4.80441C46.8666 4.89738 46.8973 4.98784 46.9303 5.07722L43.0466 11.8964C41.5426 14.5369 41.157 17.6052 41.9608 20.5358C42.4981 22.4952 43.5262 24.2341 44.9364 25.6224L41.8256 32.7811L35.7659 32.4144C35.1619 31.5822 34.1842 31.0378 33.0795 31.0378H32.8002C31.418 31.0378 30.2314 31.8872 29.7322 33.091L25.6305 33.958C24.6627 34.1627 23.9602 35.0291 23.9602 36.0185V36.4063L16.0006 36.7611C14.9155 36.8096 14.0653 37.6985 14.0653 38.7847V40.4425C14.0653 41.5288 14.9153 42.4177 16.0006 42.4661L23.96 42.821V43.2088C23.96 44.198 24.6625 45.0647 25.6303 45.2693L29.732 46.1363C30.2312 47.34 31.4178 48.1894 32.8 48.1894H33.0794C34.5208 48.1894 35.747 47.2647 36.2053 45.9786L41.3369 45.668V56.4097L37.2959 63.2107C36.4159 64.6919 36.9048 66.613 38.3861 67.493C38.8755 67.7838 39.4219 67.9327 39.9769 67.9327C40.2355 67.9327 40.4959 67.9002 40.753 67.8349C41.5617 67.6289 42.242 67.1204 42.6684 66.4029L47.1478 58.8639C47.4347 58.3811 47.5862 57.8293 47.5862 57.2679V52.0341C47.5862 51.3869 47.0616 50.8624 46.4145 50.8624C45.7675 50.8624 45.2428 51.3871 45.2428 52.0341V57.2679C45.2428 57.4082 45.2048 57.5463 45.1331 57.6669L40.6537 65.2058C40.5472 65.3852 40.377 65.5124 40.1748 65.5639C39.9726 65.6152 39.7625 65.585 39.583 65.4785C39.4036 65.3719 39.2764 65.2018 39.2248 64.9996C39.1734 64.7974 39.2037 64.5872 39.3103 64.4077L43.5156 57.33C43.6231 57.1489 43.68 56.9422 43.68 56.7314V45.5268L45.2423 45.4322V47.3477C45.2423 47.9949 45.767 48.5194 46.4141 48.5194C47.0612 48.5194 47.5858 47.9947 47.5858 47.3477V45.2904L52.342 45.0024V49.1443V59.1432V65.7868C52.342 66.5408 52.7914 67.1907 53.4356 67.4866V68.9655C53.4356 69.9989 54.1759 70.8624 55.1542 71.0544V71.5227C55.1542 72.9238 56.2939 74.0635 57.695 74.0635H67.2622C68.2528 74.0635 69.0589 74.8694 69.0589 75.8602C69.0589 76.8508 68.253 77.6569 67.2622 77.6569H23.6731C23.0259 77.6569 22.5014 78.1816 22.5014 78.8286C22.5014 79.4757 23.0261 80.0004 23.6731 80.0004H67.2622C69.545 80.0004 71.4023 78.143 71.4023 75.8602C71.4023 73.5774 69.545 71.72 67.2622 71.72H57.695C57.5862 71.72 57.4977 71.6314 57.4977 71.5227V71.0544C58.4758 70.8622 59.2162 69.9991 59.2162 68.9655V67.3602C59.6653 67.0718 59.9867 66.5969 60.0622 66.0366L63.3377 44.3369L64.8948 44.2427C65.4458 44.7685 66.1898 45.0936 67.0097 45.0936H67.2561C68.848 45.0936 70.1595 43.8749 70.3089 42.3216H72.1328C73.3669 42.3216 74.3708 41.3177 74.3708 40.0836V38.3369C74.3717 37.1025 73.3676 36.0985 72.1336 36.0985ZM23.9605 40.4752L16.4092 40.1386V39.0889L23.9605 38.7522V40.4752ZM29.4797 43.6878L26.3037 43.0164V36.2111L29.4797 35.5397V43.6878ZM34.0569 44.8639V44.8689C34.0569 45.4079 33.6184 45.846 33.0798 45.846H32.8005C32.2616 45.846 31.8234 45.4075 31.8234 44.8689V34.3585C31.8234 33.8196 32.2619 33.3814 32.8005 33.3814H33.0798C33.6187 33.3814 34.0569 33.8199 34.0569 34.3585V44.8639ZM49.1895 3.48206L49.5722 2.81034C49.8247 2.36706 50.3908 2.21159 50.8341 2.46409L66.845 11.583C67.0598 11.7053 67.2141 11.9039 67.2794 12.1424C67.3447 12.3808 67.3134 12.6303 67.1911 12.8452L66.8084 13.5169C66.6861 13.7318 66.4875 13.886 66.2491 13.9513C66.0105 14.0168 65.7611 13.9853 65.5464 13.863L49.5355 4.74394C49.3206 4.62159 49.1664 4.423 49.1011 4.18456C49.0359 3.94628 49.0672 3.69675 49.1895 3.48206ZM45.083 13.0566L48.5884 6.90144L64.287 15.8425L62.4542 19.0605L59.9883 17.9078C58.8797 17.3897 57.5897 17.3468 56.4487 17.7905L56.1506 17.9066C55.6548 18.0994 55.1077 18.1028 54.6092 17.916L51.9431 16.9163C50.9478 16.543 49.8484 16.5343 48.8473 16.8919C48.413 17.0469 47.9311 17.0582 47.49 16.9235L44.0491 15.8725C44.232 14.8957 44.5769 13.9455 45.083 13.0566ZM44.2212 19.916C44.073 19.3768 43.9781 18.8318 43.9309 18.2864L46.8053 19.1644C47.7248 19.4453 48.73 19.4219 49.6355 19.0985C50.1156 18.9269 50.6428 18.9311 51.1203 19.1102L53.7864 20.1099C54.8248 20.4994 55.9662 20.4924 57.0003 20.0903L57.2986 19.9743C57.8456 19.7614 58.4642 19.7819 58.9961 20.0307L61.2908 21.1033L60.7817 21.9971C58.3167 26.3252 52.7898 27.8408 48.462 25.376C47.9847 25.1041 47.54 24.7919 47.1272 24.4472C47.1077 24.4297 47.0869 24.4132 47.0661 24.3968C45.6969 23.2327 44.707 21.6872 44.2212 19.916ZM56.8736 68.7511H55.78V67.6575H56.8736V68.7511ZM57.802 65.3141H54.6862V60.3146H55.893C57.1228 60.3146 58.1233 59.3141 58.1233 58.0843V50.2025C58.1233 48.9727 57.1228 47.9722 55.893 47.9722H54.6862V44.8603L60.9466 44.4814L57.802 65.3141ZM54.6864 57.9711V50.3157H55.78V57.9711H54.6864ZM63.9425 41.9521L36.4002 43.6189V34.8007H36.4003L50.3972 35.6477C51.0416 35.6861 51.5984 35.1947 51.6375 34.5489C51.6766 33.9028 51.1845 33.3477 50.5387 33.3086L44.3153 32.9319L46.8356 27.1318C46.9884 27.2285 47.1437 27.3224 47.3019 27.4125C49.0742 28.4219 51.0058 28.9013 52.913 28.9013C54.3694 28.9013 55.8109 28.6207 57.1562 28.0841L58.2034 33.7724L55.2255 33.5921C54.5791 33.5528 54.0242 34.045 53.9852 34.6908C53.9461 35.3369 54.4381 35.8921 55.0839 35.9311L63.9423 36.4674V41.9521H63.9425ZM67.9812 42.0255C67.9812 42.425 67.6562 42.7497 67.257 42.7497H67.0106C66.6111 42.7497 66.2862 42.4247 66.2862 42.0255V36.3943C66.2862 35.9947 66.6112 35.67 67.0106 35.67H67.257C67.6566 35.67 67.9812 35.995 67.9812 36.3943V42.0255ZM72.0283 39.9777H70.3248V38.4419H72.0283V39.9777Z" fill="white"/>
<path d="M42.9117 36.3945L39.8038 36.0312C39.3483 35.9781 38.8891 36.1242 38.5425 36.4325C38.1781 36.7567 37.9692 37.2279 37.9692 37.7261V40.5639C37.9692 41.062 38.1781 41.5333 38.5425 41.8575C38.8422 42.1242 39.2266 42.2695 39.6191 42.2695C39.6805 42.2695 39.7421 42.2659 39.8035 42.2587L42.9117 41.8954C43.7458 41.7979 44.3749 41.0693 44.3749 40.2006V38.0892C44.375 37.2204 43.7458 36.492 42.9117 36.3945ZM42.0314 39.6389L40.3128 39.8398V38.4501L42.0314 38.6511V39.6389Z" fill="white"/>
<path d="M49.6088 37.9731H48.0464C47.3992 37.9731 46.8747 38.4978 46.8747 39.1449C46.8747 39.7919 47.3994 40.3166 48.0464 40.3166H49.6088C50.2559 40.3166 50.7805 39.7919 50.7805 39.1449C50.7805 38.4978 50.2559 37.9731 49.6088 37.9731Z" fill="white"/>
<path d="M61.3262 37.9731H53.5145C52.8673 37.9731 52.3428 38.4978 52.3428 39.1449C52.3428 39.7919 52.8675 40.3166 53.5145 40.3166H61.3262C61.9734 40.3166 62.498 39.7919 62.498 39.1449C62.498 38.4978 61.9734 37.9731 61.3262 37.9731Z" fill="white"/>
<path d="M9.4569 38.4419H6.80096C6.15377 38.4419 5.62924 38.9666 5.62924 39.6136C5.62924 40.2608 6.15393 40.7853 6.80096 40.7853H9.4569C10.1041 40.7853 10.6286 40.2606 10.6286 39.6136C10.6286 38.9666 10.1039 38.4419 9.4569 38.4419Z" fill="white"/>
<path d="M11.9853 32.842L9.80127 31.3311C9.26892 30.9628 8.53908 31.0958 8.17095 31.6281C7.80283 32.1605 7.9358 32.8903 8.46799 33.2584L10.652 34.7694C10.8555 34.9102 11.0878 34.9777 11.3177 34.9777C11.6894 34.9777 12.0549 34.8013 12.2824 34.4725C12.6505 33.9402 12.5175 33.2103 11.9853 32.842Z" fill="white"/>
<path d="M12.2824 44.7549C11.9141 44.2229 11.1842 44.0897 10.652 44.458L8.46799 45.969C7.9358 46.3371 7.80283 47.0669 8.17095 47.5993C8.39845 47.928 8.76392 48.1044 9.13564 48.1044C9.36549 48.1044 9.59783 48.0369 9.80127 47.8961L11.9855 46.3852C12.5175 46.0171 12.6505 45.2871 12.2824 44.7549Z" fill="white"/>
</g>
<defs>
<clipPath id="clip0">
<rect width="80" height="80" fill="white"/>
</clipPath>
</defs>
</svg>
