<svg width="80" height="89" viewBox="0 0 80 89" fill="none" xmlns="http://www.w3.org/2000/svg">
<path d="M61.25 53.504H57.95C56.0375 51.9415 46.6125 44.7539 35 44.7539C23.3875 44.7539 13.975 51.9415 12.05 53.504H6.25C5.25635 53.5069 4.30425 53.903 3.60163 54.6056C2.89901 55.3082 2.50297 56.2604 2.5 57.254V64.7541C2.4994 64.9995 2.57352 65.2393 2.7125 65.4416L7.7125 72.9416C7.82574 73.1136 7.97969 73.2549 8.16069 73.353C8.34169 73.4512 8.54412 73.5031 8.75 73.5041H13.8625C14.1563 75.251 15.0596 76.8373 16.4121 77.9813C17.7645 79.1253 19.4786 79.753 21.25 79.753C23.0214 79.753 24.7355 79.1253 26.0879 77.9813C27.4404 76.8373 28.3437 75.251 28.6375 73.5041H52.6125C52.9063 75.251 53.8096 76.8373 55.1621 77.9813C56.5145 79.1253 58.2286 79.753 60 79.753C61.7714 79.753 63.4855 79.1253 64.8379 77.9813C66.1904 76.8373 67.0937 75.251 67.3875 73.5041H76.25C76.5815 73.5041 76.8995 73.3724 77.1339 73.138C77.3683 72.9036 77.5 72.5857 77.5 72.2541V69.7541C77.496 65.4455 75.7827 61.3146 72.7361 58.2679C69.6895 55.2213 65.5586 53.508 61.25 53.504ZM5 59.754H8.9125L8.075 61.004H5V59.754ZM21.25 77.2542C20.2611 77.2542 19.2944 76.9609 18.4722 76.4115C17.6499 75.8621 17.009 75.0812 16.6306 74.1676C16.2522 73.2539 16.1532 72.2486 16.3461 71.2787C16.539 70.3088 17.0152 69.4178 17.7145 68.7186C18.4137 68.0193 19.3046 67.5431 20.2746 67.3502C21.2445 67.1572 22.2498 67.2563 23.1634 67.6347C24.0771 68.0131 24.8579 68.654 25.4074 69.4763C25.9568 70.2985 26.25 71.2652 26.25 72.2541C26.25 73.5802 25.7232 74.852 24.7855 75.7897C23.8479 76.7274 22.5761 77.2542 21.25 77.2542ZM33.75 71.0041H28.6375C28.3437 69.2572 27.4404 67.671 26.0879 66.527C24.7355 65.383 23.0214 64.7553 21.25 64.7553C19.4786 64.7553 17.7645 65.383 16.4121 66.527C15.0596 67.671 14.1563 69.2572 13.8625 71.0041H9.425L5 64.3791V63.5041H8.75C8.95589 63.503 9.15832 63.4511 9.33932 63.353C9.52031 63.2548 9.67427 63.1135 9.7875 62.9416L12.2875 59.1915C12.4164 59.0062 12.4906 58.7884 12.5017 58.563C12.5127 58.3375 12.4602 58.1135 12.35 57.9165C12.2455 57.7155 12.0874 57.5472 11.8933 57.4303C11.6992 57.3134 11.4766 57.2524 11.25 57.254H5C5 56.9225 5.1317 56.6045 5.36612 56.3701C5.60054 56.1357 5.91848 56.004 6.25 56.004H33.75V71.0041ZM33.75 53.504H16.325C21.4987 49.9638 27.5029 47.8274 33.75 47.3039V53.504ZM71.85 61.004H66.925L66.0875 59.754H70.6625C71.0804 60.1492 71.4768 60.5664 71.85 61.004ZM36.25 47.3039C43.6375 47.6789 50.0875 51.1415 53.675 53.504H36.25V47.3039ZM36.25 59.754H38.125C38.2908 59.754 38.4497 59.8199 38.5669 59.9371C38.6842 60.0543 38.75 60.2133 38.75 60.379C38.75 60.5448 38.6842 60.7038 38.5669 60.821C38.4497 60.9382 38.2908 61.004 38.125 61.004H36.25V59.754ZM60 77.2542C59.0111 77.2542 58.0444 76.9609 57.2222 76.4115C56.3999 75.8621 55.759 75.0812 55.3806 74.1676C55.0022 73.2539 54.9032 72.2486 55.0961 71.2787C55.289 70.3088 55.7652 69.4178 56.4645 68.7186C57.1637 68.0193 58.0546 67.5431 59.0246 67.3502C59.9945 67.1572 60.9998 67.2563 61.9134 67.6347C62.8271 68.0131 63.6079 68.654 64.1574 69.4763C64.7068 70.2985 65 71.2652 65 72.2541C65 73.5802 64.4732 74.852 63.5355 75.7897C62.5979 76.7274 61.3261 77.2542 60 77.2542ZM75 71.0041H67.3875C67.0937 69.2572 66.1904 67.671 64.8379 66.527C63.4855 65.383 61.7714 64.7553 60 64.7553C58.2286 64.7553 56.5145 65.383 55.1621 66.527C53.8096 67.671 52.9063 69.2572 52.6125 71.0041H36.25V63.5041H38.125C38.9538 63.5041 39.7487 63.1748 40.3347 62.5888C40.9208 62.0027 41.25 61.2078 41.25 60.379C41.25 59.5502 40.9208 58.7554 40.3347 58.1693C39.7487 57.5833 38.9538 57.254 38.125 57.254H36.25V56.004H61.25C63.2141 56.0026 65.155 56.4292 66.9375 57.254H63.75C63.5234 57.2524 63.3008 57.3134 63.1067 57.4303C62.9126 57.5472 62.7545 57.7155 62.65 57.9165C62.5398 58.1135 62.4873 58.3375 62.4983 58.563C62.5094 58.7884 62.5836 59.0062 62.7125 59.1915L65.2125 62.9416C65.3257 63.1135 65.4797 63.2548 65.6607 63.353C65.8417 63.4511 66.0441 63.503 66.25 63.5041H73.4875C74.4821 65.4373 75.0007 67.5801 75 69.7541V71.0041Z" fill="white"/>
<path d="M60 68.5042C59.2583 68.5042 58.5333 68.7241 57.9166 69.1361C57.2999 69.5482 56.8193 70.1339 56.5355 70.8191C56.2516 71.5043 56.1774 72.2583 56.3221 72.9858C56.4668 73.7132 56.8239 74.3814 57.3484 74.9059C57.8728 75.4303 58.541 75.7875 59.2684 75.9322C59.9958 76.0769 60.7498 76.0026 61.4351 75.7188C62.1203 75.4349 62.706 74.9543 63.118 74.3376C63.5301 73.7209 63.75 72.9959 63.75 72.2542C63.75 71.2596 63.3549 70.3058 62.6517 69.6025C61.9484 68.8992 60.9946 68.5042 60 68.5042ZM60 73.5042C59.7528 73.5042 59.5111 73.4309 59.3055 73.2935C59.1 73.1562 58.9398 72.961 58.8452 72.7325C58.7505 72.5041 58.7258 72.2528 58.774 72.0103C58.8223 71.7678 58.9413 71.5451 59.1161 71.3703C59.2909 71.1955 59.5137 71.0764 59.7561 71.0282C59.9986 70.98 60.2499 71.0047 60.4784 71.0993C60.7068 71.1939 60.902 71.3542 61.0393 71.5597C61.1767 71.7653 61.25 72.007 61.25 72.2542C61.25 72.5857 61.1183 72.9037 60.8839 73.1381C60.6495 73.3725 60.3315 73.5042 60 73.5042Z" fill="white"/>
<path d="M21.25 68.5042C20.5083 68.5042 19.7833 68.7241 19.1666 69.1361C18.5499 69.5482 18.0693 70.1339 17.7855 70.8191C17.5016 71.5043 17.4274 72.2583 17.5721 72.9858C17.7168 73.7132 18.0739 74.3814 18.5984 74.9059C19.1228 75.4303 19.791 75.7875 20.5184 75.9322C21.2458 76.0769 21.9998 76.0026 22.6851 75.7188C23.3703 75.4349 23.956 74.9543 24.368 74.3376C24.7801 73.7209 25 72.9959 25 72.2542C25 71.2596 24.6049 70.3058 23.9017 69.6025C23.1984 68.8992 22.2446 68.5042 21.25 68.5042ZM21.25 73.5042C21.0028 73.5042 20.7611 73.4309 20.5555 73.2935C20.35 73.1562 20.1898 72.961 20.0952 72.7325C20.0005 72.5041 19.9758 72.2528 20.024 72.0103C20.0723 71.7678 20.1913 71.5451 20.3661 71.3703C20.5409 71.1955 20.7637 71.0764 21.0061 71.0282C21.2486 70.98 21.4999 71.0047 21.7284 71.0993C21.9568 71.1939 22.152 71.3542 22.2893 71.5597C22.4267 71.7653 22.5 72.007 22.5 72.2542C22.5 72.5857 22.3683 72.9037 22.1339 73.1381C21.8995 73.3725 21.5815 73.5042 21.25 73.5042Z" fill="white"/>
<path d="M26.25 21.0037C27.2389 21.0037 28.2056 20.7105 29.0278 20.1611C29.8501 19.6117 30.491 18.8308 30.8694 17.9171C31.2478 17.0035 31.3469 15.9982 31.1539 15.0282C30.961 14.0583 30.4848 13.1674 29.7855 12.4681C29.0863 11.7689 28.1954 11.2927 27.2255 11.0997C26.2555 10.9068 25.2502 11.0058 24.3366 11.3843C23.423 11.7627 22.6421 12.4036 22.0927 13.2258C21.5432 14.0481 21.25 15.0148 21.25 16.0037C21.25 17.3298 21.7768 18.6016 22.7145 19.5393C23.6521 20.477 24.9239 21.0037 26.25 21.0037ZM26.25 13.5037C26.7445 13.5037 27.2278 13.6503 27.6389 13.925C28.05 14.1997 28.3705 14.5902 28.5597 15.047C28.7489 15.5038 28.7984 16.0065 28.702 16.4914C28.6055 16.9764 28.3674 17.4219 28.0178 17.7715C27.6681 18.1211 27.2227 18.3592 26.7377 18.4557C26.2528 18.5522 25.7501 18.5026 25.2933 18.3134C24.8365 18.1242 24.446 17.8038 24.1713 17.3926C23.8966 16.9815 23.75 16.4982 23.75 16.0037C23.75 15.3407 24.0134 14.7048 24.4822 14.2359C24.9511 13.7671 25.587 13.5037 26.25 13.5037Z" fill="white"/>
<path d="M36.55 12.2906L35.7125 12.0781L36.1625 11.3406C36.3055 11.1018 36.3647 10.8221 36.3307 10.5459C36.2968 10.2696 36.1716 10.0126 35.975 9.81559L32.4375 6.27806C32.2389 6.08414 31.9821 5.96077 31.7066 5.9269C31.4312 5.89302 31.1522 5.95052 30.9125 6.09056L30.175 6.54057L29.9625 5.70306C29.8955 5.43205 29.7397 5.19127 29.52 5.0191C29.3002 4.84693 29.0292 4.75327 28.75 4.75305H23.75C23.4708 4.75327 23.1998 4.84693 22.98 5.0191C22.7603 5.19127 22.6045 5.43205 22.5375 5.70306L22.325 6.54057L21.5875 6.09056C21.3478 5.95052 21.0688 5.89302 20.7933 5.9269C20.5179 5.96077 20.2611 6.08414 20.0625 6.27806L16.525 9.81559C16.3284 10.0126 16.2032 10.2696 16.1693 10.5459C16.1353 10.8221 16.1945 11.1018 16.3375 11.3406L16.7875 12.0781L15.95 12.2906C15.679 12.3576 15.4382 12.5134 15.266 12.7332C15.0939 12.9529 15.0002 13.224 15 13.5031V18.5032C15.0002 18.7823 15.0939 19.0534 15.266 19.2731C15.4382 19.4929 15.679 19.6487 15.95 19.7157L16.7875 19.9282L16.3375 20.6657C16.1945 20.9045 16.1353 21.1842 16.1693 21.4604C16.2032 21.7366 16.3284 21.9937 16.525 22.1907L20.0625 25.7282C20.2609 25.9225 20.5177 26.0461 20.7933 26.08C21.0689 26.1139 21.348 26.0562 21.5875 25.9157L22.325 25.4657L22.5375 26.3032C22.6045 26.5742 22.7603 26.815 22.98 26.9872C23.1998 27.1594 23.4708 27.253 23.75 27.2532H28.75C29.0292 27.253 29.3002 27.1594 29.52 26.9872C29.7397 26.815 29.8955 26.5742 29.9625 26.3032L30.175 25.4657L30.9125 25.9157C31.1522 26.0558 31.4312 26.1133 31.7066 26.0794C31.9821 26.0455 32.2389 25.9221 32.4375 25.7282L35.975 22.1907C36.1716 21.9937 36.2968 21.7366 36.3307 21.4604C36.3647 21.1842 36.3055 20.9045 36.1625 20.6657L35.7125 19.9282L36.55 19.7157C36.821 19.6487 37.0618 19.4929 37.234 19.2731C37.4061 19.0534 37.4998 18.7823 37.5 18.5032V13.5031C37.4998 13.224 37.4061 12.9529 37.234 12.7332C37.0618 12.5134 36.821 12.3576 36.55 12.2906ZM35 17.5282L33.475 17.9032C33.2858 17.9517 33.1105 18.0436 32.963 18.1716C32.8155 18.2996 32.6998 18.4602 32.625 18.6407C32.5493 18.8217 32.5177 19.0181 32.5329 19.2137C32.5481 19.4094 32.6097 19.5986 32.7125 19.7657L33.5125 21.1157L31.3625 23.2657L30.0125 22.4532C29.8433 22.3552 29.6538 22.2974 29.4587 22.2844C29.2637 22.2714 29.0682 22.3035 28.8875 22.3782C28.7071 22.4529 28.5465 22.5687 28.4185 22.7162C28.2905 22.8637 28.1986 23.039 28.15 23.2282L27.775 24.7532H24.725L24.35 23.2282C24.3014 23.039 24.2095 22.8637 24.0815 22.7162C23.9535 22.5687 23.7929 22.4529 23.6125 22.3782C23.4318 22.3035 23.2363 22.2714 23.0413 22.2844C22.8462 22.2974 22.6567 22.3552 22.4875 22.4532L21.1375 23.2657L18.9875 21.1157L19.7875 19.7657C19.8903 19.5986 19.9519 19.4094 19.9671 19.2137C19.9823 19.0181 19.9507 18.8217 19.875 18.6407C19.8002 18.4602 19.6845 18.2996 19.537 18.1716C19.3895 18.0436 19.2142 17.9517 19.025 17.9032L17.5 17.5282V14.4781L19.025 14.1031C19.2142 14.0546 19.3895 13.9627 19.537 13.8347C19.6845 13.7067 19.8002 13.5461 19.875 13.3656C19.9507 13.1846 19.9823 12.9882 19.9671 12.7926C19.9519 12.5969 19.8903 12.4077 19.7875 12.2406L18.9875 10.8906L21.1375 8.74058L22.4875 9.54059C22.6546 9.64341 22.8438 9.70497 23.0394 9.72019C23.2351 9.7354 23.4315 9.70383 23.6125 9.62809C23.7929 9.55334 23.9535 9.43762 24.0815 9.29009C24.2095 9.14257 24.3014 8.96727 24.35 8.77808L24.725 7.25307H27.775L28.15 8.77808C28.1986 8.96727 28.2905 9.14257 28.4185 9.29009C28.5465 9.43762 28.7071 9.55334 28.8875 9.62809C29.0685 9.70383 29.2649 9.7354 29.4606 9.72019C29.6562 9.70497 29.8454 9.64341 30.0125 9.54059L31.3625 8.74058L33.5125 10.8906L32.7125 12.2406C32.6097 12.4077 32.5481 12.5969 32.5329 12.7926C32.5177 12.9882 32.5493 13.1846 32.625 13.3656C32.6998 13.5461 32.8155 13.7067 32.963 13.8347C33.1105 13.9627 33.2858 14.0546 33.475 14.1031L35 14.4781V17.5282Z" fill="white"/>
<path d="M48.75 27.2538C48.75 28.2427 49.0432 29.2094 49.5927 30.0317C50.1421 30.854 50.923 31.4948 51.8366 31.8733C52.7502 32.2517 53.7556 32.3507 54.7255 32.1578C55.6954 31.9649 56.5863 31.4887 57.2855 30.7894C57.9848 30.0901 58.461 29.1992 58.6539 28.2293C58.8469 27.2594 58.7478 26.254 58.3694 25.3404C57.991 24.4268 57.3501 23.6459 56.5279 23.0964C55.7056 22.547 54.7389 22.2538 53.75 22.2538C52.4239 22.2538 51.1522 22.7806 50.2145 23.7183C49.2768 24.656 48.75 25.9277 48.75 27.2538ZM53.75 24.7538C54.2445 24.7538 54.7278 24.9004 55.1389 25.1751C55.5501 25.4498 55.8705 25.8403 56.0597 26.2971C56.2489 26.7539 56.2984 27.2566 56.202 27.7416C56.1055 28.2265 55.8674 28.672 55.5178 29.0216C55.1681 29.3712 54.7227 29.6093 54.2377 29.7058C53.7528 29.8023 53.2501 29.7528 52.7933 29.5635C52.3365 29.3743 51.946 29.0539 51.6713 28.6428C51.3966 28.2316 51.25 27.7483 51.25 27.2538C51.25 26.5908 51.5134 25.9549 51.9822 25.486C52.4511 25.0172 53.087 24.7538 53.75 24.7538Z" fill="white"/>
<path d="M64.05 23.5413L63.2125 23.3288L63.6625 22.5913C63.8055 22.3525 63.8647 22.0729 63.8307 21.7966C63.7968 21.5204 63.6716 21.2634 63.475 21.0663L59.9375 17.5288C59.7389 17.3349 59.4821 17.2115 59.2066 17.1776C58.9312 17.1438 58.6522 17.2013 58.4125 17.3413L57.675 17.7913L57.4625 16.9538C57.3955 16.6828 57.2397 16.442 57.02 16.2698C56.8002 16.0977 56.5292 16.004 56.25 16.0038H51.25C50.9708 16.004 50.6998 16.0977 50.48 16.2698C50.2603 16.442 50.1045 16.6828 50.0375 16.9538L49.825 17.7913L49.0875 17.3413C48.8478 17.2013 48.5688 17.1438 48.2934 17.1776C48.0179 17.2115 47.7611 17.3349 47.5625 17.5288L44.025 21.0663C43.8284 21.2634 43.7032 21.5204 43.6693 21.7966C43.6353 22.0729 43.6945 22.3525 43.8375 22.5913L44.2875 23.3288L43.45 23.5413C43.179 23.6083 42.9382 23.7641 42.766 23.9839C42.5939 24.2036 42.5002 24.4747 42.5 24.7539V29.7539C42.5002 30.0331 42.5939 30.3041 42.766 30.5239C42.9382 30.7436 43.179 30.8994 43.45 30.9664L44.2875 31.1789L43.8375 31.9164C43.6945 32.1552 43.6353 32.4349 43.6693 32.7111C43.7032 32.9874 43.8284 33.2444 44.025 33.4414L47.5625 36.979C47.7609 37.1733 48.0177 37.2969 48.2933 37.3308C48.5689 37.3647 48.848 37.3069 49.0875 37.1665L49.825 36.7165L50.0375 37.554C50.1045 37.825 50.2603 38.0657 50.48 38.2379C50.6998 38.4101 50.9708 38.5038 51.25 38.504H56.25C56.5292 38.5038 56.8002 38.4101 57.02 38.2379C57.2397 38.0657 57.3955 37.825 57.4625 37.554L57.675 36.7165L58.4125 37.1665C58.652 37.3069 58.9311 37.3647 59.2067 37.3308C59.4823 37.2969 59.7391 37.1733 59.9375 36.979L63.475 33.4414C63.6716 33.2444 63.7968 32.9874 63.8307 32.7111C63.8647 32.4349 63.8055 32.1552 63.6625 31.9164L63.2125 31.1789L64.05 30.9664C64.321 30.8994 64.5618 30.7436 64.734 30.5239C64.9061 30.3041 64.9998 30.0331 65 29.7539V24.7539C64.9998 24.4747 64.9061 24.2036 64.734 23.9839C64.5618 23.7641 64.321 23.6083 64.05 23.5413ZM62.5 28.7789L60.975 29.1539C60.7858 29.2024 60.6105 29.2944 60.463 29.4224C60.3155 29.5504 60.1997 29.711 60.125 29.8914C60.0493 30.0724 60.0177 30.2688 60.0329 30.4645C60.0481 30.6601 60.1097 30.8493 60.2125 31.0164L61.0125 32.3664L58.8625 34.5164L57.5125 33.7039C57.3433 33.6059 57.1538 33.5482 56.9588 33.5352C56.7637 33.5222 56.5682 33.5542 56.3875 33.6289C56.2071 33.7037 56.0465 33.8194 55.9185 33.9669C55.7905 34.1145 55.6986 34.2898 55.65 34.4789L55.275 36.004H52.225L51.85 34.4789C51.8014 34.2898 51.7095 34.1145 51.5815 33.9669C51.4535 33.8194 51.2929 33.7037 51.1125 33.6289C50.9318 33.5542 50.7363 33.5222 50.5412 33.5352C50.3462 33.5482 50.1567 33.6059 49.9875 33.7039L48.6375 34.5164L46.4875 32.3664L47.2875 31.0164C47.3903 30.8493 47.4519 30.6601 47.4671 30.4645C47.4823 30.2688 47.4507 30.0724 47.375 29.8914C47.3003 29.711 47.1845 29.5504 47.037 29.4224C46.8895 29.2944 46.7142 29.2024 46.525 29.1539L45 28.7789V25.7289L46.525 25.3539C46.7142 25.3053 46.8895 25.2134 47.037 25.0854C47.1845 24.9574 47.3003 24.7968 47.375 24.6164C47.4507 24.4353 47.4823 24.2389 47.4671 24.0433C47.4519 23.8477 47.3903 23.6585 47.2875 23.4913L46.4875 22.1413L48.6375 19.9913L49.9875 20.7913C50.1546 20.8941 50.3438 20.9557 50.5394 20.9709C50.7351 20.9861 50.9315 20.9546 51.1125 20.8788C51.2929 20.8041 51.4535 20.6884 51.5815 20.5408C51.7095 20.3933 51.8014 20.218 51.85 20.0288L52.225 18.5038H55.275L55.65 20.0288C55.6986 20.218 55.7905 20.3933 55.9185 20.5408C56.0465 20.6884 56.2071 20.8041 56.3875 20.8788C56.5685 20.9546 56.7649 20.9861 56.9606 20.9709C57.1562 20.9557 57.3454 20.8941 57.5125 20.7913L58.8625 19.9913L61.0125 22.1413L60.2125 23.4913C60.1097 23.6585 60.0481 23.8477 60.0329 24.0433C60.0177 24.2389 60.0493 24.4353 60.125 24.6164C60.1997 24.7968 60.3155 24.9574 60.463 25.0854C60.6105 25.2134 60.7858 25.3053 60.975 25.3539L62.5 25.7289V28.7789Z" fill="white"/>
<path d="M76.25 26.0038H67.5V28.5038H75V53.504H77.5V27.2538C77.5 26.9223 77.3683 26.6043 77.1339 26.3699C76.8995 26.1355 76.5815 26.0038 76.25 26.0038Z" fill="white"/>
<path d="M5 17.2537H12.5V14.7537H3.75C3.41848 14.7537 3.10054 14.8854 2.86612 15.1198C2.6317 15.3542 2.5 15.6721 2.5 16.0037V51.004H5V17.2537Z" fill="white"/>
<path d="M52.5 13.5031H55V6.00306C55 5.67154 54.8683 5.35359 54.6339 5.11917C54.3995 4.88475 54.0815 4.75305 53.75 4.75305H36.25V7.25307H52.5V13.5031Z" fill="white"/>
<path d="M25 29.7538V37.2538C25 37.5854 25.1317 37.9033 25.3661 38.1377C25.6005 38.3722 25.9185 38.5039 26.25 38.5039H43.75V36.0038H27.5V29.7538H25Z" fill="white"/>
</svg>
