<svg width="90" height="90" viewBox="0 0 90 90" fill="none" xmlns="http://www.w3.org/2000/svg">
<circle cx="45" cy="45" r="44" stroke="#498DD8" stroke-width="2" stroke-miterlimit="16" stroke-linecap="round"/>
<circle cx="45.5" cy="45.5" r="37.5" fill="#498DD8"/>
<path d="M49.4016 53.8854C49.4016 53.8854 53.4016 51.2854 54.2016 50.8854C55.0016 50.4854 55.9016 50.2854 56.4016 50.6854C57.2016 51.1854 63.9016 55.5854 64.5016 55.9854C65.1016 56.3854 65.3016 57.4854 64.6016 58.5854C63.8016 59.6854 60.3016 64.0854 58.8016 63.9854C57.3016 63.9854 50.4016 64.3854 38.5016 52.5854C26.6016 40.6854 27.0016 33.7854 27.0016 32.2854C27.0016 30.7854 31.3016 27.1854 32.4016 26.4854C33.5016 25.6854 34.6016 25.9854 35.0016 26.5854C35.4016 27.1854 39.8016 33.8854 40.3016 34.6854C40.6016 35.1854 40.5016 36.0854 40.1016 36.8854C39.7016 37.6854 37.1016 41.6854 37.1016 41.6854C37.1016 41.6854 37.8016 44.4854 42.1016 48.8854C46.5016 53.1854 49.4016 53.8854 49.4016 53.8854Z" fill="white"/>
</svg>
