<svg width="30" height="30" viewBox="0 0 30 30" fill="none" xmlns="http://www.w3.org/2000/svg">
<path d="M14.4 2.5C11.9278 2.5 9.51102 3.23311 7.4554 4.60663C5.39979 5.98015 3.79763 7.93238 2.85154 10.2165C1.90544 12.5005 1.6579 15.0139 2.14021 17.4386C2.62253 19.8634 3.81304 22.0907 5.5612 23.8388C7.30935 25.587 9.53664 26.7775 11.9614 27.2598C14.3862 27.7421 16.8995 27.4946 19.1836 26.5485C21.4676 25.6024 23.4199 24.0002 24.7934 21.9446C26.1669 19.889 26.9 17.4723 26.9 15C26.9 13.3585 26.5767 11.733 25.9485 10.2165C25.3203 8.69989 24.3996 7.3219 23.2389 6.16117C22.0781 5.00043 20.7001 4.07969 19.1836 3.45151C17.667 2.82332 16.0416 2.5 14.4 2.5ZM17.7875 16.6125C17.9047 16.7287 17.9977 16.867 18.0611 17.0193C18.1246 17.1716 18.1573 17.335 18.1573 17.5C18.1573 17.665 18.1246 17.8284 18.0611 17.9807C17.9977 18.133 17.9047 18.2713 17.7875 18.3875C17.6713 18.5047 17.5331 18.5977 17.3808 18.6611C17.2284 18.7246 17.065 18.7572 16.9 18.7572C16.735 18.7572 16.5716 18.7246 16.4193 18.6611C16.267 18.5977 16.1287 18.5047 16.0125 18.3875L14.4 16.7625L12.7875 18.3875C12.6713 18.5047 12.5331 18.5977 12.3808 18.6611C12.2284 18.7246 12.065 18.7572 11.9 18.7572C11.735 18.7572 11.5716 18.7246 11.4193 18.6611C11.267 18.5977 11.1287 18.5047 11.0125 18.3875C10.8954 18.2713 10.8024 18.133 10.7389 17.9807C10.6755 17.8284 10.6428 17.665 10.6428 17.5C10.6428 17.335 10.6755 17.1716 10.7389 17.0193C10.8024 16.867 10.8954 16.7287 11.0125 16.6125L12.6375 15L11.0125 13.3875C10.7772 13.1521 10.6449 12.8329 10.6449 12.5C10.6449 12.1671 10.7772 11.8479 11.0125 11.6125C11.2479 11.3771 11.5672 11.2449 11.9 11.2449C12.2329 11.2449 12.5522 11.3771 12.7875 11.6125L14.4 13.2375L16.0125 11.6125C16.2479 11.3771 16.5672 11.2449 16.9 11.2449C17.2329 11.2449 17.5522 11.3771 17.7875 11.6125C18.0229 11.8479 18.1551 12.1671 18.1551 12.5C18.1551 12.8329 18.0229 13.1521 17.7875 13.3875L16.1625 15L17.7875 16.6125Z" fill="#EDEDED"/>
</svg>
