<svg width="60" height="61" viewBox="0 0 60 61" fill="none" xmlns="http://www.w3.org/2000/svg">
<path d="M30 0.614746C13.433 0.614746 0 14.0351 0 30.5864C0 47.1378 13.433 60.5581 30 60.5581C46.567 60.5581 60 47.1378 60 30.5864C60 14.0351 46.567 0.614746 30 0.614746ZM39.6496 31.048L25.0246 41.6786C24.9444 41.7362 24.8499 41.7705 24.7514 41.7779C24.653 41.7853 24.5544 41.7655 24.4665 41.7205C24.3786 41.6756 24.3048 41.6073 24.2532 41.5232C24.2016 41.4391 24.1743 41.3424 24.1741 41.2438V19.996C24.1738 19.8972 24.2009 19.8002 24.2523 19.7157C24.3038 19.6313 24.3777 19.5628 24.4657 19.5178C24.5538 19.4728 24.6526 19.453 24.7513 19.4606C24.8499 19.4683 24.9445 19.5031 25.0246 19.5611L39.6496 30.185C39.7186 30.2338 39.775 30.2985 39.8139 30.3736C39.8528 30.4487 39.8731 30.532 39.8731 30.6165C39.8731 30.7011 39.8528 30.7844 39.8139 30.8595C39.775 30.9346 39.7186 30.9992 39.6496 31.048Z" fill="#F56048"/>
</svg>
