<svg width="60" height="61" viewBox="0 0 60 61" fill="none" xmlns="http://www.w3.org/2000/svg">
<path d="M30 0.40918C13.433 0.40918 0 13.8366 0 30.3967C0 46.9568 13.433 60.3843 30 60.3843C46.567 60.3843 60 46.9568 60 30.3967C60 13.8366 46.567 0.40918 30 0.40918ZM39.6496 30.8586L25.0246 41.4948C24.9444 41.5524 24.8499 41.5868 24.7514 41.5942C24.653 41.6016 24.5544 41.5817 24.4665 41.5367C24.3786 41.4918 24.3048 41.4235 24.2532 41.3393C24.2016 41.2551 24.1743 41.1584 24.1741 41.0597V19.8007C24.1738 19.7018 24.2009 19.6047 24.2523 19.5203C24.3038 19.4358 24.3777 19.3673 24.4657 19.3222C24.5538 19.2772 24.6526 19.2574 24.7513 19.265C24.8499 19.2727 24.9445 19.3075 25.0246 19.3656L39.6496 29.9951C39.7186 30.044 39.775 30.1087 39.8139 30.1838C39.8528 30.2589 39.8731 30.3423 39.8731 30.4269C39.8731 30.5114 39.8528 30.5948 39.8139 30.6699C39.775 30.745 39.7186 30.8097 39.6496 30.8586Z" fill="white"/>
</svg>
