<svg width="60" height="60" viewBox="0 0 60 60" fill="none" xmlns="http://www.w3.org/2000/svg">
<path d="M46.875 3.84375C46.875 1.96875 44.9063 0 42.8438 0H17.1562C15.0937 0 13.125 1.96875 13.125 3.84375V56.0625C13.125 58.0312 15.0937 59.9063 17.1562 59.9063H42.9375C44.9063 59.9063 46.9688 57.9375 46.9688 56.0625V3.84375H46.875Z" fill="#5C6D6D"/>
<path d="M45.9375 55.3125C45.9375 57.1875 44.0625 59.0625 42.1875 59.0625H17.8125C15.9375 59.0625 14.0625 57.1875 14.0625 55.3125V4.6875C14.0625 2.8125 15.9375 0.9375 17.8125 0.9375H42.1875C44.0625 0.9375 45.9375 2.8125 45.9375 4.6875V55.3125Z" fill="#212528"/>
<path d="M40.7812 5.15625C41.299 5.15625 41.7188 4.73652 41.7188 4.21875C41.7188 3.70098 41.299 3.28125 40.7812 3.28125C40.2635 3.28125 39.8438 3.70098 39.8438 4.21875C39.8438 4.73652 40.2635 5.15625 40.7812 5.15625Z" fill="#94989B"/>
<path d="M32.8125 4.21875C32.8125 4.5 32.7188 4.6875 32.5313 4.6875H27.4687C27.2812 4.6875 27.1875 4.5 27.1875 4.21875C27.1875 4.03125 27.2812 3.75 27.4687 3.75H32.5313C32.7188 3.75 32.8125 4.03125 32.8125 4.21875Z" fill="#94989B"/>
<path d="M15.9375 7.5H44.0625V52.5H15.9375V7.5Z" fill="#3E4347"/>
<path d="M33.5625 56.4375C33.5625 56.8125 33.2813 57.1875 32.8125 57.1875H27.1875C26.8125 57.1875 26.4375 56.9063 26.4375 56.4375V55.0312C26.4375 54.6562 26.7187 54.2812 27.1875 54.2812H32.8125C33.1875 54.2812 33.5625 54.5626 33.5625 55.0312V56.4375Z" fill="#94989B"/>
<path d="M22.5 13.7812C22.5 14.25 22.125 14.5312 21.75 14.5312H18.6562C18.1875 14.5312 17.9062 14.1562 17.9062 13.7812V10.6875C17.9062 10.2187 18.2812 9.9375 18.6562 9.9375H21.75C22.2188 9.9375 22.5 10.3125 22.5 10.6875V13.7812Z" fill="#42ADE2"/>
<path d="M29.0625 13.7812C29.0625 14.25 28.6875 14.5312 28.3125 14.5312H25.2187C24.75 14.5312 24.4688 14.1562 24.4688 13.7812V10.6875C24.4688 10.2187 24.8437 9.9375 25.2187 9.9375H28.3125C28.7813 9.9375 29.0625 10.3125 29.0625 10.6875V13.7812Z" fill="#C7E755"/>
<path d="M35.625 13.7812C35.625 14.25 35.25 14.5312 34.875 14.5312H31.7813C31.3125 14.5312 31.0312 14.1562 31.0312 13.7812V10.6875C31.0312 10.2187 31.4063 9.9375 31.7813 9.9375H34.875C35.3438 9.9375 35.625 10.3125 35.625 10.6875V13.7812Z" fill="#F2B200"/>
<path d="M42.1875 13.7812C42.1875 14.25 41.8125 14.5312 41.4375 14.5312H38.3438C37.875 14.5312 37.5938 14.1562 37.5938 13.7812V10.6875C37.5938 10.2187 37.9688 9.9375 38.3438 9.9375H41.4375C41.9063 9.9375 42.1875 10.3125 42.1875 10.6875V13.7812Z" fill="#42ADE2"/>
<path d="M22.5 49.875C22.5 50.3438 22.125 50.625 21.75 50.625H18.6562C18.1875 50.625 17.9062 50.25 17.9062 49.875V46.7813C17.9062 46.3125 18.2812 46.0312 18.6562 46.0312H21.75C22.2188 46.0312 22.5 46.4063 22.5 46.7813V49.875Z" fill="#C7E755"/>
<path d="M29.0625 49.875C29.0625 50.3438 28.6875 50.625 28.3125 50.625H25.2187C24.75 50.625 24.4688 50.25 24.4688 49.875V46.7813C24.4688 46.3125 24.8437 46.0312 25.2187 46.0312H28.3125C28.7813 46.0312 29.0625 46.4063 29.0625 46.7813V49.875Z" fill="#FF435E"/>
<path d="M35.625 49.875C35.625 50.3438 35.25 50.625 34.875 50.625H31.7813C31.3125 50.625 31.0312 50.25 31.0312 49.875V46.7813C31.0312 46.3125 31.4063 46.0312 31.7813 46.0312H34.875C35.3438 46.0312 35.625 46.4063 35.625 46.7813V49.875Z" fill="#42ADE2"/>
<path d="M42.1875 49.875C42.1875 50.3438 41.8125 50.625 41.4375 50.625H38.3438C37.875 50.625 37.5938 50.25 37.5938 49.875V46.7813C37.5938 46.3125 37.9688 46.0312 38.3438 46.0312H41.4375C41.9063 46.0312 42.1875 46.4063 42.1875 46.7813V49.875Z" fill="#C28FEF"/>
<path d="M22.5 31.7813C22.5 32.25 22.125 32.5312 21.75 32.5312H18.6562C18.1875 32.5312 17.9062 32.1563 17.9062 31.7813V28.6875C17.9062 28.2188 18.2812 27.9375 18.6562 27.9375H21.75C22.2188 27.9375 22.5 28.3125 22.5 28.6875V31.7813Z" fill="#C7E755"/>
<path d="M29.0625 31.7813C29.0625 32.25 28.6875 32.5312 28.3125 32.5312H25.2187C24.75 32.5312 24.4688 32.1563 24.4688 31.7813V28.6875C24.4688 28.2188 24.8437 27.9375 25.2187 27.9375H28.3125C28.7813 27.9375 29.0625 28.3125 29.0625 28.6875V31.7813Z" fill="#C28FEF"/>
<path d="M35.625 31.7813C35.625 32.25 35.25 32.5312 34.875 32.5312H31.7813C31.3125 32.5312 31.0312 32.1563 31.0312 31.7813V28.6875C31.0312 28.2188 31.4063 27.9375 31.7813 27.9375H34.875C35.3438 27.9375 35.625 28.3125 35.625 28.6875V31.7813Z" fill="#42ADE2"/>
<path d="M22.5 25.7813C22.5 26.25 22.125 26.5312 21.75 26.5312H18.6562C18.1875 26.5312 17.9062 26.1563 17.9062 25.7813V22.6875C17.9062 22.2188 18.2812 21.9375 18.6562 21.9375H21.75C22.2188 21.9375 22.5 22.3125 22.5 22.6875V25.7813Z" fill="#FF435E"/>
<path d="M29.0625 25.7813C29.0625 26.25 28.6875 26.5312 28.3125 26.5312H25.2187C24.75 26.5312 24.4688 26.1563 24.4688 25.7813V22.6875C24.4688 22.2188 24.8437 21.9375 25.2187 21.9375H28.3125C28.7813 21.9375 29.0625 22.3125 29.0625 22.6875V25.7813Z" fill="#F2B200"/>
<path d="M35.625 25.7813C35.625 26.25 35.25 26.5312 34.875 26.5312H31.7813C31.3125 26.5312 31.0312 26.1563 31.0312 25.7813V22.6875C31.0312 22.2188 31.4063 21.9375 31.7813 21.9375H34.875C35.3438 21.9375 35.625 22.3125 35.625 22.6875V25.7813Z" fill="#C7E755"/>
<path d="M42.1875 25.7813C42.1875 26.25 41.8125 26.5312 41.4375 26.5312H38.3438C37.875 26.5312 37.5938 26.1563 37.5938 25.7813V22.6875C37.5938 22.2188 37.9688 21.9375 38.3438 21.9375H41.4375C41.9063 21.9375 42.1875 22.3125 42.1875 22.6875V25.7813Z" fill="#F2B200"/>
<path d="M22.5 19.7813C22.5 20.25 22.125 20.5312 21.75 20.5312H18.6562C18.1875 20.5312 17.9062 20.1563 17.9062 19.7813V16.6875C17.9062 16.2187 18.2812 15.9375 18.6562 15.9375H21.75C22.2188 15.9375 22.5 16.3125 22.5 16.6875V19.7813Z" fill="#C28FEF"/>
<path d="M29.0625 19.7813C29.0625 20.25 28.6875 20.5312 28.3125 20.5312H25.2187C24.75 20.5312 24.4688 20.1563 24.4688 19.7813V16.6875C24.4688 16.2187 24.8437 15.9375 25.2187 15.9375H28.3125C28.7813 15.9375 29.0625 16.3125 29.0625 16.6875V19.7813Z" fill="#42ADE2"/>
<path d="M35.625 19.7813C35.625 20.25 35.25 20.5312 34.875 20.5312H31.7813C31.3125 20.5312 31.0312 20.1563 31.0312 19.7813V16.6875C31.0312 16.2187 31.4063 15.9375 31.7813 15.9375H34.875C35.3438 15.9375 35.625 16.3125 35.625 16.6875V19.7813Z" fill="#FF435E"/>
<path d="M42.1875 19.7813C42.1875 20.25 41.8125 20.5312 41.4375 20.5312H38.3438C37.875 20.5312 37.5938 20.1563 37.5938 19.7813V16.6875C37.5938 16.2187 37.9688 15.9375 38.3438 15.9375H41.4375C41.9063 15.9375 42.1875 16.3125 42.1875 16.6875V19.7813Z" fill="#C28FEF"/>
</svg>
