<?xml version="1.0" encoding="utf-8"?>
<!-- Generator: Adobe Illustrator 23.0.5, SVG Export Plug-In . SVG Version: 6.00 Build 0)  -->
<svg version="1.1" id="Capa_1" xmlns="http://www.w3.org/2000/svg" xmlns:xlink="http://www.w3.org/1999/xlink" x="0px" y="0px"
	 viewBox="0 0 474 474" style="enable-background:new 0 0 474 474;" xml:space="preserve">
<style type="text/css">
	.st0{fill:#F3F2F2;}
	.st1{fill:#293688;}
	.st2{fill:#F7981D;}
</style>
<circle class="st0" cx="237" cy="237" r="237"/>
<g>
	<polygon class="st1" points="175.5,282.4 193.6,175.4 223,175.4 204.8,282.4 	"/>
	<path class="st1" d="M309.4,178.1c-5.8-2.2-14.9-4.5-26.3-4.5c-29,0-49.5,14.5-49.6,35.3c-0.2,15.4,14.6,24,25.7,29.1
		c11.4,5.2,15.3,8.6,15.2,13.3c-0.1,7.2-9.1,10.5-17.6,10.5c-11.7,0-18-1.6-27.6-5.6l-3.8-1.7l-4.1,24c6.9,3,19.5,5.6,32.7,5.7
		c30.9,0,50.9-14.4,51.1-36.6c0.1-12.2-7.7-21.4-24.7-29.1c-10.3-4.9-16.5-8.3-16.5-13.3c0-4.4,5.3-9.2,16.8-9.2
		c9.6-0.1,16.6,1.9,22,4.1l2.6,1.2L309.4,178.1L309.4,178.1z"/>
	<path class="st1" d="M359.4,175.4c-7,0-12.1,2.1-15.2,9.1l-43.5,98h31.1l6-16.4H375l3.5,16.4H406l-24.2-107.1L359.4,175.4
		L359.4,175.4L359.4,175.4z M346.1,244.6c2.4-6.2,11.7-29.9,11.7-29.9c-0.2,0.3,2.4-6.2,3.9-10.2l2,9.2c0,0,5.6,25.6,6.8,30.9
		L346.1,244.6L346.1,244.6z"/>
	<path class="st1" d="M121.9,248.8l-2.6-14.7c-5.4-17.1-22-35.6-40.6-44.9l25.9,93.3h31.1l46.6-107.1h-31.1L121.9,248.8z"/>
</g>
<g>
	<path class="st2" d="M46.8,175.4v1.7c36.8,8.9,62.4,31.3,72.5,57l-10.6-49.6c-1.8-6.8-7.2-8.9-13.5-9.1L46.8,175.4L46.8,175.4z"/>
	<path class="st2" d="M237,474c91.5,0,170.8-51.8,210.3-127.7H26.7C66.2,422.1,145.5,474,237,474z"/>
</g>
<path class="st1" d="M237,0C147,0,68.7,50.2,28.5,124.1h416.8C405.3,50.2,327,0,237,0z"/>
</svg>
